G04 DipTrace 2.4.0.2*
%INBottom.gbr*%
%MOIN*%
%ADD13C,0.025*%
%ADD14C,0.008*%
%ADD16C,0.012*%
%ADD18C,0.018*%
%ADD20C,0.01*%
%ADD23R,0.0354X0.0276*%
%ADD24R,0.0591X0.0591*%
%ADD25C,0.0591*%
%ADD26R,0.1772X0.0922*%
%ADD29C,0.0591*%
%ADD38R,0.0394X0.0315*%
%ADD39R,0.0276X0.0591*%
%ADD54C,0.027*%
%FSLAX44Y44*%
G04*
G70*
G90*
G75*
G01*
%LNBottom*%
%LPD*%
X14438Y5687D2*
D14*
Y4938D1*
X9750Y750D2*
D16*
X9250Y250D1*
X2937D1*
Y313D1*
X12875Y11688D2*
D13*
X13251Y11311D1*
Y10064D1*
X13126Y9939D1*
Y8751D1*
X11751Y7626D2*
D18*
X11251Y7126D1*
Y6501D1*
X3375Y11000D2*
D16*
X4875D1*
X10189Y9501D2*
D13*
X10501Y9188D1*
X10814Y9501D2*
X10501Y9188D1*
X10189Y8876D2*
X10501Y9188D1*
X10814Y8876D2*
X10501Y9188D1*
X8750Y12000D2*
Y12750D1*
X7750Y13750D1*
X9250Y12000D2*
X8750D1*
Y11500D2*
X9250D1*
X9000Y11750D1*
X8750Y12000D2*
X9000Y11750D1*
X10001Y11501D2*
X9251D1*
X13312Y13250D2*
X12187D1*
X11250Y12313D1*
X9563D1*
X9250Y12000D1*
X13314Y14001D2*
X13126D1*
X13000Y13875D1*
Y13562D1*
X13312Y13250D1*
X13314Y14001D2*
Y14189D1*
X13375Y14250D1*
X14563D1*
X14875D1*
X15188D1*
X15500D1*
X15813D1*
X16125D1*
X16437D1*
X11876Y10001D2*
X11314D1*
X10814Y9501D1*
X10189D2*
Y11314D1*
X10001Y11501D1*
Y11814D2*
Y11501D1*
X10189Y8876D2*
X10000Y8687D1*
Y3625D1*
X9751Y3376D1*
Y1751D1*
X9750Y1750D1*
X15063Y7375D2*
X14750D1*
X14312D1*
X14187Y7250D1*
X13375D1*
X11750Y8875D1*
X10815D1*
X15375Y7375D2*
X15063D1*
X16313D2*
X16000D1*
X15688D1*
X15375D1*
X16625D2*
X16313D1*
X16752Y6251D2*
Y7248D1*
X16625Y7375D1*
X14500Y6563D2*
Y6937D1*
X14187Y7250D1*
X1875Y5687D2*
X2437D1*
X2625Y5875D1*
X3375D1*
Y5876D1*
X5125Y8063D2*
Y7173D1*
X5173Y7125D1*
X2937D1*
X2687Y6875D1*
X1875D1*
X2812Y8313D2*
Y8063D1*
X5125Y8313D2*
Y8063D1*
X562Y13937D2*
Y13625D1*
X5687Y13562D2*
Y13187D1*
X7750Y13750D2*
X5875D1*
X5687Y13562D1*
X1750Y13875D2*
D16*
Y13866D1*
X4624D2*
D13*
Y13874D1*
X1750Y13000D2*
D16*
D3*
X4625D2*
X4624D1*
X562Y13937D2*
D13*
X1688D1*
X1750Y13875D1*
Y13000D1*
Y13875D2*
X4625D1*
Y13000D1*
X4562Y11813D2*
X5250D1*
X5687Y12250D1*
Y13187D1*
X4562Y11813D2*
X3558D1*
X2187D1*
X2099Y11901D1*
X1750Y12250D1*
Y13000D1*
X2812Y8313D2*
X5125D1*
X3375Y6688D2*
X2874D1*
X2687Y6875D1*
X16500Y750D2*
X15125D1*
X14750D1*
X14250Y1250D1*
X11250D1*
X10750Y750D1*
X12001Y2250D2*
Y2001D1*
X11250Y1250D1*
X9750Y1750D2*
X10750Y750D1*
X7001Y3250D2*
X6563Y2812D1*
Y1625D1*
X5000Y625D2*
X4813Y813D1*
Y1250D1*
X5188Y1625D1*
X6563D1*
X1875Y6875D2*
X1391D1*
X1063Y7203D1*
X1875Y5687D2*
X1391D1*
X1063Y5359D1*
X2301Y12744D2*
Y12102D1*
X2099Y11901D1*
X3482Y12744D2*
Y11889D1*
X3558Y11813D1*
X15814Y3313D2*
Y3938D1*
X15877Y4000D1*
Y4625D1*
Y5376D1*
X16752Y6251D1*
X9751Y3376D2*
X8376D1*
X8250Y3250D1*
X7001D1*
X15500Y14250D2*
D3*
X14750Y7375D2*
D3*
X16000D2*
D3*
X4594Y6281D2*
Y6546D1*
X5173Y7125D1*
X6126D1*
X6813Y6438D1*
Y3250D1*
X7001D1*
X9126Y7876D2*
D18*
Y8751D1*
X11844Y14375D2*
D16*
X11719Y14500D1*
X5938D1*
X5125Y13687D1*
Y12875D1*
X4875Y12625D1*
X4073D1*
Y12744D1*
X7750Y2750D2*
X7313Y2313D1*
Y1470D1*
X7094Y1250D1*
X5375D1*
X4082Y6281D2*
X3656D1*
X3406Y5437D2*
X3937D1*
X4094Y5594D1*
Y6269D1*
X4082Y6281D1*
X4875Y4000D2*
X4563D1*
X3406Y2844D1*
Y2688D1*
X6438Y7751D2*
X6439Y7750D1*
X7750D1*
X4875Y3250D2*
X4438D1*
X3938Y2750D1*
Y2250D1*
X3875Y2188D1*
X4875Y3625D2*
X4500D1*
X3688Y2813D1*
Y2500D1*
X3625Y2438D1*
X11439Y4188D2*
D18*
X12751D1*
X13189Y3750D1*
X13750D1*
X16064Y6626D2*
D16*
Y6188D1*
X14502Y4625D1*
X14377D1*
X14252Y4750D1*
X13750D1*
X8594Y1281D2*
Y1250D1*
X7563D1*
X7156Y844D1*
X7000D1*
X3144Y6281D2*
X2969D1*
X4313Y2750D2*
D13*
X5063Y2000D1*
X12001Y3438D2*
D14*
X12189D1*
X12626Y3875D1*
X12876Y3625D2*
X12439Y3188D1*
X12251D1*
D54*
X625Y5687D3*
Y6875D3*
X312D3*
X937D3*
X1250D3*
X1562D3*
X1875D3*
X313Y5687D3*
X938D3*
X1250D3*
X1562D3*
X1875D3*
X562Y13625D3*
X5687Y13562D3*
Y13187D3*
X5125Y8313D3*
Y8063D3*
X2812Y8313D3*
Y8063D3*
X562Y13937D3*
X4562Y11813D3*
X4313Y2750D3*
X15814Y3313D3*
X5063Y2000D3*
X15877Y4625D3*
X14500Y6563D3*
X16752Y6251D3*
X14438Y5687D3*
Y4938D3*
X12001Y2250D3*
X7001Y3250D3*
X3375Y11000D3*
X9750Y1750D3*
X2969Y6281D3*
X15063Y7375D3*
X15375D3*
X14875Y14250D3*
X15188D3*
X16313Y7375D3*
X16625D3*
X16125Y14250D3*
X16437D3*
X12375Y12187D3*
X12875D3*
X12625Y11938D3*
X12375Y11687D3*
X12875Y11688D3*
X11844Y14375D3*
X10189Y8876D3*
X8750Y12000D3*
X9250D3*
X9000Y11750D3*
X8750Y11500D3*
X9250D3*
X10189Y9501D3*
X10000Y6563D3*
X10814Y9501D3*
Y8876D3*
X2937Y313D3*
X3406Y2688D3*
X3625Y2438D3*
X3875Y2188D3*
X4875Y3625D3*
Y3250D3*
Y4000D3*
Y11000D3*
X13126Y8751D3*
X6438Y7751D3*
X13314Y14001D3*
X13312Y13250D3*
X10501Y9188D3*
X9126Y8751D3*
Y7876D3*
X10000Y5750D3*
X11876Y10001D3*
X10001Y11814D3*
Y11501D3*
X12876Y3625D3*
X12626Y3875D3*
X12001Y3438D3*
X12251Y3188D3*
X11751Y7626D3*
X11251Y6501D3*
X11439Y4188D3*
X15877Y4000D3*
X5375Y1250D3*
X3750D3*
X4125Y625D3*
X5000D3*
X3375Y6688D3*
Y5876D3*
X16064Y6626D3*
X8594Y1281D3*
X7000Y844D3*
X6563Y1625D3*
X1750Y13875D3*
Y13000D3*
X4625Y13875D3*
Y13000D3*
X15500Y14250D3*
X15813D3*
X16750D3*
X14563D3*
X14750Y7375D3*
X15688D3*
X16000D3*
X16937D3*
X3406Y5437D3*
X247Y14414D2*
D20*
X5567D1*
X12120D2*
X17003D1*
X247Y14315D2*
X5469D1*
X12115D2*
X17003D1*
X247Y14216D2*
X5370D1*
X5937D2*
X11617D1*
X12070D2*
X17003D1*
X247Y14118D2*
X5270D1*
X5839D2*
X8519D1*
X8981D2*
X9311D1*
X10189D2*
X11755D1*
X11933D2*
X13519D1*
X13981D2*
X17003D1*
X247Y14019D2*
X5172D1*
X5740D2*
X8406D1*
X9094D2*
X9311D1*
X10189D2*
X13406D1*
X14094D2*
X17003D1*
X247Y13920D2*
X5074D1*
X5642D2*
X8345D1*
X9155D2*
X9311D1*
X10189D2*
X13345D1*
X14155D2*
X17003D1*
X247Y13822D2*
X4975D1*
X5544D2*
X8317D1*
X9183D2*
X9311D1*
X10189D2*
X13317D1*
X14183D2*
X17003D1*
X247Y13723D2*
X2474D1*
X2719D2*
X3655D1*
X3900D2*
X4925D1*
X5445D2*
X8311D1*
X9189D2*
X9311D1*
X10189D2*
X13311D1*
X14189D2*
X17003D1*
X247Y13624D2*
X2341D1*
X2851D2*
X3522D1*
X4033D2*
X4920D1*
X5347D2*
X8330D1*
X9170D2*
X9311D1*
X10189D2*
X13330D1*
X14170D2*
X17003D1*
X247Y13526D2*
X2289D1*
X2903D2*
X3470D1*
X4084D2*
X4920D1*
X5330D2*
X8374D1*
X9126D2*
X9311D1*
X10189D2*
X13374D1*
X14126D2*
X17003D1*
X247Y13427D2*
X2275D1*
X2917D2*
X3456D1*
X4098D2*
X4920D1*
X5330D2*
X8458D1*
X9042D2*
X9311D1*
X10189D2*
X13458D1*
X14042D2*
X17003D1*
X247Y13328D2*
X2294D1*
X2900D2*
X3475D1*
X4081D2*
X4920D1*
X5330D2*
X8661D1*
X8839D2*
X9311D1*
X10189D2*
X13661D1*
X13839D2*
X17003D1*
X247Y13230D2*
X2352D1*
X2842D2*
X3533D1*
X4023D2*
X4920D1*
X5330D2*
X17003D1*
X247Y13131D2*
X2513D1*
X2680D2*
X3694D1*
X4355D2*
X4920D1*
X5330D2*
X7542D1*
X7958D2*
X13542D1*
X13958D2*
X17003D1*
X247Y13032D2*
X3791D1*
X4355D2*
X4920D1*
X5330D2*
X7417D1*
X8083D2*
X13417D1*
X14083D2*
X17003D1*
X247Y12933D2*
X3791D1*
X4355D2*
X4899D1*
X5330D2*
X7352D1*
X8148D2*
X13352D1*
X14148D2*
X17003D1*
X247Y12835D2*
X3791D1*
X4355D2*
X4800D1*
X5325D2*
X7319D1*
X8181D2*
X13319D1*
X14181D2*
X14847D1*
X15403D2*
X16222D1*
X16778D2*
X17003D1*
X247Y12736D2*
X3791D1*
X5270D2*
X7311D1*
X8189D2*
X13311D1*
X14189D2*
X14756D1*
X15494D2*
X16131D1*
X16869D2*
X17003D1*
X247Y12637D2*
X3791D1*
X5172D2*
X7325D1*
X8175D2*
X13325D1*
X14175D2*
X14708D1*
X15542D2*
X16083D1*
X16917D2*
X17003D1*
X247Y12539D2*
X3791D1*
X5073D2*
X7366D1*
X8134D2*
X12027D1*
X14536D2*
X14688D1*
X15562D2*
X16063D1*
X16937D2*
X17003D1*
X247Y12440D2*
X3791D1*
X4944D2*
X7444D1*
X8056D2*
X11981D1*
X14634D2*
X14691D1*
X15559D2*
X16066D1*
X16934D2*
X17003D1*
X247Y12341D2*
X3791D1*
X4355D2*
X7610D1*
X7890D2*
X11981D1*
X15534D2*
X16091D1*
X16909D2*
X17003D1*
X247Y12243D2*
X11981D1*
X15478D2*
X16147D1*
X16853D2*
X17003D1*
X247Y12144D2*
X7570D1*
X7930D2*
X11981D1*
X15375D2*
X16250D1*
X16750D2*
X17003D1*
X247Y12045D2*
X7428D1*
X8072D2*
X11981D1*
X247Y11947D2*
X7358D1*
X8142D2*
X11981D1*
X247Y11848D2*
X7322D1*
X8178D2*
X11981D1*
X247Y11749D2*
X7311D1*
X8189D2*
X11981D1*
X247Y11651D2*
X7322D1*
X8178D2*
X11981D1*
X247Y11552D2*
X7360D1*
X8140D2*
X11981D1*
X247Y11453D2*
X7430D1*
X8070D2*
X11981D1*
X247Y11354D2*
X7574D1*
X7926D2*
X11981D1*
X247Y11256D2*
X3283D1*
X3467D2*
X4783D1*
X4967D2*
X11981D1*
X247Y11157D2*
X3147D1*
X5103D2*
X7605D1*
X7895D2*
X11981D1*
X247Y11058D2*
X3103D1*
X5147D2*
X7442D1*
X8058D2*
X11981D1*
X247Y10960D2*
X3099D1*
X5151D2*
X7366D1*
X8134D2*
X11981D1*
X247Y10861D2*
X3135D1*
X5115D2*
X7325D1*
X8175D2*
X11981D1*
X247Y10762D2*
X3239D1*
X3511D2*
X4739D1*
X5011D2*
X7311D1*
X8189D2*
X11981D1*
X247Y10664D2*
X7319D1*
X8181D2*
X11981D1*
X247Y10565D2*
X7353D1*
X8147D2*
X11981D1*
X247Y10466D2*
X7417D1*
X8083D2*
X11983D1*
X247Y10368D2*
X7545D1*
X7955D2*
X11983D1*
X247Y10269D2*
X11983D1*
X247Y10170D2*
X7653D1*
X7847D2*
X11983D1*
X247Y10072D2*
X7456D1*
X8044D2*
X11983D1*
X247Y9973D2*
X7374D1*
X8126D2*
X12017D1*
X247Y9874D2*
X7330D1*
X8170D2*
X12116D1*
X247Y9775D2*
X7311D1*
X8189D2*
X12216D1*
X247Y9677D2*
X7317D1*
X8183D2*
X12314D1*
X247Y9578D2*
X7347D1*
X8153D2*
X12413D1*
X247Y9479D2*
X7406D1*
X8094D2*
X12511D1*
X247Y9381D2*
X7522D1*
X7978D2*
X12610D1*
X15480D2*
X16145D1*
X16855D2*
X17003D1*
X247Y9282D2*
X12708D1*
X15534D2*
X16091D1*
X16909D2*
X17003D1*
X247Y9183D2*
X12806D1*
X14633D2*
X14689D1*
X15561D2*
X16064D1*
X16936D2*
X17003D1*
X247Y9085D2*
X7472D1*
X8028D2*
X12858D1*
X14534D2*
X14688D1*
X15562D2*
X16063D1*
X16937D2*
X17003D1*
X247Y8986D2*
X7381D1*
X8119D2*
X8986D1*
X9267D2*
X12858D1*
X14436D2*
X14710D1*
X15540D2*
X16085D1*
X16915D2*
X17003D1*
X247Y8887D2*
X7333D1*
X8167D2*
X8885D1*
X9367D2*
X12858D1*
X14167D2*
X14758D1*
X15492D2*
X16133D1*
X16867D2*
X17003D1*
X247Y8789D2*
X7313D1*
X8187D2*
X8850D1*
X9401D2*
X12850D1*
X14187D2*
X14849D1*
X15401D2*
X16224D1*
X16776D2*
X17003D1*
X247Y8690D2*
X7316D1*
X8184D2*
X8855D1*
X9398D2*
X12855D1*
X14184D2*
X17003D1*
X247Y8591D2*
X7341D1*
X8159D2*
X8892D1*
X9359D2*
X12900D1*
X14159D2*
X17003D1*
X247Y8493D2*
X7397D1*
X8103D2*
X8892D1*
X9359D2*
X13042D1*
X13211D2*
X13397D1*
X14103D2*
X17003D1*
X247Y8394D2*
X7500D1*
X8000D2*
X8892D1*
X9359D2*
X13500D1*
X14000D2*
X17003D1*
X247Y8295D2*
X8892D1*
X9359D2*
X17003D1*
X247Y8196D2*
X8892D1*
X9359D2*
X17003D1*
X247Y8098D2*
X7489D1*
X8011D2*
X8892D1*
X9359D2*
X13489D1*
X14011D2*
X17003D1*
X247Y7999D2*
X6325D1*
X6551D2*
X7391D1*
X8109D2*
X8877D1*
X9375D2*
X13391D1*
X14109D2*
X17003D1*
X247Y7900D2*
X6205D1*
X8162D2*
X8849D1*
X9403D2*
X13338D1*
X14162D2*
X17003D1*
X247Y7802D2*
X6164D1*
X8186D2*
X8858D1*
X9395D2*
X11538D1*
X11964D2*
X13314D1*
X14186D2*
X17003D1*
X247Y7703D2*
X6164D1*
X8187D2*
X8910D1*
X9342D2*
X11483D1*
X12019D2*
X13314D1*
X14187D2*
X17003D1*
X247Y7604D2*
X6203D1*
X8164D2*
X11403D1*
X12030D2*
X13336D1*
X14164D2*
X17003D1*
X247Y7506D2*
X6317D1*
X6559D2*
X7388D1*
X8112D2*
X11305D1*
X12001D2*
X13388D1*
X14112D2*
X17003D1*
X247Y7407D2*
X7481D1*
X8019D2*
X11206D1*
X11917D2*
X13481D1*
X14019D2*
X17003D1*
X247Y7308D2*
X11106D1*
X11761D2*
X17003D1*
X247Y7210D2*
X11033D1*
X11662D2*
X17003D1*
X247Y7111D2*
X7508D1*
X7992D2*
X11017D1*
X11562D2*
X13508D1*
X13992D2*
X17003D1*
X247Y7012D2*
X7400D1*
X8100D2*
X11017D1*
X11486D2*
X13400D1*
X14100D2*
X17003D1*
X247Y6914D2*
X7344D1*
X8156D2*
X11017D1*
X11486D2*
X13344D1*
X14156D2*
X17003D1*
X247Y6815D2*
X7316D1*
X8184D2*
X11017D1*
X11486D2*
X13316D1*
X14184D2*
X15863D1*
X16265D2*
X17003D1*
X247Y6716D2*
X7313D1*
X8187D2*
X11017D1*
X11486D2*
X13313D1*
X14187D2*
X15802D1*
X16328D2*
X17003D1*
X247Y6617D2*
X7331D1*
X8169D2*
X10999D1*
X11503D2*
X13331D1*
X14169D2*
X15786D1*
X16344D2*
X17003D1*
X247Y6519D2*
X2824D1*
X4403D2*
X7378D1*
X8122D2*
X10974D1*
X11530D2*
X13378D1*
X14122D2*
X15808D1*
X16320D2*
X17003D1*
X247Y6420D2*
X2728D1*
X4403D2*
X7466D1*
X8034D2*
X10985D1*
X11517D2*
X13466D1*
X14034D2*
X15861D1*
X16269D2*
X17003D1*
X247Y6321D2*
X2692D1*
X4403D2*
X7717D1*
X7782D2*
X11041D1*
X11462D2*
X13717D1*
X13782D2*
X15861D1*
X16269D2*
X17003D1*
X247Y6223D2*
X2697D1*
X4403D2*
X15814D1*
X16269D2*
X17003D1*
X247Y6124D2*
X2741D1*
X4403D2*
X7530D1*
X7970D2*
X13530D1*
X13970D2*
X15716D1*
X16258D2*
X17003D1*
X247Y6025D2*
X2824D1*
X4403D2*
X7411D1*
X8089D2*
X13411D1*
X14089D2*
X15617D1*
X16186D2*
X17003D1*
X247Y5927D2*
X3889D1*
X4298D2*
X7349D1*
X8151D2*
X13349D1*
X14151D2*
X14305D1*
X14570D2*
X15519D1*
X16087D2*
X17003D1*
X247Y5828D2*
X3889D1*
X4298D2*
X7317D1*
X8183D2*
X13317D1*
X14676D2*
X15420D1*
X15989D2*
X17003D1*
X247Y5729D2*
X3889D1*
X4298D2*
X7311D1*
X8189D2*
X13311D1*
X14712D2*
X15320D1*
X15889D2*
X17003D1*
X247Y5631D2*
X3210D1*
X4298D2*
X7328D1*
X8172D2*
X13328D1*
X14711D2*
X15222D1*
X15790D2*
X17003D1*
X247Y5532D2*
X3144D1*
X4287D2*
X7370D1*
X8130D2*
X13370D1*
X14130D2*
X14208D1*
X14667D2*
X15124D1*
X15692D2*
X17003D1*
X247Y5433D2*
X3127D1*
X4217D2*
X7450D1*
X8050D2*
X13450D1*
X14050D2*
X14253D1*
X14622D2*
X15025D1*
X15594D2*
X17003D1*
X247Y5335D2*
X3149D1*
X4119D2*
X7633D1*
X7867D2*
X13633D1*
X13867D2*
X14253D1*
X14622D2*
X14927D1*
X15495D2*
X17003D1*
X247Y5236D2*
X3219D1*
X3594D2*
X14253D1*
X14622D2*
X14828D1*
X15397D2*
X17003D1*
X247Y5137D2*
X7555D1*
X7945D2*
X13555D1*
X13945D2*
X14247D1*
X14628D2*
X14728D1*
X15297D2*
X17003D1*
X247Y5038D2*
X7422D1*
X8078D2*
X13422D1*
X14078D2*
X14178D1*
X15198D2*
X17003D1*
X247Y4940D2*
X7355D1*
X8145D2*
X13355D1*
X15100D2*
X17003D1*
X247Y4841D2*
X7320D1*
X8180D2*
X13320D1*
X15001D2*
X17003D1*
X247Y4742D2*
X7311D1*
X8189D2*
X13311D1*
X14903D2*
X17003D1*
X247Y4644D2*
X7324D1*
X8176D2*
X13324D1*
X14805D2*
X17003D1*
X247Y4545D2*
X7363D1*
X8137D2*
X13363D1*
X14137D2*
X14173D1*
X14705D2*
X17003D1*
X247Y4446D2*
X7436D1*
X8064D2*
X11355D1*
X11523D2*
X13436D1*
X14064D2*
X14292D1*
X14586D2*
X17003D1*
X247Y4348D2*
X7591D1*
X7909D2*
X11213D1*
X12919D2*
X13591D1*
X13909D2*
X17003D1*
X247Y4249D2*
X4764D1*
X4986D2*
X11167D1*
X13017D2*
X17003D1*
X247Y4150D2*
X4430D1*
X5108D2*
X7585D1*
X7915D2*
X11163D1*
X13115D2*
X13585D1*
X13915D2*
X17003D1*
X247Y4052D2*
X4330D1*
X5148D2*
X7435D1*
X8065D2*
X11197D1*
X13214D2*
X13435D1*
X14065D2*
X17003D1*
X247Y3953D2*
X4231D1*
X5150D2*
X7361D1*
X8139D2*
X11299D1*
X11580D2*
X12360D1*
X14139D2*
X17003D1*
X247Y3854D2*
X4133D1*
X5111D2*
X7324D1*
X8176D2*
X12349D1*
X14176D2*
X17003D1*
X247Y3756D2*
X4035D1*
X5120D2*
X7311D1*
X8189D2*
X12250D1*
X14189D2*
X17003D1*
X247Y3657D2*
X3935D1*
X5151D2*
X7320D1*
X8180D2*
X11835D1*
X14180D2*
X17003D1*
X247Y3558D2*
X3836D1*
X5145D2*
X7356D1*
X8144D2*
X11750D1*
X14144D2*
X17003D1*
X247Y3459D2*
X3738D1*
X5097D2*
X7424D1*
X8076D2*
X11724D1*
X13098D2*
X13424D1*
X14076D2*
X17003D1*
X247Y3361D2*
X3639D1*
X5130D2*
X7560D1*
X7940D2*
X11733D1*
X12934D2*
X13560D1*
X13940D2*
X17003D1*
X247Y3262D2*
X3541D1*
X5153D2*
X11788D1*
X12769D2*
X17003D1*
X247Y3163D2*
X3442D1*
X5139D2*
X7625D1*
X7875D2*
X11974D1*
X12670D2*
X13625D1*
X13875D2*
X14686D1*
X15564D2*
X16061D1*
X16939D2*
X17003D1*
X247Y3065D2*
X3342D1*
X5080D2*
X7449D1*
X8051D2*
X12002D1*
X12572D2*
X13449D1*
X14051D2*
X14686D1*
X15564D2*
X16061D1*
X16939D2*
X17003D1*
X247Y2966D2*
X3245D1*
X4483D2*
X7369D1*
X8131D2*
X12089D1*
X12414D2*
X13369D1*
X14131D2*
X14686D1*
X15564D2*
X16061D1*
X16939D2*
X17003D1*
X247Y2867D2*
X3197D1*
X4572D2*
X7327D1*
X8173D2*
X13327D1*
X14173D2*
X14686D1*
X15564D2*
X16061D1*
X16939D2*
X17003D1*
X247Y2769D2*
X3139D1*
X4670D2*
X7311D1*
X8189D2*
X13311D1*
X14189D2*
X14686D1*
X15564D2*
X16061D1*
X16939D2*
X17003D1*
X247Y2670D2*
X3128D1*
X4769D2*
X7319D1*
X8181D2*
X13319D1*
X14181D2*
X14686D1*
X15564D2*
X16061D1*
X16939D2*
X17003D1*
X247Y2571D2*
X3153D1*
X4869D2*
X7288D1*
X8150D2*
X13350D1*
X14150D2*
X14686D1*
X15564D2*
X16061D1*
X16939D2*
X17003D1*
X247Y2473D2*
X3235D1*
X4142D2*
X4214D1*
X4967D2*
X7188D1*
X8087D2*
X13413D1*
X14087D2*
X14686D1*
X15564D2*
X16061D1*
X16939D2*
X17003D1*
X247Y2374D2*
X3355D1*
X4142D2*
X4313D1*
X5065D2*
X7119D1*
X7967D2*
X13533D1*
X13967D2*
X14686D1*
X15564D2*
X16061D1*
X16939D2*
X17003D1*
X247Y2275D2*
X3402D1*
X4142D2*
X4413D1*
X5164D2*
X7110D1*
X7559D2*
X17003D1*
X247Y2177D2*
X3552D1*
X4155D2*
X4511D1*
X5276D2*
X7110D1*
X7517D2*
X7692D1*
X7808D2*
X13692D1*
X13808D2*
X15067D1*
X15183D2*
X16442D1*
X16558D2*
X17003D1*
X247Y2078D2*
X3620D1*
X4131D2*
X4610D1*
X5331D2*
X7110D1*
X8037D2*
X13463D1*
X14037D2*
X14838D1*
X15412D2*
X16213D1*
X16787D2*
X17003D1*
X247Y1979D2*
X3695D1*
X4055D2*
X4708D1*
X5340D2*
X7110D1*
X8123D2*
X13377D1*
X14123D2*
X14752D1*
X15498D2*
X16127D1*
X16873D2*
X17003D1*
X247Y1880D2*
X4806D1*
X5314D2*
X7110D1*
X8169D2*
X13331D1*
X14169D2*
X14706D1*
X15544D2*
X16081D1*
X16919D2*
X17003D1*
X247Y1782D2*
X4897D1*
X5230D2*
X7110D1*
X8187D2*
X13313D1*
X14187D2*
X14688D1*
X15562D2*
X16063D1*
X16937D2*
X17003D1*
X247Y1683D2*
X7110D1*
X8184D2*
X13316D1*
X14184D2*
X14691D1*
X15559D2*
X16066D1*
X16934D2*
X17003D1*
X247Y1584D2*
X7110D1*
X8156D2*
X13344D1*
X14156D2*
X14719D1*
X15531D2*
X16094D1*
X16906D2*
X17003D1*
X247Y1486D2*
X3611D1*
X3889D2*
X5236D1*
X5514D2*
X7045D1*
X8098D2*
X8410D1*
X8778D2*
X13402D1*
X14098D2*
X14777D1*
X15473D2*
X16152D1*
X16848D2*
X17003D1*
X247Y1387D2*
X3508D1*
X3992D2*
X5135D1*
X8851D2*
X13511D1*
X13989D2*
X14886D1*
X15364D2*
X16261D1*
X16739D2*
X17003D1*
X247Y1288D2*
X3474D1*
X4026D2*
X5099D1*
X8873D2*
X17003D1*
X247Y1190D2*
X3478D1*
X4022D2*
X5103D1*
X8856D2*
X17003D1*
X247Y1091D2*
X3524D1*
X3976D2*
X5149D1*
X9020D2*
X9480D1*
X10020D2*
X11480D1*
X12020D2*
X12480D1*
X13020D2*
X13480D1*
X14020D2*
X17003D1*
X247Y992D2*
X3664D1*
X3836D2*
X5289D1*
X5461D2*
X6766D1*
X8114D2*
X8386D1*
X9114D2*
X9386D1*
X10114D2*
X11386D1*
X12114D2*
X12386D1*
X13114D2*
X13386D1*
X14114D2*
X17003D1*
X247Y894D2*
X6725D1*
X8164D2*
X8336D1*
X9164D2*
X9336D1*
X10164D2*
X11336D1*
X12164D2*
X12336D1*
X13164D2*
X13336D1*
X14164D2*
X17003D1*
X247Y795D2*
X6725D1*
X8187D2*
X8313D1*
X9187D2*
X9313D1*
X10187D2*
X11313D1*
X12187D2*
X12313D1*
X13187D2*
X13313D1*
X14187D2*
X17003D1*
X247Y696D2*
X6766D1*
X8186D2*
X8314D1*
X9186D2*
X9314D1*
X10186D2*
X11314D1*
X12186D2*
X12314D1*
X13186D2*
X13314D1*
X14186D2*
X17003D1*
X247Y598D2*
X6881D1*
X7119D2*
X7339D1*
X8161D2*
X8339D1*
X9161D2*
X9313D1*
X10161D2*
X11339D1*
X12161D2*
X12339D1*
X13161D2*
X13339D1*
X14161D2*
X17003D1*
X247Y499D2*
X2733D1*
X3142D2*
X7392D1*
X8108D2*
X8392D1*
X9108D2*
X9214D1*
X10108D2*
X11392D1*
X12108D2*
X12392D1*
X13108D2*
X13392D1*
X14108D2*
X17003D1*
X247Y400D2*
X2674D1*
X10009D2*
X11491D1*
X12009D2*
X12491D1*
X13009D2*
X13491D1*
X14009D2*
X17003D1*
X247Y301D2*
X2660D1*
X9586D2*
X17003D1*
X3821Y6553D2*
X4393D1*
Y6009D1*
X4288D1*
Y5594D1*
X4281Y5544D1*
X4263Y5498D1*
X4231Y5457D1*
X4075Y5300D1*
X4035Y5270D1*
X3989Y5251D1*
X3937Y5243D1*
X3592D1*
X3567Y5222D1*
X3525Y5196D1*
X3478Y5178D1*
X3429Y5169D1*
X3379Y5170D1*
X3330Y5180D1*
X3284Y5198D1*
X3241Y5225D1*
X3205Y5259D1*
X3175Y5299D1*
X3154Y5344D1*
X3141Y5393D1*
X3137Y5442D1*
X3143Y5492D1*
X3157Y5540D1*
X3181Y5584D1*
X3212Y5623D1*
X3249Y5656D1*
X3292Y5681D1*
X3339Y5698D1*
X3389Y5706D1*
X3439Y5705D1*
X3487Y5694D1*
X3533Y5675D1*
X3575Y5647D1*
X3592Y5631D1*
X3858D1*
X3901Y5675D1*
X3900Y6011D1*
X3771Y6009D1*
X3345D1*
X2833D1*
Y6049D1*
X2804Y6069D1*
X2767Y6103D1*
X2738Y6143D1*
X2716Y6188D1*
X2704Y6236D1*
X2700Y6286D1*
X2705Y6336D1*
X2720Y6384D1*
X2743Y6428D1*
X2774Y6467D1*
X2812Y6500D1*
X2835Y6513D1*
X2833Y6553D1*
X3456Y6551D1*
X3495Y6553D1*
X3967Y6551D1*
X9371Y14179D2*
X10179D1*
Y13321D1*
X9321D1*
Y14179D1*
X9371D1*
X9176Y13700D2*
X9168Y13651D1*
X9153Y13603D1*
X9134Y13557D1*
X9109Y13514D1*
X9079Y13474D1*
X9044Y13438D1*
X9006Y13405D1*
X8964Y13378D1*
X8920Y13356D1*
X8873Y13339D1*
X8824Y13327D1*
X8774Y13321D1*
X8724D1*
X8675Y13327D1*
X8626Y13339D1*
X8579Y13356D1*
X8535Y13379D1*
X8493Y13406D1*
X8455Y13438D1*
X8420Y13475D1*
X8391Y13515D1*
X8366Y13558D1*
X8346Y13604D1*
X8332Y13652D1*
X8323Y13701D1*
X8321Y13751D1*
X8324Y13801D1*
X8333Y13850D1*
X8347Y13898D1*
X8367Y13944D1*
X8392Y13987D1*
X8422Y14027D1*
X8457Y14063D1*
X8495Y14095D1*
X8537Y14123D1*
X8582Y14145D1*
X8629Y14162D1*
X8677Y14173D1*
X8727Y14179D1*
X8777Y14178D1*
X8827Y14172D1*
X8875Y14161D1*
X8922Y14143D1*
X8967Y14121D1*
X9008Y14093D1*
X9046Y14061D1*
X9080Y14024D1*
X9110Y13984D1*
X9135Y13940D1*
X9154Y13894D1*
X9168Y13846D1*
X9177Y13797D1*
X9179Y13750D1*
X9176Y13700D1*
X15551Y9075D2*
X15543Y9026D1*
X15528Y8978D1*
X15509Y8932D1*
X15484Y8889D1*
X15454Y8849D1*
X15419Y8813D1*
X15381Y8780D1*
X15339Y8753D1*
X15295Y8731D1*
X15248Y8714D1*
X15199Y8702D1*
X15149Y8696D1*
X15099D1*
X15050Y8702D1*
X15001Y8714D1*
X14954Y8731D1*
X14910Y8754D1*
X14868Y8781D1*
X14830Y8813D1*
X14795Y8850D1*
X14766Y8890D1*
X14741Y8933D1*
X14721Y8979D1*
X14707Y9027D1*
X14698Y9076D1*
X14696Y9126D1*
X14699Y9176D1*
X14708Y9225D1*
X14729Y9289D1*
X14407Y8968D1*
X14366Y8940D1*
X14312Y8928D1*
X14139Y8929D1*
X14154Y8894D1*
X14168Y8846D1*
X14177Y8797D1*
X14179Y8750D1*
X14176Y8700D1*
X14168Y8651D1*
X14153Y8603D1*
X14134Y8557D1*
X14109Y8514D1*
X14079Y8474D1*
X14044Y8438D1*
X14006Y8405D1*
X13964Y8378D1*
X13920Y8356D1*
X13873Y8339D1*
X13824Y8327D1*
X13774Y8321D1*
X13724D1*
X13675Y8327D1*
X13626Y8339D1*
X13579Y8356D1*
X13535Y8379D1*
X13493Y8406D1*
X13455Y8438D1*
X13420Y8475D1*
X13391Y8515D1*
X13366Y8558D1*
X13348Y8600D1*
X13324Y8569D1*
X13287Y8535D1*
X13245Y8509D1*
X13198Y8492D1*
X13149Y8483D1*
X13099D1*
X13050Y8493D1*
X13004Y8512D1*
X12962Y8538D1*
X12925Y8572D1*
X12896Y8613D1*
X12874Y8658D1*
X12861Y8706D1*
X12857Y8756D1*
X12867Y8819D1*
Y9134D1*
X12032Y9969D1*
X12004Y10010D1*
X11992Y10063D1*
X11991Y12437D1*
X12000Y12486D1*
X12027Y12528D1*
X12066Y12558D1*
X12125Y12571D1*
X13361D1*
X13346Y12604D1*
X13332Y12652D1*
X13323Y12701D1*
X13321Y12751D1*
X13324Y12801D1*
X13333Y12850D1*
X13347Y12898D1*
X13367Y12944D1*
X13392Y12987D1*
X13422Y13027D1*
X13457Y13063D1*
X13495Y13095D1*
X13537Y13123D1*
X13582Y13145D1*
X13629Y13162D1*
X13677Y13173D1*
X13727Y13179D1*
X13777Y13178D1*
X13827Y13172D1*
X13875Y13161D1*
X13922Y13143D1*
X13967Y13121D1*
X14008Y13093D1*
X14046Y13061D1*
X14080Y13024D1*
X14110Y12984D1*
X14135Y12940D1*
X14154Y12894D1*
X14168Y12846D1*
X14177Y12797D1*
X14179Y12750D1*
X14176Y12700D1*
X14168Y12651D1*
X14139Y12570D1*
X14438Y12571D1*
X14486Y12562D1*
X14532Y12532D1*
X14728Y12337D1*
X14707Y12402D1*
X14698Y12451D1*
X14696Y12501D1*
X14699Y12551D1*
X14708Y12600D1*
X14722Y12648D1*
X14742Y12694D1*
X14767Y12737D1*
X14797Y12777D1*
X14832Y12813D1*
X14870Y12845D1*
X14912Y12873D1*
X14957Y12895D1*
X15004Y12912D1*
X15052Y12923D1*
X15102Y12929D1*
X15152Y12928D1*
X15202Y12922D1*
X15250Y12911D1*
X15297Y12893D1*
X15342Y12871D1*
X15383Y12843D1*
X15421Y12811D1*
X15455Y12774D1*
X15485Y12734D1*
X15510Y12690D1*
X15529Y12644D1*
X15543Y12596D1*
X15552Y12547D1*
X15554Y12500D1*
X15551Y12450D1*
X15543Y12401D1*
X15528Y12353D1*
X15509Y12307D1*
X15484Y12264D1*
X15454Y12224D1*
X15419Y12188D1*
X15381Y12155D1*
X15348Y12134D1*
X16277D1*
X16243Y12156D1*
X16205Y12188D1*
X16170Y12225D1*
X16141Y12265D1*
X16116Y12308D1*
X16096Y12354D1*
X16082Y12402D1*
X16073Y12451D1*
X16071Y12501D1*
X16074Y12551D1*
X16083Y12600D1*
X16097Y12648D1*
X16117Y12694D1*
X16142Y12737D1*
X16172Y12777D1*
X16207Y12813D1*
X16245Y12845D1*
X16287Y12873D1*
X16332Y12895D1*
X16379Y12912D1*
X16427Y12923D1*
X16477Y12929D1*
X16527Y12928D1*
X16577Y12922D1*
X16625Y12911D1*
X16672Y12893D1*
X16717Y12871D1*
X16758Y12843D1*
X16796Y12811D1*
X16830Y12774D1*
X16860Y12734D1*
X16885Y12690D1*
X16904Y12644D1*
X16918Y12596D1*
X16927Y12547D1*
X16929Y12500D1*
X16926Y12450D1*
X16918Y12401D1*
X16903Y12353D1*
X16884Y12307D1*
X16859Y12264D1*
X16829Y12224D1*
X16794Y12188D1*
X16756Y12155D1*
X16725Y12134D1*
X17014D1*
X17013Y12237D1*
Y14512D1*
X12073D1*
X12098Y14463D1*
X12110Y14415D1*
X12113Y14375D1*
X12108Y14325D1*
X12094Y14277D1*
X12072Y14233D1*
X12042Y14193D1*
X12005Y14159D1*
X11962Y14133D1*
X11915Y14116D1*
X11866Y14107D1*
X11816D1*
X11767Y14117D1*
X11721Y14136D1*
X11679Y14162D1*
X11642Y14197D1*
X11613Y14237D1*
X11591Y14282D1*
X11585Y14308D1*
X11419Y14306D1*
X6017D1*
X5318Y13606D1*
X5319Y13237D1*
Y12875D1*
X5313Y12826D1*
X5294Y12779D1*
X5262Y12738D1*
X5012Y12488D1*
X4973Y12457D1*
X4927Y12438D1*
X4875Y12431D1*
X4345D1*
Y12315D1*
X3801D1*
Y13123D1*
X3766Y13122D1*
X3717Y13128D1*
X3669Y13142D1*
X3623Y13163D1*
X3582Y13191D1*
X3546Y13225D1*
X3516Y13265D1*
X3492Y13309D1*
X3476Y13356D1*
X3468Y13406D1*
X3467Y13455D1*
X3475Y13505D1*
X3490Y13552D1*
X3513Y13597D1*
X3543Y13637D1*
X3578Y13672D1*
X3619Y13701D1*
X3664Y13723D1*
X3712Y13737D1*
X3761Y13744D1*
X3811Y13742D1*
X3860Y13733D1*
X3907Y13716D1*
X3951Y13692D1*
X3990Y13661D1*
X4024Y13624D1*
X4051Y13582D1*
X4071Y13536D1*
X4084Y13488D1*
X4089Y13433D1*
X4085Y13383D1*
X4073Y13335D1*
X4053Y13289D1*
X4027Y13247D1*
X3994Y13209D1*
X3948Y13174D1*
X4345Y13173D1*
Y12819D1*
X4796D1*
X4931Y12956D1*
Y13687D1*
X4937Y13737D1*
X4956Y13783D1*
X4988Y13825D1*
X5676Y14513D1*
X237Y14512D1*
Y237D1*
X2680D1*
X2672Y268D1*
X2669Y317D1*
X2674Y367D1*
X2689Y415D1*
X2712Y459D1*
X2743Y498D1*
X2781Y531D1*
X2824Y556D1*
X2871Y573D1*
X2920Y581D1*
X2970Y580D1*
X3019Y569D1*
X3065Y550D1*
X3106Y522D1*
X3142Y487D1*
X3171Y445D1*
X3637Y444D1*
X7448D1*
X7391Y515D1*
X7366Y558D1*
X7346Y604D1*
X7332Y652D1*
X7322Y734D1*
X7293Y707D1*
X7254Y676D1*
X7213Y659D1*
X7118Y602D1*
X7072Y584D1*
X7023Y576D1*
X6973D1*
X6924Y586D1*
X6877Y604D1*
X6835Y631D1*
X6799Y665D1*
X6769Y706D1*
X6748Y751D1*
X6735Y799D1*
X6731Y849D1*
X6737Y898D1*
X6751Y946D1*
X6774Y990D1*
X6805Y1029D1*
X6837Y1057D1*
X5994Y1056D1*
X5561D1*
X5536Y1035D1*
X5494Y1009D1*
X5447Y991D1*
X5398Y982D1*
X5348D1*
X5299Y992D1*
X5252Y1011D1*
X5210Y1038D1*
X5174Y1072D1*
X5144Y1112D1*
X5123Y1157D1*
X5110Y1205D1*
X5106Y1255D1*
X5112Y1305D1*
X5126Y1352D1*
X5150Y1397D1*
X5181Y1436D1*
X5218Y1469D1*
X5261Y1494D1*
X5308Y1511D1*
X5358Y1519D1*
X5407Y1517D1*
X5456Y1507D1*
X5502Y1487D1*
X5544Y1460D1*
X5561Y1443D1*
X6475Y1444D1*
X7014D1*
X7119Y1550D1*
Y2313D1*
X7126Y2363D1*
X7144Y2409D1*
X7176Y2450D1*
X7343Y2617D1*
X7332Y2652D1*
X7323Y2701D1*
X7321Y2751D1*
X7324Y2801D1*
X7333Y2850D1*
X7347Y2898D1*
X7367Y2944D1*
X7392Y2987D1*
X7422Y3027D1*
X7457Y3063D1*
X7495Y3095D1*
X7537Y3123D1*
X7582Y3145D1*
X7629Y3162D1*
X7677Y3173D1*
X7727Y3179D1*
X7777Y3178D1*
X7827Y3172D1*
X7875Y3161D1*
X7922Y3143D1*
X7967Y3121D1*
X8008Y3093D1*
X8046Y3061D1*
X8080Y3024D1*
X8110Y2984D1*
X8135Y2940D1*
X8154Y2894D1*
X8168Y2846D1*
X8177Y2797D1*
X8179Y2750D1*
X8176Y2700D1*
X8168Y2651D1*
X8153Y2603D1*
X8134Y2557D1*
X8109Y2514D1*
X8079Y2474D1*
X8044Y2438D1*
X8006Y2405D1*
X7964Y2378D1*
X7920Y2356D1*
X7873Y2339D1*
X7824Y2327D1*
X7774Y2321D1*
X7724D1*
X7675Y2327D1*
X7616Y2343D1*
X7508Y2234D1*
X7507Y2105D1*
X7582Y2145D1*
X7629Y2162D1*
X7677Y2173D1*
X7727Y2179D1*
X7777Y2178D1*
X7827Y2172D1*
X7875Y2161D1*
X7922Y2143D1*
X7967Y2121D1*
X8008Y2093D1*
X8046Y2061D1*
X8080Y2024D1*
X8110Y1984D1*
X8135Y1940D1*
X8154Y1894D1*
X8168Y1846D1*
X8177Y1797D1*
X8179Y1750D1*
X8176Y1700D1*
X8168Y1651D1*
X8153Y1603D1*
X8134Y1557D1*
X8109Y1514D1*
X8079Y1474D1*
X8050Y1443D1*
X8380Y1444D1*
X8399Y1467D1*
X8437Y1500D1*
X8480Y1525D1*
X8527Y1542D1*
X8576Y1550D1*
X8626Y1548D1*
X8675Y1538D1*
X8721Y1518D1*
X8762Y1491D1*
X8798Y1456D1*
X8827Y1415D1*
X8848Y1370D1*
X8860Y1321D1*
X8863Y1281D1*
X8858Y1232D1*
X8838Y1171D1*
X8922Y1143D1*
X8967Y1121D1*
X9008Y1093D1*
X9046Y1061D1*
X9080Y1024D1*
X9110Y984D1*
X9135Y940D1*
X9154Y894D1*
X9168Y846D1*
X9177Y797D1*
X9179Y750D1*
X9176Y700D1*
X9168Y651D1*
X9153Y603D1*
X9134Y557D1*
X9109Y514D1*
X9079Y474D1*
X9050Y443D1*
X9170Y444D1*
X9342Y616D1*
X9323Y701D1*
X9321Y751D1*
X9324Y801D1*
X9333Y850D1*
X9347Y898D1*
X9367Y944D1*
X9392Y987D1*
X9422Y1027D1*
X9457Y1063D1*
X9495Y1095D1*
X9537Y1123D1*
X9582Y1145D1*
X9629Y1162D1*
X9677Y1173D1*
X9727Y1179D1*
X9777Y1178D1*
X9827Y1172D1*
X9875Y1161D1*
X9922Y1143D1*
X9967Y1121D1*
X10008Y1093D1*
X10046Y1061D1*
X10080Y1024D1*
X10110Y984D1*
X10135Y940D1*
X10154Y894D1*
X10168Y846D1*
X10177Y797D1*
X10179Y750D1*
X10176Y700D1*
X10168Y651D1*
X10153Y603D1*
X10134Y557D1*
X10109Y514D1*
X10079Y474D1*
X10044Y438D1*
X10006Y405D1*
X9964Y378D1*
X9920Y356D1*
X9873Y339D1*
X9824Y327D1*
X9774Y321D1*
X9724D1*
X9675Y327D1*
X9616Y343D1*
X9513Y238D1*
X10737Y237D1*
X17013D1*
Y9428D1*
X16805D1*
X16860Y9359D1*
X16885Y9316D1*
X16904Y9270D1*
X16918Y9222D1*
X16927Y9172D1*
X16929Y9125D1*
X16926Y9075D1*
X16918Y9026D1*
X16903Y8978D1*
X16884Y8932D1*
X16859Y8889D1*
X16829Y8849D1*
X16794Y8813D1*
X16756Y8781D1*
X16714Y8753D1*
X16670Y8731D1*
X16623Y8714D1*
X16574Y8702D1*
X16524Y8697D1*
X16474D1*
X16425Y8703D1*
X16376Y8714D1*
X16329Y8731D1*
X16285Y8754D1*
X16243Y8781D1*
X16205Y8814D1*
X16170Y8850D1*
X16141Y8890D1*
X16116Y8934D1*
X16096Y8980D1*
X16082Y9027D1*
X16073Y9077D1*
X16071Y9127D1*
X16074Y9176D1*
X16083Y9226D1*
X16097Y9273D1*
X16117Y9319D1*
X16142Y9362D1*
X16197Y9428D1*
X15430D1*
X15485Y9359D1*
X15510Y9315D1*
X15529Y9269D1*
X15543Y9221D1*
X15552Y9172D1*
X15554Y9125D1*
X15551Y9075D1*
X14746Y3179D2*
X15554D1*
Y2321D1*
X14696D1*
Y3179D1*
X14746D1*
X15551Y1700D2*
X15543Y1651D1*
X15528Y1603D1*
X15509Y1557D1*
X15484Y1514D1*
X15454Y1474D1*
X15419Y1438D1*
X15381Y1405D1*
X15339Y1378D1*
X15295Y1356D1*
X15248Y1339D1*
X15199Y1327D1*
X15149Y1321D1*
X15099D1*
X15050Y1327D1*
X15001Y1339D1*
X14954Y1356D1*
X14910Y1379D1*
X14868Y1406D1*
X14830Y1438D1*
X14795Y1475D1*
X14766Y1515D1*
X14741Y1558D1*
X14721Y1604D1*
X14707Y1652D1*
X14698Y1701D1*
X14696Y1751D1*
X14699Y1801D1*
X14708Y1850D1*
X14722Y1898D1*
X14742Y1944D1*
X14767Y1987D1*
X14797Y2027D1*
X14832Y2063D1*
X14870Y2095D1*
X14912Y2123D1*
X14957Y2145D1*
X15004Y2162D1*
X15052Y2173D1*
X15102Y2179D1*
X15152Y2178D1*
X15202Y2172D1*
X15250Y2161D1*
X15297Y2143D1*
X15342Y2121D1*
X15383Y2093D1*
X15421Y2061D1*
X15455Y2024D1*
X15485Y1984D1*
X15510Y1940D1*
X15529Y1894D1*
X15543Y1846D1*
X15552Y1797D1*
X15554Y1750D1*
X15551Y1700D1*
X16121Y3179D2*
X16929D1*
Y2321D1*
X16071D1*
Y3179D1*
X16121D1*
X16926Y1700D2*
X16918Y1651D1*
X16903Y1603D1*
X16884Y1557D1*
X16859Y1514D1*
X16829Y1474D1*
X16794Y1438D1*
X16756Y1405D1*
X16714Y1378D1*
X16670Y1356D1*
X16623Y1339D1*
X16574Y1327D1*
X16524Y1321D1*
X16474D1*
X16425Y1327D1*
X16376Y1339D1*
X16329Y1356D1*
X16285Y1379D1*
X16243Y1406D1*
X16205Y1438D1*
X16170Y1475D1*
X16141Y1515D1*
X16116Y1558D1*
X16096Y1604D1*
X16082Y1652D1*
X16073Y1701D1*
X16071Y1751D1*
X16074Y1801D1*
X16083Y1850D1*
X16097Y1898D1*
X16117Y1944D1*
X16142Y1987D1*
X16172Y2027D1*
X16207Y2063D1*
X16245Y2095D1*
X16287Y2123D1*
X16332Y2145D1*
X16379Y2162D1*
X16427Y2173D1*
X16477Y2179D1*
X16527Y2178D1*
X16577Y2172D1*
X16625Y2161D1*
X16672Y2143D1*
X16717Y2121D1*
X16758Y2093D1*
X16796Y2061D1*
X16830Y2024D1*
X16860Y1984D1*
X16885Y1940D1*
X16904Y1894D1*
X16918Y1846D1*
X16927Y1797D1*
X16929Y1750D1*
X16926Y1700D1*
X2904Y13383D2*
X2892Y13335D1*
X2872Y13289D1*
X2846Y13247D1*
X2812Y13209D1*
X2774Y13177D1*
X2731Y13152D1*
X2684Y13134D1*
X2635Y13124D1*
X2585Y13122D1*
X2536Y13128D1*
X2488Y13142D1*
X2442Y13163D1*
X2401Y13191D1*
X2365Y13225D1*
X2335Y13265D1*
X2311Y13309D1*
X2295Y13356D1*
X2287Y13406D1*
X2286Y13455D1*
X2294Y13505D1*
X2309Y13552D1*
X2332Y13597D1*
X2361Y13637D1*
X2397Y13672D1*
X2438Y13701D1*
X2483Y13723D1*
X2531Y13737D1*
X2580Y13744D1*
X2630Y13742D1*
X2679Y13733D1*
X2726Y13716D1*
X2770Y13692D1*
X2809Y13661D1*
X2842Y13624D1*
X2870Y13582D1*
X2890Y13536D1*
X2903Y13488D1*
X2908Y13433D1*
X2904Y13383D1*
X4178Y2518D2*
X4148Y2538D1*
X4132Y2550D1*
Y2267D1*
X4141Y2228D1*
X4144Y2188D1*
X4140Y2138D1*
X4126Y2090D1*
X4104Y2045D1*
X4073Y2006D1*
X4036Y1972D1*
X3994Y1946D1*
X3947Y1928D1*
X3898Y1920D1*
X3848D1*
X3799Y1930D1*
X3753Y1948D1*
X3711Y1975D1*
X3674Y2009D1*
X3645Y2050D1*
X3623Y2095D1*
X3610Y2143D1*
X3608Y2169D1*
X3549Y2180D1*
X3503Y2198D1*
X3461Y2225D1*
X3424Y2259D1*
X3395Y2300D1*
X3373Y2345D1*
X3360Y2393D1*
X3358Y2422D1*
X3284Y2448D1*
X3241Y2475D1*
X3205Y2509D1*
X3175Y2549D1*
X3154Y2594D1*
X3141Y2643D1*
X3137Y2692D1*
X3143Y2742D1*
X3157Y2790D1*
X3181Y2834D1*
X3215Y2876D1*
X3234Y2933D1*
X3269Y2981D1*
X4425Y4137D1*
X4465Y4168D1*
X4511Y4187D1*
X4563Y4194D1*
X4689D1*
X4718Y4218D1*
X4761Y4244D1*
X4808Y4261D1*
X4857Y4268D1*
X4907Y4267D1*
X4956Y4256D1*
X5002Y4237D1*
X5044Y4210D1*
X5080Y4175D1*
X5108Y4134D1*
X5129Y4088D1*
X5141Y4040D1*
X5144Y4000D1*
X5139Y3950D1*
X5126Y3902D1*
X5103Y3858D1*
X5067Y3813D1*
X5108Y3759D1*
X5129Y3713D1*
X5141Y3665D1*
X5144Y3625D1*
X5139Y3575D1*
X5126Y3527D1*
X5103Y3483D1*
X5067Y3438D1*
X5108Y3384D1*
X5129Y3338D1*
X5141Y3290D1*
X5144Y3250D1*
X5139Y3200D1*
X5126Y3152D1*
X5103Y3108D1*
X5073Y3068D1*
X5036Y3034D1*
X4993Y3008D1*
X4947Y2991D1*
X4898Y2982D1*
X4848D1*
X4799Y2992D1*
X4752Y3011D1*
X4710Y3037D1*
X4691Y3056D1*
X4517D1*
X4446Y2984D1*
X4482Y2960D1*
X4517Y2925D1*
X4547Y2883D1*
X5195Y2234D1*
X5232Y2210D1*
X5268Y2175D1*
X5296Y2134D1*
X5317Y2089D1*
X5329Y2040D1*
X5332Y2000D1*
X5327Y1950D1*
X5314Y1902D1*
X5291Y1858D1*
X5261Y1818D1*
X5224Y1785D1*
X5181Y1759D1*
X5135Y1741D1*
X5086Y1732D1*
X5036Y1733D1*
X4987Y1742D1*
X4940Y1761D1*
X4898Y1788D1*
X4862Y1822D1*
X4830Y1866D1*
X4181Y2516D1*
X14702Y5638D2*
X14688Y5590D1*
X14666Y5545D1*
X14636Y5505D1*
X14611Y5483D1*
X14612Y5142D1*
X14642Y5112D1*
X14671Y5070D1*
X15870Y6269D1*
Y6440D1*
X15833Y6488D1*
X15812Y6533D1*
X15799Y6581D1*
X15795Y6631D1*
X15801Y6680D1*
X15815Y6728D1*
X15839Y6772D1*
X15870Y6811D1*
X15907Y6844D1*
X15950Y6869D1*
X15997Y6886D1*
X16047Y6894D1*
X16096Y6893D1*
X16145Y6882D1*
X16191Y6863D1*
X16233Y6835D1*
X16269Y6800D1*
X16297Y6760D1*
X16318Y6714D1*
X16330Y6666D1*
X16333Y6626D1*
X16329Y6576D1*
X16315Y6528D1*
X16292Y6483D1*
X16259Y6440D1*
X16258Y6188D1*
X16252Y6139D1*
X16233Y6093D1*
X16201Y6051D1*
X14639Y4488D1*
X14599Y4458D1*
X14553Y4439D1*
X14502Y4431D1*
X14377D1*
X14327Y4438D1*
X14281Y4457D1*
X14239Y4488D1*
X14172Y4556D1*
X14132D1*
X14109Y4514D1*
X14079Y4474D1*
X14044Y4438D1*
X14006Y4405D1*
X13964Y4378D1*
X13920Y4356D1*
X13873Y4339D1*
X13824Y4327D1*
X13774Y4321D1*
X13724D1*
X13675Y4327D1*
X13626Y4339D1*
X13579Y4356D1*
X13535Y4379D1*
X13493Y4406D1*
X13455Y4438D1*
X13420Y4475D1*
X13391Y4515D1*
X13366Y4558D1*
X13346Y4604D1*
X13332Y4652D1*
X13323Y4701D1*
X13321Y4751D1*
X13324Y4801D1*
X13333Y4850D1*
X13347Y4898D1*
X13367Y4944D1*
X13392Y4987D1*
X13422Y5027D1*
X13457Y5063D1*
X13495Y5095D1*
X13537Y5123D1*
X13582Y5145D1*
X13629Y5162D1*
X13677Y5173D1*
X13727Y5179D1*
X13777Y5178D1*
X13827Y5172D1*
X13875Y5161D1*
X13922Y5143D1*
X13967Y5121D1*
X14008Y5093D1*
X14046Y5061D1*
X14080Y5024D1*
X14110Y4984D1*
X14132Y4944D1*
X14167D1*
X14174Y4992D1*
X14189Y5040D1*
X14212Y5084D1*
X14243Y5123D1*
X14263Y5141D1*
X14264Y5483D1*
X14236Y5509D1*
X14207Y5549D1*
X14185Y5594D1*
X14172Y5643D1*
X14171Y5666D1*
X14153Y5603D1*
X14134Y5557D1*
X14109Y5514D1*
X14079Y5474D1*
X14044Y5438D1*
X14006Y5405D1*
X13964Y5378D1*
X13920Y5356D1*
X13873Y5339D1*
X13824Y5327D1*
X13774Y5321D1*
X13724D1*
X13675Y5327D1*
X13626Y5339D1*
X13579Y5356D1*
X13535Y5379D1*
X13493Y5406D1*
X13455Y5438D1*
X13420Y5475D1*
X13391Y5515D1*
X13366Y5558D1*
X13346Y5604D1*
X13332Y5652D1*
X13323Y5701D1*
X13321Y5751D1*
X13324Y5801D1*
X13333Y5850D1*
X13347Y5898D1*
X13367Y5944D1*
X13392Y5987D1*
X13422Y6027D1*
X13457Y6063D1*
X13495Y6095D1*
X13537Y6123D1*
X13582Y6145D1*
X13629Y6162D1*
X13677Y6173D1*
X13727Y6179D1*
X13777Y6178D1*
X13827Y6172D1*
X13875Y6161D1*
X13922Y6143D1*
X13967Y6121D1*
X14008Y6093D1*
X14046Y6061D1*
X14080Y6024D1*
X14110Y5984D1*
X14135Y5940D1*
X14154Y5894D1*
X14168Y5846D1*
X14179Y5760D1*
X14189Y5790D1*
X14212Y5834D1*
X14243Y5873D1*
X14281Y5906D1*
X14324Y5931D1*
X14371Y5948D1*
X14420Y5956D1*
X14470Y5955D1*
X14519Y5944D1*
X14565Y5925D1*
X14606Y5897D1*
X14642Y5862D1*
X14671Y5821D1*
X14692Y5776D1*
X14704Y5728D1*
X14707Y5687D1*
X14702Y5638D1*
X3560Y10806D2*
X3536Y10784D1*
X3493Y10758D1*
X3447Y10741D1*
X3398Y10732D1*
X3348D1*
X3299Y10742D1*
X3252Y10761D1*
X3210Y10787D1*
X3174Y10822D1*
X3144Y10862D1*
X3123Y10907D1*
X3110Y10955D1*
X3106Y11005D1*
X3112Y11055D1*
X3126Y11102D1*
X3149Y11146D1*
X3180Y11186D1*
X3218Y11218D1*
X3261Y11244D1*
X3308Y11261D1*
X3357Y11268D1*
X3407Y11267D1*
X3456Y11256D1*
X3502Y11237D1*
X3544Y11210D1*
X3561Y11193D1*
X4475Y11194D1*
X4689D1*
X4718Y11218D1*
X4761Y11244D1*
X4808Y11261D1*
X4857Y11268D1*
X4907Y11267D1*
X4956Y11256D1*
X5002Y11237D1*
X5044Y11210D1*
X5080Y11175D1*
X5108Y11134D1*
X5129Y11088D1*
X5141Y11040D1*
X5144Y11000D1*
X5139Y10950D1*
X5126Y10902D1*
X5103Y10858D1*
X5073Y10818D1*
X5036Y10784D1*
X4993Y10758D1*
X4947Y10741D1*
X4898Y10732D1*
X4848D1*
X4799Y10742D1*
X4752Y10761D1*
X4710Y10787D1*
X4691Y10806D1*
X3561D1*
X6621Y7555D2*
X6599Y7535D1*
X6557Y7509D1*
X6510Y7492D1*
X6461Y7483D1*
X6411D1*
X6362Y7493D1*
X6315Y7511D1*
X6273Y7538D1*
X6237Y7572D1*
X6207Y7613D1*
X6186Y7658D1*
X6173Y7706D1*
X6169Y7756D1*
X6175Y7805D1*
X6189Y7853D1*
X6213Y7897D1*
X6244Y7936D1*
X6281Y7969D1*
X6324Y7995D1*
X6371Y8011D1*
X6421Y8019D1*
X6470Y8018D1*
X6519Y8007D1*
X6565Y7988D1*
X6607Y7960D1*
X6624Y7944D1*
X7367D1*
X7392Y7987D1*
X7422Y8027D1*
X7457Y8063D1*
X7495Y8095D1*
X7537Y8123D1*
X7582Y8145D1*
X7629Y8162D1*
X7677Y8173D1*
X7727Y8179D1*
X7777Y8178D1*
X7827Y8172D1*
X7875Y8161D1*
X7922Y8143D1*
X7967Y8121D1*
X8008Y8093D1*
X8046Y8061D1*
X8080Y8024D1*
X8110Y7984D1*
X8135Y7940D1*
X8154Y7894D1*
X8168Y7846D1*
X8177Y7797D1*
X8179Y7750D1*
X8176Y7700D1*
X8168Y7651D1*
X8153Y7603D1*
X8134Y7557D1*
X8109Y7514D1*
X8079Y7474D1*
X8044Y7438D1*
X8006Y7405D1*
X7964Y7378D1*
X7920Y7356D1*
X7873Y7339D1*
X7824Y7327D1*
X7774Y7321D1*
X7724D1*
X7675Y7327D1*
X7626Y7339D1*
X7579Y7356D1*
X7535Y7379D1*
X7493Y7406D1*
X7455Y7438D1*
X7420Y7475D1*
X7391Y7515D1*
X7367Y7557D1*
X6950Y7556D1*
X6623D1*
X9390Y8701D2*
X9377Y8653D1*
X9350Y8601D1*
Y8024D1*
X9380Y7964D1*
X9392Y7916D1*
X9395Y7876D1*
X9390Y7826D1*
X9377Y7778D1*
X9354Y7733D1*
X9324Y7694D1*
X9287Y7660D1*
X9244Y7634D1*
X9198Y7617D1*
X9148Y7608D1*
X9099D1*
X9050Y7618D1*
X9003Y7636D1*
X8961Y7663D1*
X8925Y7697D1*
X8895Y7738D1*
X8874Y7783D1*
X8861Y7831D1*
X8857Y7881D1*
X8863Y7930D1*
X8877Y7978D1*
X8902Y8026D1*
Y8602D1*
X8874Y8658D1*
X8861Y8706D1*
X8857Y8756D1*
X8863Y8805D1*
X8877Y8853D1*
X8900Y8897D1*
X8931Y8937D1*
X8969Y8969D1*
X9012Y8995D1*
X9059Y9011D1*
X9108Y9019D1*
X9158Y9018D1*
X9207Y9007D1*
X9253Y8988D1*
X9295Y8960D1*
X9330Y8926D1*
X9359Y8885D1*
X9380Y8839D1*
X9392Y8791D1*
X9395Y8751D1*
X9390Y8701D1*
X13129Y3535D2*
X13105Y3483D1*
X13074Y3443D1*
X13037Y3410D1*
X12995Y3384D1*
X12948Y3366D1*
X12899Y3357D1*
X12854Y3358D1*
X12562Y3065D1*
X12522Y3035D1*
X12485Y3020D1*
X12449Y3006D1*
X12412Y2972D1*
X12370Y2946D1*
X12323Y2929D1*
X12274Y2920D1*
X12224D1*
X12175Y2930D1*
X12129Y2948D1*
X12086Y2975D1*
X12050Y3009D1*
X12020Y3050D1*
X11999Y3095D1*
X11986Y3143D1*
X11984Y3169D1*
X11925Y3180D1*
X11879Y3198D1*
X11836Y3225D1*
X11800Y3259D1*
X11770Y3300D1*
X11749Y3345D1*
X11736Y3393D1*
X11732Y3443D1*
X11738Y3492D1*
X11752Y3540D1*
X11776Y3584D1*
X11807Y3624D1*
X11844Y3656D1*
X11887Y3682D1*
X11934Y3698D1*
X11984Y3706D1*
X12034Y3705D1*
X12082Y3694D1*
X12128Y3675D1*
X12158Y3655D1*
X12359Y3854D1*
X12357Y3880D1*
X12363Y3930D1*
X12373Y3964D1*
X11587D1*
X11557Y3946D1*
X11510Y3929D1*
X11461Y3920D1*
X11411D1*
X11362Y3930D1*
X11316Y3949D1*
X11274Y3975D1*
X11237Y4010D1*
X11208Y4050D1*
X11186Y4095D1*
X11173Y4143D1*
X11170Y4193D1*
X11175Y4242D1*
X11190Y4290D1*
X11213Y4334D1*
X11244Y4374D1*
X11282Y4406D1*
X11325Y4432D1*
X11372Y4448D1*
X11421Y4456D1*
X11471Y4455D1*
X11520Y4444D1*
X11566Y4425D1*
X11589Y4412D1*
X12751D1*
X12801Y4406D1*
X12848Y4390D1*
X12891Y4362D1*
X13016Y4240D1*
X13282Y3974D1*
X13385D1*
X13422Y4027D1*
X13457Y4063D1*
X13495Y4095D1*
X13537Y4123D1*
X13582Y4145D1*
X13629Y4162D1*
X13677Y4173D1*
X13727Y4179D1*
X13777Y4178D1*
X13827Y4172D1*
X13875Y4161D1*
X13922Y4143D1*
X13967Y4121D1*
X14008Y4093D1*
X14046Y4061D1*
X14080Y4024D1*
X14110Y3984D1*
X14135Y3940D1*
X14154Y3894D1*
X14168Y3846D1*
X14177Y3797D1*
X14179Y3750D1*
X14176Y3700D1*
X14168Y3651D1*
X14153Y3603D1*
X14134Y3557D1*
X14109Y3514D1*
X14079Y3474D1*
X14044Y3438D1*
X14006Y3405D1*
X13964Y3378D1*
X13920Y3356D1*
X13873Y3339D1*
X13824Y3327D1*
X13774Y3321D1*
X13724D1*
X13675Y3327D1*
X13626Y3339D1*
X13579Y3356D1*
X13535Y3379D1*
X13493Y3406D1*
X13455Y3438D1*
X13420Y3475D1*
X13384Y3527D1*
X13189Y3526D1*
X13138Y3532D1*
X13166Y3527D1*
X12016Y7576D2*
X12002Y7528D1*
X11979Y7483D1*
X11949Y7444D1*
X11912Y7410D1*
X11870Y7384D1*
X11806Y7364D1*
X11475Y7033D1*
Y6649D1*
X11505Y6589D1*
X11517Y6541D1*
X11520Y6501D1*
X11516Y6451D1*
X11502Y6403D1*
X11479Y6358D1*
X11449Y6319D1*
X11412Y6285D1*
X11370Y6259D1*
X11323Y6241D1*
X11274Y6233D1*
X11224D1*
X11175Y6243D1*
X11128Y6261D1*
X11086Y6288D1*
X11050Y6322D1*
X11020Y6363D1*
X10999Y6408D1*
X10986Y6456D1*
X10982Y6506D1*
X10988Y6555D1*
X11002Y6603D1*
X11027Y6651D1*
Y7126D1*
X11033Y7175D1*
X11049Y7222D1*
X11077Y7266D1*
X11199Y7390D1*
X11488Y7680D1*
X11502Y7728D1*
X11526Y7772D1*
X11557Y7811D1*
X11594Y7844D1*
X11637Y7869D1*
X11684Y7886D1*
X11734Y7894D1*
X11784Y7893D1*
X11832Y7882D1*
X11878Y7863D1*
X11920Y7835D1*
X11956Y7801D1*
X11985Y7760D1*
X12005Y7714D1*
X12017Y7666D1*
X12020Y7626D1*
X12016Y7576D1*
X4014Y1200D2*
X4001Y1152D1*
X3978Y1108D1*
X3948Y1068D1*
X3911Y1035D1*
X3868Y1009D1*
X3822Y991D1*
X3773Y982D1*
X3723D1*
X3674Y992D1*
X3627Y1011D1*
X3585Y1038D1*
X3549Y1072D1*
X3519Y1112D1*
X3498Y1157D1*
X3485Y1205D1*
X3481Y1255D1*
X3487Y1305D1*
X3501Y1352D1*
X3524Y1397D1*
X3555Y1436D1*
X3593Y1469D1*
X3636Y1494D1*
X3683Y1511D1*
X3732Y1519D1*
X3782Y1517D1*
X3831Y1507D1*
X3877Y1487D1*
X3919Y1460D1*
X3955Y1425D1*
X3983Y1384D1*
X4004Y1339D1*
X4016Y1290D1*
X4019Y1250D1*
X4014Y1200D1*
X8176Y12700D2*
X8168Y12651D1*
X8153Y12603D1*
X8134Y12557D1*
X8109Y12514D1*
X8079Y12474D1*
X8044Y12438D1*
X8006Y12405D1*
X7964Y12378D1*
X7920Y12356D1*
X7873Y12339D1*
X7824Y12327D1*
X7774Y12321D1*
X7724D1*
X7675Y12327D1*
X7626Y12339D1*
X7579Y12356D1*
X7535Y12379D1*
X7493Y12406D1*
X7455Y12438D1*
X7420Y12475D1*
X7391Y12515D1*
X7366Y12558D1*
X7346Y12604D1*
X7332Y12652D1*
X7323Y12701D1*
X7321Y12751D1*
X7324Y12801D1*
X7333Y12850D1*
X7347Y12898D1*
X7367Y12944D1*
X7392Y12987D1*
X7422Y13027D1*
X7457Y13063D1*
X7495Y13095D1*
X7537Y13123D1*
X7582Y13145D1*
X7629Y13162D1*
X7677Y13173D1*
X7727Y13179D1*
X7777Y13178D1*
X7827Y13172D1*
X7875Y13161D1*
X7922Y13143D1*
X7967Y13121D1*
X8008Y13093D1*
X8046Y13061D1*
X8080Y13024D1*
X8110Y12984D1*
X8135Y12940D1*
X8154Y12894D1*
X8168Y12846D1*
X8177Y12797D1*
X8179Y12750D1*
X8176Y12700D1*
Y11700D2*
X8168Y11651D1*
X8153Y11603D1*
X8134Y11557D1*
X8109Y11514D1*
X8079Y11474D1*
X8044Y11438D1*
X8006Y11405D1*
X7964Y11378D1*
X7920Y11356D1*
X7873Y11339D1*
X7824Y11327D1*
X7774Y11321D1*
X7724D1*
X7675Y11327D1*
X7626Y11339D1*
X7579Y11356D1*
X7535Y11379D1*
X7493Y11406D1*
X7455Y11438D1*
X7420Y11475D1*
X7391Y11515D1*
X7366Y11558D1*
X7346Y11604D1*
X7332Y11652D1*
X7323Y11701D1*
X7321Y11751D1*
X7324Y11801D1*
X7333Y11850D1*
X7347Y11898D1*
X7367Y11944D1*
X7392Y11987D1*
X7422Y12027D1*
X7457Y12063D1*
X7495Y12095D1*
X7537Y12123D1*
X7582Y12145D1*
X7629Y12162D1*
X7677Y12173D1*
X7727Y12179D1*
X7777Y12178D1*
X7827Y12172D1*
X7875Y12161D1*
X7922Y12143D1*
X7967Y12121D1*
X8008Y12093D1*
X8046Y12061D1*
X8080Y12024D1*
X8110Y11984D1*
X8135Y11940D1*
X8154Y11894D1*
X8168Y11846D1*
X8177Y11797D1*
X8179Y11750D1*
X8176Y11700D1*
Y10700D2*
X8168Y10651D1*
X8153Y10603D1*
X8134Y10557D1*
X8109Y10514D1*
X8079Y10474D1*
X8044Y10438D1*
X8006Y10405D1*
X7964Y10378D1*
X7920Y10356D1*
X7873Y10339D1*
X7824Y10327D1*
X7774Y10321D1*
X7724D1*
X7675Y10327D1*
X7626Y10339D1*
X7579Y10356D1*
X7535Y10379D1*
X7493Y10406D1*
X7455Y10438D1*
X7420Y10475D1*
X7391Y10515D1*
X7366Y10558D1*
X7346Y10604D1*
X7332Y10652D1*
X7323Y10701D1*
X7321Y10751D1*
X7324Y10801D1*
X7333Y10850D1*
X7347Y10898D1*
X7367Y10944D1*
X7392Y10987D1*
X7422Y11027D1*
X7457Y11063D1*
X7495Y11095D1*
X7537Y11123D1*
X7582Y11145D1*
X7629Y11162D1*
X7677Y11173D1*
X7727Y11179D1*
X7777Y11178D1*
X7827Y11172D1*
X7875Y11161D1*
X7922Y11143D1*
X7967Y11121D1*
X8008Y11093D1*
X8046Y11061D1*
X8080Y11024D1*
X8110Y10984D1*
X8135Y10940D1*
X8154Y10894D1*
X8168Y10846D1*
X8177Y10797D1*
X8179Y10750D1*
X8176Y10700D1*
Y9700D2*
X8168Y9651D1*
X8153Y9603D1*
X8134Y9557D1*
X8109Y9514D1*
X8079Y9474D1*
X8044Y9438D1*
X8006Y9405D1*
X7964Y9378D1*
X7920Y9356D1*
X7873Y9339D1*
X7824Y9327D1*
X7774Y9321D1*
X7724D1*
X7675Y9327D1*
X7626Y9339D1*
X7579Y9356D1*
X7535Y9379D1*
X7493Y9406D1*
X7455Y9438D1*
X7420Y9475D1*
X7391Y9515D1*
X7366Y9558D1*
X7346Y9604D1*
X7332Y9652D1*
X7323Y9701D1*
X7321Y9751D1*
X7324Y9801D1*
X7333Y9850D1*
X7347Y9898D1*
X7367Y9944D1*
X7392Y9987D1*
X7422Y10027D1*
X7457Y10063D1*
X7495Y10095D1*
X7537Y10123D1*
X7582Y10145D1*
X7629Y10162D1*
X7677Y10173D1*
X7727Y10179D1*
X7777Y10178D1*
X7827Y10172D1*
X7875Y10161D1*
X7922Y10143D1*
X7967Y10121D1*
X8008Y10093D1*
X8046Y10061D1*
X8080Y10024D1*
X8110Y9984D1*
X8135Y9940D1*
X8154Y9894D1*
X8168Y9846D1*
X8177Y9797D1*
X8179Y9750D1*
X8176Y9700D1*
Y8700D2*
X8168Y8651D1*
X8153Y8603D1*
X8134Y8557D1*
X8109Y8514D1*
X8079Y8474D1*
X8044Y8438D1*
X8006Y8405D1*
X7964Y8378D1*
X7920Y8356D1*
X7873Y8339D1*
X7824Y8327D1*
X7774Y8321D1*
X7724D1*
X7675Y8327D1*
X7626Y8339D1*
X7579Y8356D1*
X7535Y8379D1*
X7493Y8406D1*
X7455Y8438D1*
X7420Y8475D1*
X7391Y8515D1*
X7366Y8558D1*
X7346Y8604D1*
X7332Y8652D1*
X7323Y8701D1*
X7321Y8751D1*
X7324Y8801D1*
X7333Y8850D1*
X7347Y8898D1*
X7367Y8944D1*
X7392Y8987D1*
X7422Y9027D1*
X7457Y9063D1*
X7495Y9095D1*
X7537Y9123D1*
X7582Y9145D1*
X7629Y9162D1*
X7677Y9173D1*
X7727Y9179D1*
X7777Y9178D1*
X7827Y9172D1*
X7875Y9161D1*
X7922Y9143D1*
X7967Y9121D1*
X8008Y9093D1*
X8046Y9061D1*
X8080Y9024D1*
X8110Y8984D1*
X8135Y8940D1*
X8154Y8894D1*
X8168Y8846D1*
X8177Y8797D1*
X8179Y8750D1*
X8176Y8700D1*
Y6700D2*
X8168Y6651D1*
X8153Y6603D1*
X8134Y6557D1*
X8109Y6514D1*
X8079Y6474D1*
X8044Y6438D1*
X8006Y6405D1*
X7964Y6378D1*
X7920Y6356D1*
X7873Y6339D1*
X7824Y6327D1*
X7774Y6321D1*
X7724D1*
X7675Y6327D1*
X7626Y6339D1*
X7579Y6356D1*
X7535Y6379D1*
X7493Y6406D1*
X7455Y6438D1*
X7420Y6475D1*
X7391Y6515D1*
X7366Y6558D1*
X7346Y6604D1*
X7332Y6652D1*
X7323Y6701D1*
X7321Y6751D1*
X7324Y6801D1*
X7333Y6850D1*
X7347Y6898D1*
X7367Y6944D1*
X7392Y6987D1*
X7422Y7027D1*
X7457Y7063D1*
X7495Y7095D1*
X7537Y7123D1*
X7582Y7145D1*
X7629Y7162D1*
X7677Y7173D1*
X7727Y7179D1*
X7777Y7178D1*
X7827Y7172D1*
X7875Y7161D1*
X7922Y7143D1*
X7967Y7121D1*
X8008Y7093D1*
X8046Y7061D1*
X8080Y7024D1*
X8110Y6984D1*
X8135Y6940D1*
X8154Y6894D1*
X8168Y6846D1*
X8177Y6797D1*
X8179Y6750D1*
X8176Y6700D1*
Y5700D2*
X8168Y5651D1*
X8153Y5603D1*
X8134Y5557D1*
X8109Y5514D1*
X8079Y5474D1*
X8044Y5438D1*
X8006Y5405D1*
X7964Y5378D1*
X7920Y5356D1*
X7873Y5339D1*
X7824Y5327D1*
X7774Y5321D1*
X7724D1*
X7675Y5327D1*
X7626Y5339D1*
X7579Y5356D1*
X7535Y5379D1*
X7493Y5406D1*
X7455Y5438D1*
X7420Y5475D1*
X7391Y5515D1*
X7366Y5558D1*
X7346Y5604D1*
X7332Y5652D1*
X7323Y5701D1*
X7321Y5751D1*
X7324Y5801D1*
X7333Y5850D1*
X7347Y5898D1*
X7367Y5944D1*
X7392Y5987D1*
X7422Y6027D1*
X7457Y6063D1*
X7495Y6095D1*
X7537Y6123D1*
X7582Y6145D1*
X7629Y6162D1*
X7677Y6173D1*
X7727Y6179D1*
X7777Y6178D1*
X7827Y6172D1*
X7875Y6161D1*
X7922Y6143D1*
X7967Y6121D1*
X8008Y6093D1*
X8046Y6061D1*
X8080Y6024D1*
X8110Y5984D1*
X8135Y5940D1*
X8154Y5894D1*
X8168Y5846D1*
X8177Y5797D1*
X8179Y5750D1*
X8176Y5700D1*
Y4700D2*
X8168Y4651D1*
X8153Y4603D1*
X8134Y4557D1*
X8109Y4514D1*
X8079Y4474D1*
X8044Y4438D1*
X8006Y4405D1*
X7964Y4378D1*
X7920Y4356D1*
X7873Y4339D1*
X7824Y4327D1*
X7774Y4321D1*
X7724D1*
X7675Y4327D1*
X7626Y4339D1*
X7579Y4356D1*
X7535Y4379D1*
X7493Y4406D1*
X7455Y4438D1*
X7420Y4475D1*
X7391Y4515D1*
X7366Y4558D1*
X7346Y4604D1*
X7332Y4652D1*
X7323Y4701D1*
X7321Y4751D1*
X7324Y4801D1*
X7333Y4850D1*
X7347Y4898D1*
X7367Y4944D1*
X7392Y4987D1*
X7422Y5027D1*
X7457Y5063D1*
X7495Y5095D1*
X7537Y5123D1*
X7582Y5145D1*
X7629Y5162D1*
X7677Y5173D1*
X7727Y5179D1*
X7777Y5178D1*
X7827Y5172D1*
X7875Y5161D1*
X7922Y5143D1*
X7967Y5121D1*
X8008Y5093D1*
X8046Y5061D1*
X8080Y5024D1*
X8110Y4984D1*
X8135Y4940D1*
X8154Y4894D1*
X8168Y4846D1*
X8177Y4797D1*
X8179Y4750D1*
X8176Y4700D1*
Y3700D2*
X8168Y3651D1*
X8153Y3603D1*
X8134Y3557D1*
X8109Y3514D1*
X8079Y3474D1*
X8044Y3438D1*
X8006Y3405D1*
X7964Y3378D1*
X7920Y3356D1*
X7873Y3339D1*
X7824Y3327D1*
X7774Y3321D1*
X7724D1*
X7675Y3327D1*
X7626Y3339D1*
X7579Y3356D1*
X7535Y3379D1*
X7493Y3406D1*
X7455Y3438D1*
X7420Y3475D1*
X7391Y3515D1*
X7366Y3558D1*
X7346Y3604D1*
X7332Y3652D1*
X7323Y3701D1*
X7321Y3751D1*
X7324Y3801D1*
X7333Y3850D1*
X7347Y3898D1*
X7367Y3944D1*
X7392Y3987D1*
X7422Y4027D1*
X7457Y4063D1*
X7495Y4095D1*
X7537Y4123D1*
X7582Y4145D1*
X7629Y4162D1*
X7677Y4173D1*
X7727Y4179D1*
X7777Y4178D1*
X7827Y4172D1*
X7875Y4161D1*
X7922Y4143D1*
X7967Y4121D1*
X8008Y4093D1*
X8046Y4061D1*
X8080Y4024D1*
X8110Y3984D1*
X8135Y3940D1*
X8154Y3894D1*
X8168Y3846D1*
X8177Y3797D1*
X8179Y3750D1*
X8176Y3700D1*
Y700D2*
X8168Y651D1*
X8153Y603D1*
X8134Y557D1*
X8109Y514D1*
X8079Y474D1*
X8050Y443D1*
X8448Y444D1*
X8391Y515D1*
X8366Y558D1*
X8346Y604D1*
X8332Y652D1*
X8323Y701D1*
X8321Y751D1*
X8324Y801D1*
X8333Y850D1*
X8347Y898D1*
X8367Y944D1*
X8392Y987D1*
X8422Y1027D1*
X8449Y1056D1*
X8052D1*
X8110Y984D1*
X8135Y940D1*
X8154Y894D1*
X8168Y846D1*
X8177Y797D1*
X8179Y750D1*
X8176Y700D1*
X14176D2*
X14168Y651D1*
X14153Y603D1*
X14134Y557D1*
X14109Y514D1*
X14079Y474D1*
X14044Y438D1*
X14006Y405D1*
X13964Y378D1*
X13920Y356D1*
X13873Y339D1*
X13824Y327D1*
X13774Y321D1*
X13724D1*
X13675Y327D1*
X13626Y339D1*
X13579Y356D1*
X13535Y379D1*
X13493Y406D1*
X13455Y438D1*
X13420Y475D1*
X13391Y515D1*
X13366Y558D1*
X13346Y604D1*
X13332Y652D1*
X13323Y701D1*
X13321Y751D1*
X13324Y801D1*
X13333Y850D1*
X13347Y898D1*
X13367Y944D1*
X13392Y987D1*
X13422Y1027D1*
X13457Y1063D1*
X13495Y1095D1*
X13537Y1123D1*
X13582Y1145D1*
X13629Y1162D1*
X13677Y1173D1*
X13727Y1179D1*
X13777Y1178D1*
X13827Y1172D1*
X13875Y1161D1*
X13922Y1143D1*
X13967Y1121D1*
X14008Y1093D1*
X14046Y1061D1*
X14080Y1024D1*
X14110Y984D1*
X14135Y940D1*
X14154Y894D1*
X14168Y846D1*
X14177Y797D1*
X14179Y750D1*
X14176Y700D1*
Y1700D2*
X14168Y1651D1*
X14153Y1603D1*
X14134Y1557D1*
X14109Y1514D1*
X14079Y1474D1*
X14044Y1438D1*
X14006Y1405D1*
X13964Y1378D1*
X13920Y1356D1*
X13873Y1339D1*
X13824Y1327D1*
X13774Y1321D1*
X13724D1*
X13675Y1327D1*
X13626Y1339D1*
X13579Y1356D1*
X13535Y1379D1*
X13493Y1406D1*
X13455Y1438D1*
X13420Y1475D1*
X13391Y1515D1*
X13366Y1558D1*
X13346Y1604D1*
X13332Y1652D1*
X13323Y1701D1*
X13321Y1751D1*
X13324Y1801D1*
X13333Y1850D1*
X13347Y1898D1*
X13367Y1944D1*
X13392Y1987D1*
X13422Y2027D1*
X13457Y2063D1*
X13495Y2095D1*
X13537Y2123D1*
X13582Y2145D1*
X13629Y2162D1*
X13677Y2173D1*
X13727Y2179D1*
X13777Y2178D1*
X13827Y2172D1*
X13875Y2161D1*
X13922Y2143D1*
X13967Y2121D1*
X14008Y2093D1*
X14046Y2061D1*
X14080Y2024D1*
X14110Y1984D1*
X14135Y1940D1*
X14154Y1894D1*
X14168Y1846D1*
X14177Y1797D1*
X14179Y1750D1*
X14176Y1700D1*
Y2700D2*
X14168Y2651D1*
X14153Y2603D1*
X14134Y2557D1*
X14109Y2514D1*
X14079Y2474D1*
X14044Y2438D1*
X14006Y2405D1*
X13964Y2378D1*
X13920Y2356D1*
X13873Y2339D1*
X13824Y2327D1*
X13774Y2321D1*
X13724D1*
X13675Y2327D1*
X13626Y2339D1*
X13579Y2356D1*
X13535Y2379D1*
X13493Y2406D1*
X13455Y2438D1*
X13420Y2475D1*
X13391Y2515D1*
X13366Y2558D1*
X13346Y2604D1*
X13332Y2652D1*
X13323Y2701D1*
X13321Y2751D1*
X13324Y2801D1*
X13333Y2850D1*
X13347Y2898D1*
X13367Y2944D1*
X13392Y2987D1*
X13422Y3027D1*
X13457Y3063D1*
X13495Y3095D1*
X13537Y3123D1*
X13582Y3145D1*
X13629Y3162D1*
X13677Y3173D1*
X13727Y3179D1*
X13777Y3178D1*
X13827Y3172D1*
X13875Y3161D1*
X13922Y3143D1*
X13967Y3121D1*
X14008Y3093D1*
X14046Y3061D1*
X14080Y3024D1*
X14110Y2984D1*
X14135Y2940D1*
X14154Y2894D1*
X14168Y2846D1*
X14177Y2797D1*
X14179Y2750D1*
X14176Y2700D1*
Y6700D2*
X14168Y6651D1*
X14153Y6603D1*
X14134Y6557D1*
X14109Y6514D1*
X14079Y6474D1*
X14044Y6438D1*
X14006Y6405D1*
X13964Y6378D1*
X13920Y6356D1*
X13873Y6339D1*
X13824Y6327D1*
X13774Y6321D1*
X13724D1*
X13675Y6327D1*
X13626Y6339D1*
X13579Y6356D1*
X13535Y6379D1*
X13493Y6406D1*
X13455Y6438D1*
X13420Y6475D1*
X13391Y6515D1*
X13366Y6558D1*
X13346Y6604D1*
X13332Y6652D1*
X13323Y6701D1*
X13321Y6751D1*
X13324Y6801D1*
X13333Y6850D1*
X13347Y6898D1*
X13367Y6944D1*
X13392Y6987D1*
X13422Y7027D1*
X13457Y7063D1*
X13495Y7095D1*
X13537Y7123D1*
X13582Y7145D1*
X13629Y7162D1*
X13677Y7173D1*
X13727Y7179D1*
X13777Y7178D1*
X13827Y7172D1*
X13875Y7161D1*
X13922Y7143D1*
X13967Y7121D1*
X14008Y7093D1*
X14046Y7061D1*
X14080Y7024D1*
X14110Y6984D1*
X14135Y6940D1*
X14154Y6894D1*
X14168Y6846D1*
X14177Y6797D1*
X14179Y6750D1*
X14176Y6700D1*
Y7700D2*
X14168Y7651D1*
X14153Y7603D1*
X14134Y7557D1*
X14109Y7514D1*
X14079Y7474D1*
X14044Y7438D1*
X14006Y7405D1*
X13964Y7378D1*
X13920Y7356D1*
X13873Y7339D1*
X13824Y7327D1*
X13774Y7321D1*
X13724D1*
X13675Y7327D1*
X13626Y7339D1*
X13579Y7356D1*
X13535Y7379D1*
X13493Y7406D1*
X13455Y7438D1*
X13420Y7475D1*
X13391Y7515D1*
X13366Y7558D1*
X13346Y7604D1*
X13332Y7652D1*
X13323Y7701D1*
X13321Y7751D1*
X13324Y7801D1*
X13333Y7850D1*
X13347Y7898D1*
X13367Y7944D1*
X13392Y7987D1*
X13422Y8027D1*
X13457Y8063D1*
X13495Y8095D1*
X13537Y8123D1*
X13582Y8145D1*
X13629Y8162D1*
X13677Y8173D1*
X13727Y8179D1*
X13777Y8178D1*
X13827Y8172D1*
X13875Y8161D1*
X13922Y8143D1*
X13967Y8121D1*
X14008Y8093D1*
X14046Y8061D1*
X14080Y8024D1*
X14110Y7984D1*
X14135Y7940D1*
X14154Y7894D1*
X14168Y7846D1*
X14177Y7797D1*
X14179Y7750D1*
X14176Y7700D1*
Y13700D2*
X14168Y13651D1*
X14153Y13603D1*
X14134Y13557D1*
X14109Y13514D1*
X14079Y13474D1*
X14044Y13438D1*
X14006Y13405D1*
X13964Y13378D1*
X13920Y13356D1*
X13873Y13339D1*
X13824Y13327D1*
X13774Y13321D1*
X13724D1*
X13675Y13327D1*
X13626Y13339D1*
X13579Y13356D1*
X13535Y13379D1*
X13493Y13406D1*
X13455Y13438D1*
X13420Y13475D1*
X13391Y13515D1*
X13366Y13558D1*
X13346Y13604D1*
X13332Y13652D1*
X13323Y13701D1*
X13321Y13751D1*
X13324Y13801D1*
X13333Y13850D1*
X13347Y13898D1*
X13367Y13944D1*
X13392Y13987D1*
X13422Y14027D1*
X13457Y14063D1*
X13495Y14095D1*
X13537Y14123D1*
X13582Y14145D1*
X13629Y14162D1*
X13677Y14173D1*
X13727Y14179D1*
X13777Y14178D1*
X13827Y14172D1*
X13875Y14161D1*
X13922Y14143D1*
X13967Y14121D1*
X14008Y14093D1*
X14046Y14061D1*
X14080Y14024D1*
X14110Y13984D1*
X14135Y13940D1*
X14154Y13894D1*
X14168Y13846D1*
X14177Y13797D1*
X14179Y13750D1*
X14176Y13700D1*
X13176Y700D2*
X13168Y651D1*
X13153Y603D1*
X13134Y557D1*
X13109Y514D1*
X13079Y474D1*
X13044Y438D1*
X13006Y405D1*
X12964Y378D1*
X12920Y356D1*
X12873Y339D1*
X12824Y327D1*
X12774Y321D1*
X12724D1*
X12675Y327D1*
X12626Y339D1*
X12579Y356D1*
X12535Y379D1*
X12493Y406D1*
X12455Y438D1*
X12420Y475D1*
X12391Y515D1*
X12366Y558D1*
X12346Y604D1*
X12332Y652D1*
X12323Y701D1*
X12321Y751D1*
X12324Y801D1*
X12333Y850D1*
X12347Y898D1*
X12367Y944D1*
X12392Y987D1*
X12422Y1027D1*
X12457Y1063D1*
X12495Y1095D1*
X12537Y1123D1*
X12582Y1145D1*
X12629Y1162D1*
X12677Y1173D1*
X12727Y1179D1*
X12777Y1178D1*
X12827Y1172D1*
X12875Y1161D1*
X12922Y1143D1*
X12967Y1121D1*
X13008Y1093D1*
X13046Y1061D1*
X13080Y1024D1*
X13110Y984D1*
X13135Y940D1*
X13154Y894D1*
X13168Y846D1*
X13177Y797D1*
X13179Y750D1*
X13176Y700D1*
X12176D2*
X12168Y651D1*
X12153Y603D1*
X12134Y557D1*
X12109Y514D1*
X12079Y474D1*
X12044Y438D1*
X12006Y405D1*
X11964Y378D1*
X11920Y356D1*
X11873Y339D1*
X11824Y327D1*
X11774Y321D1*
X11724D1*
X11675Y327D1*
X11626Y339D1*
X11579Y356D1*
X11535Y379D1*
X11493Y406D1*
X11455Y438D1*
X11420Y475D1*
X11391Y515D1*
X11366Y558D1*
X11346Y604D1*
X11332Y652D1*
X11323Y701D1*
X11321Y751D1*
X11324Y801D1*
X11333Y850D1*
X11347Y898D1*
X11367Y944D1*
X11392Y987D1*
X11422Y1027D1*
X11457Y1063D1*
X11495Y1095D1*
X11537Y1123D1*
X11582Y1145D1*
X11629Y1162D1*
X11677Y1173D1*
X11727Y1179D1*
X11777Y1178D1*
X11827Y1172D1*
X11875Y1161D1*
X11922Y1143D1*
X11967Y1121D1*
X12008Y1093D1*
X12046Y1061D1*
X12080Y1024D1*
X12110Y984D1*
X12135Y940D1*
X12154Y894D1*
X12168Y846D1*
X12177Y797D1*
X12179Y750D1*
X12176Y700D1*
X12186Y12289D2*
X14505D1*
X12186Y12190D2*
X14605D1*
X12186Y12091D2*
X13514D1*
X13986D2*
X14703D1*
X12186Y11993D2*
X13411D1*
X14089D2*
X14802D1*
X12186Y11894D2*
X13356D1*
X14144D2*
X17003D1*
X12186Y11795D2*
X13333D1*
X14167D2*
X17003D1*
X12186Y11697D2*
X13335D1*
X14165D2*
X17003D1*
X12186Y11598D2*
X13360D1*
X14140D2*
X17003D1*
X12186Y11499D2*
X13417D1*
X14083D2*
X17003D1*
X12186Y11401D2*
X13527D1*
X13973D2*
X17003D1*
X12186Y11302D2*
X17003D1*
X12186Y11203D2*
X17003D1*
X12186Y11105D2*
X12536D1*
X12964D2*
X13536D1*
X13964D2*
X17003D1*
X12186Y11006D2*
X12420D1*
X13080D2*
X13420D1*
X14080D2*
X17003D1*
X12186Y10907D2*
X12363D1*
X13137D2*
X13363D1*
X14137D2*
X17003D1*
X12186Y10808D2*
X12335D1*
X13165D2*
X13335D1*
X14165D2*
X17003D1*
X12186Y10710D2*
X12333D1*
X13167D2*
X13333D1*
X14167D2*
X17003D1*
X12186Y10611D2*
X12355D1*
X13145D2*
X13355D1*
X14145D2*
X17003D1*
X12186Y10512D2*
X12406D1*
X13094D2*
X13406D1*
X14094D2*
X17003D1*
X12186Y10414D2*
X12506D1*
X12994D2*
X13506D1*
X13994D2*
X17003D1*
X12186Y10315D2*
X17003D1*
X12186Y10216D2*
X17003D1*
X12186Y10118D2*
X13561D1*
X13939D2*
X17003D1*
X12251Y10019D2*
X13431D1*
X14069D2*
X17003D1*
X12350Y9920D2*
X13367D1*
X14133D2*
X17003D1*
X12448Y9822D2*
X13338D1*
X14162D2*
X17003D1*
X12547Y9723D2*
X13331D1*
X14169D2*
X17003D1*
X12647Y9624D2*
X13350D1*
X14150D2*
X17003D1*
X12745Y9526D2*
X13399D1*
X14101D2*
X14695D1*
X12844Y9427D2*
X13489D1*
X14011D2*
X14595D1*
X12942Y9328D2*
X14497D1*
X13040Y9229D2*
X14399D1*
X13139Y9131D2*
X13591D1*
X13909D2*
X14300D1*
X13156Y10700D2*
X13147Y10651D1*
X13132Y10603D1*
X13111Y10558D1*
X13085Y10515D1*
X13054Y10476D1*
X13019Y10441D1*
X12979Y10411D1*
X12936Y10385D1*
X12890Y10365D1*
X12842Y10351D1*
X12793Y10343D1*
X12743Y10341D1*
X12693Y10345D1*
X12644Y10355D1*
X12597Y10371D1*
X12552Y10392D1*
X12509Y10419D1*
X12471Y10451D1*
X12437Y10487D1*
X12407Y10527D1*
X12382Y10571D1*
X12363Y10617D1*
X12350Y10665D1*
X12342Y10714D1*
X12341Y10764D1*
X12346Y10814D1*
X12357Y10863D1*
X12373Y10910D1*
X12396Y10955D1*
X12423Y10996D1*
X12456Y11034D1*
X12492Y11068D1*
X12533Y11097D1*
X12577Y11121D1*
X12623Y11139D1*
X12672Y11152D1*
X12721Y11158D1*
X12771Y11159D1*
X12821Y11153D1*
X12870Y11141D1*
X12916Y11124D1*
X12961Y11101D1*
X13002Y11073D1*
X13039Y11039D1*
X13072Y11002D1*
X13101Y10961D1*
X13124Y10917D1*
X13141Y10870D1*
X13153Y10821D1*
X13159Y10750D1*
X13156Y10700D1*
X13562Y9113D2*
X13623Y9139D1*
X13672Y9152D1*
X13721Y9158D1*
X13771Y9159D1*
X13821Y9153D1*
X13870Y9141D1*
X13937Y9113D1*
X14291D1*
X14779Y9598D1*
X14813Y9612D1*
X17013Y9613D1*
Y11950D1*
X14874Y11951D1*
X14840Y11965D1*
X14416Y12388D1*
X13939Y12387D1*
X13890Y12365D1*
X13842Y12351D1*
X13793Y12343D1*
X13743Y12341D1*
X13693Y12345D1*
X13644Y12355D1*
X13597Y12371D1*
X13561Y12387D1*
X12175Y12388D1*
X12176Y10084D1*
X13148Y9112D1*
X13562Y9113D1*
X14156Y9700D2*
X14147Y9651D1*
X14132Y9603D1*
X14111Y9558D1*
X14085Y9515D1*
X14054Y9476D1*
X14019Y9441D1*
X13979Y9411D1*
X13936Y9385D1*
X13890Y9365D1*
X13842Y9351D1*
X13793Y9343D1*
X13743Y9341D1*
X13693Y9345D1*
X13644Y9355D1*
X13597Y9371D1*
X13552Y9392D1*
X13509Y9419D1*
X13471Y9451D1*
X13437Y9487D1*
X13407Y9527D1*
X13382Y9571D1*
X13363Y9617D1*
X13350Y9665D1*
X13342Y9714D1*
X13341Y9764D1*
X13346Y9814D1*
X13357Y9863D1*
X13373Y9910D1*
X13396Y9955D1*
X13423Y9996D1*
X13456Y10034D1*
X13492Y10068D1*
X13533Y10097D1*
X13577Y10121D1*
X13623Y10139D1*
X13672Y10152D1*
X13721Y10158D1*
X13771Y10159D1*
X13821Y10153D1*
X13870Y10141D1*
X13916Y10124D1*
X13961Y10101D1*
X14002Y10073D1*
X14039Y10039D1*
X14072Y10002D1*
X14101Y9961D1*
X14124Y9917D1*
X14141Y9870D1*
X14153Y9821D1*
X14159Y9750D1*
X14156Y9700D1*
Y10700D2*
X14147Y10651D1*
X14132Y10603D1*
X14111Y10558D1*
X14085Y10515D1*
X14054Y10476D1*
X14019Y10441D1*
X13979Y10411D1*
X13936Y10385D1*
X13890Y10365D1*
X13842Y10351D1*
X13793Y10343D1*
X13743Y10341D1*
X13693Y10345D1*
X13644Y10355D1*
X13597Y10371D1*
X13552Y10392D1*
X13509Y10419D1*
X13471Y10451D1*
X13437Y10487D1*
X13407Y10527D1*
X13382Y10571D1*
X13363Y10617D1*
X13350Y10665D1*
X13342Y10714D1*
X13341Y10764D1*
X13346Y10814D1*
X13357Y10863D1*
X13373Y10910D1*
X13396Y10955D1*
X13423Y10996D1*
X13456Y11034D1*
X13492Y11068D1*
X13533Y11097D1*
X13577Y11121D1*
X13623Y11139D1*
X13672Y11152D1*
X13721Y11158D1*
X13771Y11159D1*
X13821Y11153D1*
X13870Y11141D1*
X13916Y11124D1*
X13961Y11101D1*
X14002Y11073D1*
X14039Y11039D1*
X14072Y11002D1*
X14101Y10961D1*
X14124Y10917D1*
X14141Y10870D1*
X14153Y10821D1*
X14159Y10750D1*
X14156Y10700D1*
Y11700D2*
X14147Y11651D1*
X14132Y11603D1*
X14111Y11558D1*
X14085Y11515D1*
X14054Y11476D1*
X14019Y11441D1*
X13979Y11411D1*
X13936Y11385D1*
X13890Y11365D1*
X13842Y11351D1*
X13793Y11343D1*
X13743Y11341D1*
X13693Y11345D1*
X13644Y11355D1*
X13597Y11371D1*
X13552Y11392D1*
X13509Y11419D1*
X13471Y11451D1*
X13437Y11487D1*
X13407Y11527D1*
X13382Y11571D1*
X13363Y11617D1*
X13350Y11665D1*
X13342Y11714D1*
X13341Y11764D1*
X13346Y11814D1*
X13357Y11863D1*
X13373Y11910D1*
X13396Y11955D1*
X13423Y11996D1*
X13456Y12034D1*
X13492Y12068D1*
X13533Y12097D1*
X13577Y12121D1*
X13623Y12139D1*
X13672Y12152D1*
X13721Y12158D1*
X13771Y12159D1*
X13821Y12153D1*
X13870Y12141D1*
X13916Y12124D1*
X13961Y12101D1*
X14002Y12073D1*
X14039Y12039D1*
X14072Y12002D1*
X14101Y11961D1*
X14124Y11917D1*
X14141Y11870D1*
X14153Y11821D1*
X14159Y11750D1*
X14156Y11700D1*
D23*
X4594Y6281D3*
X4082D3*
D24*
X9750Y13750D3*
D25*
X8750D3*
D24*
X15125Y10125D3*
D25*
Y9125D3*
D24*
X16500Y10125D3*
D25*
Y9125D3*
D24*
X15125Y11500D3*
D25*
Y12500D3*
D24*
X16500Y11500D3*
D25*
Y12500D3*
D24*
X15125Y2750D3*
D25*
Y1750D3*
Y750D3*
D24*
X16500Y2750D3*
D25*
Y1750D3*
Y750D3*
D26*
X1063Y5359D3*
Y7203D3*
D23*
X3656Y6281D3*
X3144D3*
D29*
X12750Y10750D3*
D38*
X1750Y13000D3*
Y13866D3*
X4624Y13000D3*
Y13866D3*
D39*
X2301Y12744D3*
X3482D3*
X4073D3*
D25*
X7750Y13750D3*
Y12750D3*
Y11750D3*
Y10750D3*
Y9750D3*
Y8750D3*
Y7750D3*
Y6750D3*
Y5750D3*
Y4750D3*
Y3750D3*
Y2750D3*
Y1750D3*
Y750D3*
X13750D3*
Y1750D3*
Y2750D3*
Y3750D3*
Y4750D3*
Y5750D3*
Y6750D3*
Y7750D3*
Y8750D3*
Y9750D3*
Y10750D3*
Y11750D3*
Y12750D3*
Y13750D3*
X12750Y750D3*
X11750D3*
X10750D3*
X9750D3*
X8750D3*
M02*
