G04 DipTrace 2.4.0.2*
%INBottomSilk.gbr*%
%MOIN*%
%ADD10C,0.0098*%
%ADD12C,0.001*%
%ADD20C,0.01*%
%ADD119C,0.0046*%
%ADD120C,0.0077*%
%ADD121C,0.0062*%
%ADD122C,0.0108*%
%FSLAX44Y44*%
G04*
G70*
G90*
G75*
G01*
%LNBotSilk*%
%LPD*%
X2026Y13945D2*
D10*
X4348D1*
X1868Y13217D2*
Y13650D1*
X4506Y13217D2*
Y13650D1*
X2006Y12921D2*
X2104D1*
X2498D2*
X3285D1*
X3679D2*
X3876D1*
X4270D2*
X4368D1*
X2125Y12125D2*
D20*
X4250D1*
X4000Y11875D1*
X2125Y12125D2*
X2375Y11875D1*
Y12375D1*
X4000Y11875D2*
Y12375D1*
X4250Y12125D1*
X2375Y12375D2*
X2125Y12125D1*
X8251Y14251D2*
X10251D1*
Y12626D1*
X8251D1*
Y14251D1*
X14689Y12939D2*
X16939D1*
Y8688D1*
X14689D1*
Y12939D1*
X15564D2*
Y8688D1*
X16939Y10564D2*
X14689D1*
X16064Y12939D2*
Y8688D1*
X16939Y11064D2*
X14689D1*
X16064Y3188D2*
X16939D1*
Y375D1*
X16064D1*
Y3188D1*
X14689D2*
X15564D1*
Y375D1*
X14689D1*
Y3188D1*
X2512Y4535D2*
D12*
D3*
X2492Y4525D2*
X2502D1*
X2479Y4515D2*
X2497D1*
X2466Y4505D2*
X2490D1*
X2454Y4495D2*
X2482D1*
X2442Y4485D2*
X2474D1*
X2430Y4475D2*
X2466D1*
X2416Y4465D2*
X2459D1*
X2403Y4455D2*
X2453D1*
X2392Y4445D2*
X2446D1*
X2381Y4435D2*
X2441D1*
X2368Y4425D2*
X2435D1*
X2356Y4415D2*
X2430D1*
X2344Y4405D2*
X2423D1*
X2333Y4395D2*
X2416D1*
X2321Y4385D2*
X2372D1*
X2393D2*
X2408D1*
X2309Y4375D2*
X2362D1*
X2383D2*
X2402D1*
X2297Y4365D2*
X2352D1*
X2374D2*
X2397D1*
X2287Y4355D2*
X2342D1*
X2368D2*
X2394D1*
X2276Y4345D2*
X2332D1*
X2362D2*
X2391D1*
X2265Y4335D2*
X2387D1*
X2254Y4325D2*
X2313D1*
X2344D2*
X2382D1*
X2243Y4315D2*
X2303D1*
X2338D2*
X2376D1*
X2234Y4305D2*
X2294D1*
X2333D2*
X2370D1*
X2225Y4295D2*
X2286D1*
X2328D2*
X2365D1*
X2215Y4285D2*
X2277D1*
X2322D2*
X2359D1*
X2204Y4275D2*
X2267D1*
X2316D2*
X2352D1*
X2194Y4265D2*
X2255D1*
X2310D2*
X2346D1*
X2185Y4255D2*
X2244D1*
X2305D2*
X2341D1*
X2177Y4245D2*
X2235D1*
X2300D2*
X2337D1*
X2169Y4235D2*
X2228D1*
X2295D2*
X2334D1*
X2159Y4225D2*
X2223D1*
X2290D2*
X2331D1*
X2148Y4215D2*
X2216D1*
X2287D2*
X2327D1*
X2136Y4205D2*
X2206D1*
X2284D2*
X2322D1*
X2126Y4195D2*
X2195D1*
X2282D2*
X2317D1*
X2119Y4185D2*
X2185D1*
X2278D2*
X2313D1*
X2113Y4175D2*
X2177D1*
X2274D2*
X2309D1*
X2106Y4165D2*
X2171D1*
X2270D2*
X2305D1*
X2096Y4155D2*
X2163D1*
X2265D2*
X2300D1*
X1252Y4145D2*
D3*
X2085D2*
X2154D1*
X2260D2*
X2295D1*
X1256Y4135D2*
X1262D1*
X2076D2*
X2144D1*
X2255D2*
X2290D1*
X1258Y4125D2*
X1274D1*
X2069D2*
X2134D1*
X2250D2*
X2287D1*
X1256Y4115D2*
X1284D1*
X2063D2*
X2125D1*
X2246D2*
X2284D1*
X1252Y4105D2*
X1295D1*
X2056D2*
X2118D1*
X2243D2*
X2283D1*
X1257Y4095D2*
X1307D1*
X2047D2*
X2112D1*
X2239D2*
X2281D1*
X1260Y4085D2*
X1319D1*
X2037D2*
X2104D1*
X2235D2*
X2277D1*
X1261Y4075D2*
X1282D1*
X1302D2*
X1329D1*
X2028D2*
X2095D1*
X2230D2*
X2271D1*
X1262Y4065D2*
X1282D1*
X1312D2*
X1338D1*
X2020D2*
X2087D1*
X2172D2*
D3*
X2227D2*
X2266D1*
X1262Y4055D2*
X1282D1*
X1322D2*
X1346D1*
X2013D2*
X2080D1*
X2224D2*
X2261D1*
X1262Y4045D2*
X1282D1*
X1331D2*
X1356D1*
X2006D2*
X2073D1*
X2172D2*
D3*
X2222D2*
X2256D1*
X1263Y4035D2*
X1282D1*
X1340D2*
X1367D1*
X1999D2*
X2066D1*
X2162D2*
D3*
X2219D2*
X2253D1*
X1263Y4025D2*
X1282D1*
X1350D2*
X1378D1*
X1992D2*
X2059D1*
X2153D2*
X2162D1*
X2216D2*
X2249D1*
X1264Y4015D2*
X1282D1*
X1361D2*
X1387D1*
X1986D2*
X2051D1*
X2144D2*
X2154D1*
X2213D2*
X2244D1*
X1267Y4005D2*
X1282D1*
X1371D2*
X1395D1*
X1979D2*
X2042D1*
X2137D2*
X2147D1*
X2209D2*
X2240D1*
X1269Y3995D2*
X1283D1*
X1380D2*
X1404D1*
X1971D2*
X2034D1*
X2130D2*
X2139D1*
X2206D2*
X2235D1*
X1271Y3985D2*
X1283D1*
X1388D2*
X1413D1*
X1963D2*
X2026D1*
X2123D2*
X2133D1*
X2203D2*
X2230D1*
X1272Y3975D2*
X1284D1*
X1396D2*
X1424D1*
X1957D2*
X2019D1*
X2116D2*
X2126D1*
X2199D2*
X2227D1*
X1272Y3965D2*
X1287D1*
X1404D2*
X1435D1*
X1951D2*
X2013D1*
X2111D2*
X2121D1*
X2194D2*
X2224D1*
X1273Y3955D2*
X1289D1*
X1413D2*
X1443D1*
X1945D2*
X2006D1*
X2105D2*
X2117D1*
X2190D2*
X2223D1*
X1274Y3945D2*
X1291D1*
X1423D2*
X1450D1*
X1939D2*
X2001D1*
X2099D2*
X2113D1*
X2186D2*
X2221D1*
X1277Y3935D2*
X1292D1*
X1372D2*
D3*
X1432D2*
X1457D1*
X1932D2*
X1995D1*
X2092D2*
X2109D1*
X2183D2*
X2219D1*
X1279Y3925D2*
X1294D1*
X1377D2*
X1382D1*
X1441D2*
X1465D1*
X1926D2*
X1988D1*
X2086D2*
X2104D1*
X2179D2*
X2215D1*
X1281Y3915D2*
X1296D1*
X1382D2*
D3*
X1447D2*
X1475D1*
X1919D2*
X1981D1*
X2079D2*
X2100D1*
X2176D2*
X2212D1*
X1282Y3905D2*
X1299D1*
X1385D2*
X1392D1*
X1453D2*
X1485D1*
X1911D2*
X1972D1*
X2072D2*
X2095D1*
X2174D2*
X2207D1*
X1282Y3895D2*
X1301D1*
X1389D2*
X1396D1*
X1460D2*
X1494D1*
X1904D2*
X1964D1*
X2066D2*
X2088D1*
X2173D2*
X2202D1*
X1282Y3885D2*
X1302D1*
X1391D2*
X1401D1*
X1467D2*
X1500D1*
X1898D2*
X1958D1*
X2061D2*
X2081D1*
X2172D2*
X2197D1*
X1282Y3875D2*
X1304D1*
X1393D2*
X1405D1*
X1475D2*
X1506D1*
X1895D2*
X1953D1*
X2055D2*
X2074D1*
X2171D2*
X2193D1*
X1282Y3865D2*
X1306D1*
X1397D2*
X1410D1*
X1482D2*
X1513D1*
X1892D2*
X1948D1*
X2050D2*
X2068D1*
X2168D2*
X2189D1*
X1282Y3855D2*
X1309D1*
X1401D2*
X1416D1*
X1489D2*
X1521D1*
X1887D2*
X1942D1*
X2043D2*
X2065D1*
X2164D2*
X2186D1*
X1283Y3845D2*
X1311D1*
X1405D2*
X1423D1*
X1494D2*
X1529D1*
X1880D2*
X1936D1*
X2036D2*
X2062D1*
X2160D2*
X2183D1*
X1283Y3835D2*
X1312D1*
X1410D2*
X1429D1*
X1500D2*
X1537D1*
X1873D2*
X1929D1*
X2028D2*
X2057D1*
X2156D2*
X2179D1*
X1284Y3825D2*
X1314D1*
X1415D2*
X1436D1*
X1506D2*
X1545D1*
X1867D2*
X1921D1*
X2020D2*
X2052D1*
X2153D2*
X2176D1*
X1287Y3815D2*
X1316D1*
X1420D2*
X1442D1*
X1513D2*
X1552D1*
X1861D2*
X1913D1*
X2013D2*
X2046D1*
X2149D2*
X2174D1*
X1289Y3805D2*
X1319D1*
X1425D2*
X1447D1*
X1519D2*
X1557D1*
X1855D2*
X1907D1*
X2008D2*
X2040D1*
X2146D2*
X2173D1*
X1291Y3795D2*
X1321D1*
X1429D2*
X1452D1*
X1525D2*
X1562D1*
X1850D2*
X1901D1*
X2003D2*
X2035D1*
X2143D2*
X2171D1*
X1293Y3785D2*
X1323D1*
X1433D2*
X1456D1*
X1530D2*
X1568D1*
X1846D2*
X1895D1*
X1999D2*
X2029D1*
X2139D2*
X2168D1*
X1296Y3775D2*
X1326D1*
X1437D2*
X1460D1*
X1537D2*
X1574D1*
X1843D2*
X1890D1*
X1994D2*
X2022D1*
X2136D2*
X2164D1*
X1299Y3765D2*
X1329D1*
X1443D2*
X1465D1*
X1544D2*
X1582D1*
X1839D2*
X1885D1*
X1989D2*
X2016D1*
X2133D2*
X2160D1*
X1301Y3755D2*
X1331D1*
X1447D2*
X1470D1*
X1551D2*
X1588D1*
X1834D2*
X1880D1*
X1982D2*
X2011D1*
X2129D2*
X2156D1*
X1302Y3745D2*
X1332D1*
X1450D2*
X1475D1*
X1557D2*
X1594D1*
X1830D2*
X1875D1*
X1976D2*
X2007D1*
X2126D2*
X2153D1*
X1304Y3735D2*
X1334D1*
X1452D2*
X1480D1*
X1560D2*
X1600D1*
X1825D2*
X1870D1*
X1970D2*
X2004D1*
X2123D2*
X2149D1*
X1306Y3725D2*
X1336D1*
X1453D2*
X1486D1*
X1563D2*
X1605D1*
X1819D2*
X1865D1*
X1965D2*
X2001D1*
X2119D2*
X2146D1*
X1309Y3715D2*
X1339D1*
X1454D2*
X1492D1*
X1568D2*
X1610D1*
X1812D2*
X1859D1*
X1960D2*
X1997D1*
X2116D2*
X2143D1*
X1311Y3705D2*
X1341D1*
X1458D2*
X1497D1*
X1573D2*
X1615D1*
X1806D2*
X1853D1*
X1956D2*
X1992D1*
X2114D2*
X2139D1*
X1313Y3695D2*
X1342D1*
X1463D2*
X1500D1*
X1579D2*
X1620D1*
X1801D2*
X1847D1*
X1953D2*
X1986D1*
X2113D2*
X2134D1*
X1316Y3685D2*
X1342D1*
X1468D2*
X1503D1*
X1585D2*
X1625D1*
X1797D2*
X1843D1*
X1949D2*
X1981D1*
X2112D2*
X2130D1*
X1319Y3675D2*
X1343D1*
X1472D2*
X1507D1*
X1590D2*
X1630D1*
X1793D2*
X1839D1*
X1944D2*
X1976D1*
X2111D2*
X2126D1*
X1321Y3665D2*
X1344D1*
X1476D2*
X1511D1*
X1595D2*
X1636D1*
X1789D2*
X1834D1*
X1938D2*
X1972D1*
X2108D2*
X2123D1*
X1323Y3655D2*
X1347D1*
X1480D2*
X1515D1*
X1600D2*
X1643D1*
X1786D2*
X1829D1*
X1932D2*
X1968D1*
X2104D2*
X2119D1*
X1326Y3645D2*
X1349D1*
X1485D2*
X1520D1*
X1605D2*
X1649D1*
X1784D2*
X1822D1*
X1926D2*
X1962D1*
X2100D2*
X2116D1*
X1329Y3635D2*
X1351D1*
X1490D2*
X1525D1*
X1608D2*
X1654D1*
X1782D2*
X1816D1*
X1920D2*
X1958D1*
X2097D2*
X2114D1*
X1332Y3625D2*
X1353D1*
X1495D2*
X1530D1*
X1611D2*
X1660D1*
X1778D2*
X1810D1*
X1915D2*
X1954D1*
X2094D2*
X2113D1*
X1336Y3615D2*
X1356D1*
X1498D2*
X1535D1*
X1612D2*
X1665D1*
X1774D2*
X1805D1*
X1910D2*
X1952D1*
X2092D2*
X2111D1*
X1339Y3605D2*
X1359D1*
X1501D2*
X1540D1*
X1614D2*
X1668D1*
X1770D2*
X1800D1*
X1905D2*
X1948D1*
X2088D2*
X2108D1*
X2502D2*
X2682D1*
X1341Y3595D2*
X1362D1*
X1503D2*
X1545D1*
X1618D2*
X1671D1*
X1765D2*
X1795D1*
X1900D2*
X1944D1*
X2084D2*
X2104D1*
X2442D2*
X2753D1*
X792Y3585D2*
X842D1*
X1342D2*
X1366D1*
X1507D2*
X1550D1*
X1623D2*
X1673D1*
X1760D2*
X1790D1*
X1897D2*
X1940D1*
X2080D2*
X2100D1*
X2390D2*
X2572D1*
X2612D2*
D3*
X2632D2*
D3*
X2662D2*
X2815D1*
X799Y3575D2*
X872D1*
X1343D2*
X1369D1*
X1511D2*
X1555D1*
X1628D2*
X1677D1*
X1756D2*
X1787D1*
X1894D2*
X1935D1*
X2077D2*
X2097D1*
X2350D2*
X2444D1*
X2792D2*
X2865D1*
X806Y3565D2*
X901D1*
X1344D2*
X1371D1*
X1515D2*
X1558D1*
X1632D2*
X1681D1*
X1753D2*
X1784D1*
X1892D2*
X1930D1*
X2074D2*
X2094D1*
X2320D2*
X2417D1*
X2829D2*
X2905D1*
X813Y3555D2*
X929D1*
X1347D2*
X1373D1*
X1519D2*
X1561D1*
X1636D2*
X1685D1*
X1749D2*
X1782D1*
X1888D2*
X1926D1*
X2072D2*
X2092D1*
X2295D2*
X2389D1*
X2862D2*
X2939D1*
X819Y3545D2*
X957D1*
X1349D2*
X1377D1*
X1522D2*
X1563D1*
X1639D2*
X1690D1*
X1745D2*
X1778D1*
X1884D2*
X1922D1*
X2069D2*
X2088D1*
X2272D2*
X2363D1*
X2582D2*
X2752D1*
X2892D2*
X2971D1*
X826Y3535D2*
X842D1*
X899D2*
X986D1*
X1353D2*
X1381D1*
X1526D2*
X1567D1*
X1643D2*
X1695D1*
X1740D2*
X1774D1*
X1880D2*
X1918D1*
X2066D2*
X2084D1*
X2251D2*
X2336D1*
X2519D2*
X2812D1*
X2921D2*
X3003D1*
X832Y3525D2*
X852D1*
X929D2*
X1014D1*
X1356D2*
X1385D1*
X1531D2*
X1571D1*
X1647D2*
X1699D1*
X1736D2*
X1770D1*
X1875D2*
X1912D1*
X2064D2*
X2080D1*
X2230D2*
X2311D1*
X2465D2*
X2742D1*
X2949D2*
X3030D1*
X837Y3515D2*
X862D1*
X959D2*
X1038D1*
X1361D2*
X1388D1*
X1535D2*
X1575D1*
X1653D2*
X1704D1*
X1730D2*
X1765D1*
X1870D2*
X1907D1*
X2063D2*
X2076D1*
X2212D2*
X2287D1*
X2421D2*
X2595D1*
X2972D2*
X3048D1*
X842Y3505D2*
X872D1*
X986D2*
X1061D1*
X1365D2*
X1391D1*
X1540D2*
X1579D1*
X1657D2*
X1713D1*
X1722D2*
X1760D1*
X1866D2*
X1903D1*
X2062D2*
X2073D1*
X2195D2*
X2265D1*
X2387D2*
X2551D1*
X2992D2*
X3062D1*
X846Y3495D2*
X882D1*
X1011D2*
X1081D1*
X1369D2*
X1392D1*
X1545D2*
X1582D1*
X1661D2*
X1755D1*
X1863D2*
X1899D1*
X2061D2*
X2069D1*
X2181D2*
X2245D1*
X2359D2*
X2511D1*
X2969D2*
X3034D1*
X851Y3485D2*
X891D1*
X1034D2*
X1101D1*
X1372D2*
X1393D1*
X1549D2*
X1586D1*
X1663D2*
X1750D1*
X1859D2*
X1896D1*
X2058D2*
X2066D1*
X2167D2*
X2229D1*
X2335D2*
X2477D1*
X2943D2*
X3007D1*
X857Y3475D2*
X900D1*
X1055D2*
X1121D1*
X1376D2*
X1394D1*
X1552D2*
X1591D1*
X1666D2*
X1746D1*
X1855D2*
X1894D1*
X2054D2*
X2064D1*
X2152D2*
X2213D1*
X2310D2*
X2445D1*
X2915D2*
X2980D1*
X865Y3465D2*
X910D1*
X1076D2*
X1142D1*
X1380D2*
X1397D1*
X1556D2*
X1595D1*
X1669D2*
X1743D1*
X1850D2*
X1892D1*
X2050D2*
X2063D1*
X2137D2*
X2198D1*
X2285D2*
X2413D1*
X2884D2*
X2952D1*
X873Y3455D2*
X921D1*
X1097D2*
X1163D1*
X1385D2*
X1399D1*
X1559D2*
X1600D1*
X1671D2*
X1739D1*
X1847D2*
X1889D1*
X2047D2*
X2061D1*
X2124D2*
X2181D1*
X2261D2*
X2381D1*
X2854D2*
X2921D1*
X882Y3445D2*
X931D1*
X1119D2*
X1183D1*
X1388D2*
X1403D1*
X1561D2*
X1605D1*
X1672D2*
X1735D1*
X1844D2*
X1886D1*
X2044D2*
X2059D1*
X2113D2*
X2164D1*
X2240D2*
X2351D1*
X2826D2*
X2889D1*
X891Y3435D2*
X940D1*
X1139D2*
X1201D1*
X1391D2*
X1406D1*
X1563D2*
X1608D1*
X1674D2*
X1730D1*
X1843D2*
X1882D1*
X2042D2*
X2056D1*
X2102D2*
X2148D1*
X2221D2*
X2326D1*
X2800D2*
X2859D1*
X897Y3425D2*
X949D1*
X1156D2*
X1217D1*
X1392D2*
X1409D1*
X1566D2*
X1611D1*
X1676D2*
X1727D1*
X1841D2*
X1879D1*
X2038D2*
X2054D1*
X2092D2*
X2135D1*
X2203D2*
X2304D1*
X2774D2*
X2832D1*
X902Y3415D2*
X957D1*
X1172D2*
X1233D1*
X1394D2*
X1412D1*
X1569D2*
X1612D1*
X1679D2*
X1724D1*
X1838D2*
X1876D1*
X2034D2*
X2052D1*
X2082D2*
X2123D1*
X2185D2*
X2283D1*
X2747D2*
X2807D1*
X908Y3405D2*
X968D1*
X1189D2*
X1250D1*
X1397D2*
X1416D1*
X1573D2*
X1614D1*
X1683D2*
X1723D1*
X1834D2*
X1873D1*
X2030D2*
X2049D1*
X2071D2*
X2110D1*
X2167D2*
X2263D1*
X2719D2*
X2781D1*
X915Y3395D2*
X980D1*
X1207D2*
X1266D1*
X1401D2*
X1420D1*
X1576D2*
X1616D1*
X1686D2*
X1721D1*
X1830D2*
X1869D1*
X2027D2*
X2045D1*
X2057D2*
X2095D1*
X2149D2*
X2243D1*
X2691D2*
X2753D1*
X923Y3385D2*
X991D1*
X1224D2*
X1281D1*
X1405D2*
X1425D1*
X1580D2*
X1619D1*
X1689D2*
X1719D1*
X1827D2*
X1864D1*
X2024D2*
X2081D1*
X2134D2*
X2223D1*
X2665D2*
X2724D1*
X932Y3375D2*
X1000D1*
X1240D2*
X1295D1*
X1410D2*
X1429D1*
X1585D2*
X1623D1*
X1691D2*
X1716D1*
X1824D2*
X1860D1*
X2022D2*
X2070D1*
X2121D2*
X2205D1*
X2640D2*
X2697D1*
X941Y3365D2*
X1008D1*
X1255D2*
X1310D1*
X1415D2*
X1433D1*
X1589D2*
X1626D1*
X1692D2*
X1712D1*
X1822D2*
X1857D1*
X2018D2*
X2060D1*
X2109D2*
X2189D1*
X2616D2*
X2672D1*
X947Y3355D2*
X1016D1*
X1268D2*
X1325D1*
X1420D2*
X1437D1*
X1592D2*
X1631D1*
X1692D2*
X1709D1*
X1818D2*
X1854D1*
X2014D2*
X2051D1*
X2096D2*
X2174D1*
X2591D2*
X2648D1*
X953Y3345D2*
X1024D1*
X1280D2*
X1340D1*
X1425D2*
X1443D1*
X1596D2*
X1635D1*
X1692D2*
X1706D1*
X1814D2*
X1852D1*
X2010D2*
X2041D1*
X2083D2*
X2160D1*
X2564D2*
X2625D1*
X962Y3335D2*
X1033D1*
X1295D2*
X1355D1*
X1430D2*
X1447D1*
X1600D2*
X1639D1*
X1692D2*
X1703D1*
X1810D2*
X1849D1*
X2007D2*
X2030D1*
X2070D2*
X2145D1*
X2537D2*
X2598D1*
X971Y3325D2*
X1042D1*
X1102D2*
X1112D1*
X1311D2*
X1368D1*
X1435D2*
X1450D1*
X1605D2*
X1642D1*
X1691D2*
X1699D1*
X1807D2*
X1846D1*
X2004D2*
X2021D1*
X2057D2*
X2129D1*
X2512D2*
X2572D1*
X981Y3315D2*
X1051D1*
X1115D2*
X1132D1*
X1325D2*
X1379D1*
X1440D2*
X1452D1*
X1608D2*
X1646D1*
X1688D2*
X1696D1*
X1804D2*
X1844D1*
X2003D2*
X2017D1*
X2043D2*
X2116D1*
X2488D2*
X2547D1*
X991Y3305D2*
X1059D1*
X1128D2*
X1152D1*
X1337D2*
X1390D1*
X1445D2*
X1454D1*
X1611D2*
X1649D1*
X1686D2*
X1694D1*
X1802D2*
X1843D1*
X2002D2*
X2019D1*
X2028D2*
X2104D1*
X2465D2*
X2524D1*
X998Y3295D2*
X1068D1*
X1142D2*
X1171D1*
X1349D2*
X1401D1*
X1449D2*
X1457D1*
X1612D2*
X1653D1*
X1684D2*
X1692D1*
X1799D2*
X1842D1*
X2001D2*
X2091D1*
X2441D2*
X2502D1*
X1006Y3285D2*
X1078D1*
X1157D2*
X1192D1*
X1362D2*
X1415D1*
X1453D2*
X1461D1*
X1613D2*
X1659D1*
X1681D2*
X1689D1*
X1796D2*
X1841D1*
X1998D2*
X2079D1*
X2415D2*
X2479D1*
X1014Y3275D2*
X1090D1*
X1173D2*
X1212D1*
X1375D2*
X1428D1*
X1457D2*
X1465D1*
X1614D2*
X1670D1*
X1677D2*
X1686D1*
X1793D2*
X1838D1*
X1995D2*
X2066D1*
X2389D2*
X2455D1*
X1023Y3265D2*
X1101D1*
X1188D2*
X1229D1*
X1389D2*
X1439D1*
X1462D2*
X1470D1*
X1617D2*
X1682D1*
X1789D2*
X1836D1*
X1992D2*
X2054D1*
X2366D2*
X2431D1*
X1033Y3255D2*
X1110D1*
X1201D2*
X1244D1*
X1401D2*
X1447D1*
X1467D2*
X1475D1*
X1619D2*
X1679D1*
X1786D2*
X1834D1*
X1989D2*
X2042D1*
X2344D2*
X2408D1*
X1042Y3245D2*
X1118D1*
X1214D2*
X1258D1*
X1412D2*
X1455D1*
X1465D2*
X1480D1*
X1621D2*
X1676D1*
X1784D2*
X1832D1*
X1986D2*
X2029D1*
X2323D2*
X2387D1*
X1051Y3235D2*
X1126D1*
X1225D2*
X1271D1*
X1422D2*
X1485D1*
X1623D2*
X1674D1*
X1783D2*
X1829D1*
X1984D2*
X2018D1*
X2302D2*
X2366D1*
X1057Y3225D2*
X1136D1*
X1235D2*
X1285D1*
X1432D2*
X1490D1*
X1626D2*
X1673D1*
X1783D2*
X1826D1*
X1982D2*
X2008D1*
X2280D2*
X2347D1*
X1063Y3215D2*
X1147D1*
X1246D2*
X1300D1*
X1442D2*
X1495D1*
X1629D2*
X1673D1*
X1783D2*
X1824D1*
X1978D2*
X2000D1*
X2256D2*
X2328D1*
X1072Y3205D2*
X1157D1*
X1259D2*
X1316D1*
X1452D2*
X1500D1*
X1632D2*
X1673D1*
X1782D2*
X1822D1*
X1974D2*
X1992D1*
X2232D2*
X2307D1*
X1081Y3195D2*
X1165D1*
X1272D2*
X1329D1*
X1462D2*
X1507D1*
X1636D2*
X1673D1*
X1782D2*
X1819D1*
X1970D2*
X1984D1*
X2210D2*
X2285D1*
X2422D2*
D3*
X2442D2*
X2612D1*
X1092Y3185D2*
X1171D1*
X1283D2*
X1341D1*
X1472D2*
X1514D1*
X1639D2*
X1673D1*
X1781D2*
X1816D1*
X1966D2*
X1978D1*
X2190D2*
X2264D1*
X2348D2*
X2692D1*
X1102Y3175D2*
X1178D1*
X1293D2*
X1352D1*
X1482D2*
X1524D1*
X1641D2*
X1672D1*
X1778D2*
X1814D1*
X1963D2*
X1975D1*
X2170D2*
X2242D1*
X2271D2*
X2482D1*
X2502D2*
D3*
X2544D2*
X2762D1*
X1111Y3165D2*
X1186D1*
X1303D2*
X1364D1*
X1491D2*
X1534D1*
X1643D2*
X1672D1*
X1776D2*
X1813D1*
X1959D2*
X1972D1*
X2150D2*
X2365D1*
X2382D2*
D3*
X2635D2*
X2824D1*
X1120Y3155D2*
X1197D1*
X1314D2*
X1375D1*
X1500D2*
X1545D1*
X1646D2*
X1671D1*
X1774D2*
X1811D1*
X1956D2*
X1968D1*
X2128D2*
X2309D1*
X2712D2*
X2879D1*
X1130Y3145D2*
X1209D1*
X1327D2*
X1385D1*
X1510D2*
X1553D1*
X1649D2*
X1668D1*
X1773D2*
X1809D1*
X1954D2*
X1964D1*
X2106D2*
X2254D1*
X2776D2*
X2924D1*
X1141Y3135D2*
X1219D1*
X1339D2*
X1394D1*
X1521D2*
X1560D1*
X1651D2*
X1666D1*
X1771D2*
X1806D1*
X1953D2*
X1960D1*
X2086D2*
X2205D1*
X2829D2*
X2956D1*
X1151Y3125D2*
X1228D1*
X1351D2*
X1403D1*
X1532D2*
X1567D1*
X1653D2*
X1664D1*
X1769D2*
X1804D1*
X1952D2*
X1957D1*
X2067D2*
X2164D1*
X2870D2*
X2982D1*
X1160Y3115D2*
X1236D1*
X1362D2*
X1413D1*
X1542D2*
X1575D1*
X1656D2*
X1663D1*
X1766D2*
X1803D1*
X1951D2*
X1954D1*
X2049D2*
X2131D1*
X2402D2*
X2602D1*
X2903D2*
X2972D1*
X1169Y3105D2*
X1246D1*
X1372D2*
X1424D1*
X1551D2*
X1583D1*
X1659D2*
X1663D1*
X1764D2*
X1802D1*
X1948D2*
X1953D1*
X2029D2*
X2102D1*
X2339D2*
X2663D1*
X2932D2*
X2962D1*
X1177Y3095D2*
X1257D1*
X1382D2*
X1435D1*
X1558D2*
X1592D1*
X1661D2*
X1663D1*
X1763D2*
X1801D1*
X1944D2*
X1951D1*
X2007D2*
X2073D1*
X2280D2*
X2720D1*
X2915D2*
X2951D1*
X1188Y3085D2*
X1268D1*
X1392D2*
X1445D1*
X1566D2*
X1601D1*
X1662D2*
D3*
X1763D2*
X1798D1*
X1940D2*
X1948D1*
X1984D2*
X2044D1*
X2227D2*
X2772D1*
X2898D2*
X2938D1*
X1200Y3075D2*
X1277D1*
X1402D2*
X1454D1*
X1574D2*
X1608D1*
X1763D2*
X1796D1*
X1936D2*
X1945D1*
X1958D2*
X2018D1*
X2184D2*
X2383D1*
X2880D2*
X2926D1*
X1211Y3065D2*
X1285D1*
X1411D2*
X1463D1*
X1583D2*
X1614D1*
X1762D2*
X1794D1*
X1933D2*
X1995D1*
X2149D2*
X2335D1*
X2863D2*
X2913D1*
X1220Y3055D2*
X1294D1*
X1418D2*
X1473D1*
X1592D2*
X1620D1*
X1761D2*
X1793D1*
X1929D2*
X1975D1*
X2120D2*
X2290D1*
X2847D2*
X2900D1*
X1229Y3045D2*
X1303D1*
X1426D2*
X1482D1*
X1601D2*
X1627D1*
X1758D2*
X1793D1*
X1925D2*
X1959D1*
X2093D2*
X2249D1*
X2830D2*
X2888D1*
X1237Y3035D2*
X1313D1*
X1434D2*
X1491D1*
X1608D2*
X1634D1*
X1756D2*
X1793D1*
X1920D2*
X1946D1*
X2066D2*
X2210D1*
X2811D2*
X2874D1*
X1248Y3025D2*
X1322D1*
X1443D2*
X1498D1*
X1615D2*
X1643D1*
X1754D2*
X1793D1*
X1916D2*
X1936D1*
X2041D2*
X2173D1*
X2791D2*
X2858D1*
X1259Y3015D2*
X1331D1*
X1452D2*
X1506D1*
X1622D2*
X1651D1*
X1753D2*
X1792D1*
X1913D2*
X1929D1*
X2020D2*
X2140D1*
X2772D2*
X2842D1*
X1269Y3005D2*
X1338D1*
X1461D2*
X1514D1*
X1629D2*
X1658D1*
X1753D2*
X1792D1*
X1909D2*
X1924D1*
X2002D2*
X2112D1*
X2754D2*
X2827D1*
X1278Y2995D2*
X1346D1*
X1468D2*
X1522D1*
X1636D2*
X1664D1*
X1753D2*
X1791D1*
X1906D2*
X1920D1*
X1986D2*
X2089D1*
X2736D2*
X2812D1*
X1286Y2985D2*
X1354D1*
X1476D2*
X1529D1*
X1643D2*
X1669D1*
X1753D2*
X1788D1*
X1903D2*
X1916D1*
X1972D2*
X2069D1*
X2719D2*
X2797D1*
X1294Y2975D2*
X1364D1*
X1484D2*
X1537D1*
X1649D2*
X1674D1*
X1753D2*
X1786D1*
X1899D2*
X1913D1*
X1957D2*
X2050D1*
X2699D2*
X2782D1*
X1305Y2965D2*
X1375D1*
X1492D2*
X1546D1*
X1656D2*
X1680D1*
X1752D2*
X1784D1*
X1896D2*
X1909D1*
X1939D2*
X2031D1*
X2678D2*
X2766D1*
X1316Y2955D2*
X1385D1*
X1499D2*
X1554D1*
X1662D2*
X1687D1*
X1752D2*
X1783D1*
X1894D2*
X1906D1*
X1917D2*
X2012D1*
X2656D2*
X2746D1*
X1328Y2945D2*
X1394D1*
X1506D2*
X1560D1*
X1667D2*
X1694D1*
X1752D2*
X1783D1*
X1893D2*
X1994D1*
X2636D2*
X2725D1*
X1339Y2935D2*
X1403D1*
X1512D2*
X1565D1*
X1672D2*
X1699D1*
X1752D2*
X1783D1*
X1891D2*
X1979D1*
X2617D2*
X2704D1*
X1350Y2925D2*
X1413D1*
X1519D2*
X1571D1*
X1676D2*
X1705D1*
X1752D2*
X1783D1*
X1888D2*
X1965D1*
X2597D2*
X2685D1*
X1362Y2915D2*
X1424D1*
X1526D2*
X1577D1*
X1681D2*
X1710D1*
X1752D2*
X1783D1*
X1884D2*
X1953D1*
X2575D2*
X2666D1*
X1338Y2905D2*
X1435D1*
X1534D2*
X1584D1*
X1686D2*
X1715D1*
X1752D2*
X1782D1*
X1880D2*
X1940D1*
X2551D2*
X2648D1*
X1315Y2895D2*
X1445D1*
X1543D2*
X1592D1*
X1693D2*
X1719D1*
X1752D2*
X1782D1*
X1875D2*
X1925D1*
X2527D2*
X2626D1*
X1296Y2885D2*
X1454D1*
X1551D2*
X1598D1*
X1699D2*
X1722D1*
X1752D2*
X1782D1*
X1870D2*
X1911D1*
X2505D2*
X2604D1*
X1278Y2875D2*
X1463D1*
X1557D2*
X1604D1*
X1704D2*
X1726D1*
X1752D2*
X1782D1*
X1866D2*
X1900D1*
X2483D2*
X2581D1*
X1261Y2865D2*
X1473D1*
X1561D2*
X1608D1*
X1710D2*
X1731D1*
X1751D2*
X1782D1*
X1862D2*
X1891D1*
X2462D2*
X2559D1*
X1244Y2855D2*
X1483D1*
X1566D2*
X1612D1*
X1715D2*
X1736D1*
X1747D2*
X1782D1*
X1858D2*
X1883D1*
X2438D2*
X2537D1*
X1225Y2845D2*
X1494D1*
X1571D2*
X1616D1*
X1718D2*
X1782D1*
X1852D2*
X1876D1*
X2410D2*
X2514D1*
X1206Y2835D2*
X1507D1*
X1577D2*
X1619D1*
X1721D2*
X1782D1*
X1848D2*
X1869D1*
X2382D2*
X2488D1*
X1190Y2825D2*
X1424D1*
X1462D2*
X1519D1*
X1584D2*
X1622D1*
X1723D2*
X1782D1*
X1845D2*
X1863D1*
X2356D2*
X2460D1*
X1032Y2815D2*
D3*
X1176D2*
X1419D1*
X1472D2*
X1531D1*
X1592D2*
X1626D1*
X1726D2*
X1782D1*
X1843D2*
X1858D1*
X2330D2*
X2432D1*
X1024Y2805D2*
X1032D1*
X1163D2*
X1393D1*
X1412D2*
X1415D1*
X1483D2*
X1542D1*
X1598D2*
X1629D1*
X1729D2*
X1782D1*
X1841D2*
X1853D1*
X2306D2*
X2406D1*
X1017Y2795D2*
X1032D1*
X1151D2*
X1373D1*
X1412D2*
X1414D1*
X1493D2*
X1552D1*
X1604D2*
X1631D1*
X1731D2*
X1782D1*
X1837D2*
X1849D1*
X2279D2*
X2380D1*
X1011Y2785D2*
X1032D1*
X1138D2*
X1354D1*
X1412D2*
X1413D1*
X1504D2*
X1562D1*
X1610D2*
X1632D1*
X1733D2*
X1782D1*
X1831D2*
X1846D1*
X2249D2*
X2351D1*
X1005Y2775D2*
X1032D1*
X1124D2*
X1333D1*
X1412D2*
X1413D1*
X1517D2*
X1573D1*
X1616D2*
X1632D1*
X1736D2*
X1782D1*
X1826D2*
X1843D1*
X2218D2*
X2320D1*
X1000Y2765D2*
X1032D1*
X1110D2*
X1313D1*
X1412D2*
X1413D1*
X1529D2*
X1584D1*
X1622D2*
X1632D1*
X1739D2*
X1782D1*
X1820D2*
X1839D1*
X2189D2*
X2287D1*
X995Y2755D2*
X1032D1*
X1097D2*
X1296D1*
X1402D2*
X1413D1*
X1541D2*
X1595D1*
X1741D2*
X1783D1*
X1815D2*
X1836D1*
X2160D2*
X2255D1*
X990Y2745D2*
X1031D1*
X1085D2*
X1280D1*
X1402D2*
X1412D1*
X1552D2*
X1605D1*
X1743D2*
X1783D1*
X1810D2*
X1833D1*
X2132D2*
X2227D1*
X985Y2735D2*
X1028D1*
X1074D2*
X1265D1*
X1402D2*
X1412D1*
X1562D2*
X1615D1*
X1746D2*
X1784D1*
X1805D2*
X1829D1*
X2102D2*
X2203D1*
X979Y2725D2*
X1025D1*
X1063D2*
X1251D1*
X1402D2*
X1412D1*
X1573D2*
X1625D1*
X1749D2*
X1788D1*
X1799D2*
X1824D1*
X2070D2*
X2186D1*
X972Y2715D2*
X1022D1*
X1049D2*
X1237D1*
X1402D2*
X1412D1*
X1584D2*
X1638D1*
X1751D2*
X1819D1*
X2033D2*
X2172D1*
X966Y2705D2*
X1221D1*
X1402D2*
X1412D1*
X1597D2*
X1652D1*
X1752D2*
X1813D1*
X1994D2*
X2114D1*
X2129D2*
X2184D1*
X961Y2695D2*
X1204D1*
X1402D2*
X1412D1*
X1532D2*
D3*
X1609D2*
X1663D1*
X1752D2*
X1808D1*
X1958D2*
X2061D1*
X2142D2*
X2193D1*
X957Y2685D2*
X1189D1*
X1402D2*
X1412D1*
X1528D2*
X1542D1*
X1621D2*
X1674D1*
X1752D2*
X1805D1*
X1921D2*
X2020D1*
X2151D2*
X2201D1*
X955Y2675D2*
X1175D1*
X1402D2*
X1413D1*
X1522D2*
X1546D1*
X1632D2*
X1684D1*
X1752D2*
X1805D1*
X1880D2*
X1992D1*
X2159D2*
X2208D1*
X953Y2665D2*
X1164D1*
X1402D2*
X1413D1*
X1518D2*
X1558D1*
X1582D2*
X1592D1*
X1643D2*
X1695D1*
X1751D2*
X1823D1*
X1829D2*
X1975D1*
X2164D2*
X2214D1*
X952Y2655D2*
X1153D1*
X1402D2*
X1414D1*
X1516D2*
X1590D1*
X1654D2*
X1709D1*
X1746D2*
X1897D1*
X1954D2*
X1962D1*
X2170D2*
X2220D1*
X951Y2645D2*
X1145D1*
X1402D2*
X1417D1*
X1517D2*
X1583D1*
X1668D2*
X1725D1*
X1735D2*
X1848D1*
X1948D2*
X2022D1*
X2175D2*
X2225D1*
X948Y2635D2*
X1138D1*
X1402D2*
X1419D1*
X1524D2*
X1573D1*
X1684D2*
X1796D1*
X1946D2*
X2016D1*
X2180D2*
X2230D1*
X945Y2625D2*
X1114D1*
X1132D2*
X1134D1*
X1402D2*
X1421D1*
X1537D2*
X1563D1*
X1703D2*
X1742D1*
X1948D2*
X2011D1*
X2185D2*
X2235D1*
X942Y2615D2*
X1099D1*
X1122D2*
X1130D1*
X1402D2*
X1422D1*
X1552D2*
D3*
X1720D2*
X1746D1*
X1950D2*
X2005D1*
X2190D2*
X2240D1*
X937Y2605D2*
X1085D1*
X1122D2*
X1126D1*
X1242D2*
D3*
X1402D2*
X1422D1*
X1733D2*
X1751D1*
X1958D2*
X1999D1*
X2195D2*
X2246D1*
X930Y2595D2*
X1073D1*
X1122D2*
X1124D1*
X1238D2*
X1252D1*
X1402D2*
X1423D1*
X1738D2*
X1755D1*
X1978D2*
X1992D1*
X2200D2*
X2253D1*
X922Y2585D2*
X1061D1*
X1122D2*
X1123D1*
X1235D2*
X1302D1*
X1402D2*
X1424D1*
X1741D2*
X1759D1*
X2042D2*
X2142D1*
X2206D2*
X2259D1*
X914Y2575D2*
X1049D1*
X1122D2*
X1123D1*
X1234D2*
X1299D1*
X1402D2*
X1427D1*
X1742D2*
X1763D1*
X1967D2*
X2086D1*
X2212D2*
X2264D1*
X906Y2565D2*
X1036D1*
X1121D2*
X1123D1*
X1233D2*
X1294D1*
X1402D2*
X1429D1*
X1744D2*
X1774D1*
X1890D2*
X2034D1*
X2217D2*
X2270D1*
X899Y2555D2*
X1026D1*
X1118D2*
X1123D1*
X1235D2*
X1290D1*
X1403D2*
X1431D1*
X1748D2*
X1801D1*
X1808D2*
X1986D1*
X2220D2*
X2275D1*
X891Y2545D2*
X1017D1*
X1116D2*
X1123D1*
X1238D2*
X1286D1*
X1403D2*
X1433D1*
X1752D2*
X1939D1*
X2223D2*
X2278D1*
X882Y2535D2*
X1008D1*
X1114D2*
X1122D1*
X1242D2*
X1282D1*
X1404D2*
X1436D1*
X1707D2*
X1891D1*
X2227D2*
X2281D1*
X873Y2525D2*
X997D1*
X1113D2*
X1122D1*
X1407D2*
X1439D1*
X1661D2*
X1838D1*
X2231D2*
X2283D1*
X864Y2515D2*
X985D1*
X1111D2*
X1122D1*
X1409D2*
X1441D1*
X1618D2*
X1782D1*
X2235D2*
X2287D1*
X857Y2505D2*
X974D1*
X1109D2*
X1122D1*
X1411D2*
X1442D1*
X1579D2*
X1783D1*
X2240D2*
X2291D1*
X850Y2495D2*
X965D1*
X1106D2*
X1122D1*
X1412D2*
X1445D1*
X1542D2*
X1714D1*
X1763D2*
X1784D1*
X2245D2*
X2295D1*
X2382D2*
D3*
X844Y2485D2*
X956D1*
X1104D2*
X1121D1*
X1411D2*
X1449D1*
X1505D2*
X1677D1*
X1763D2*
X1787D1*
X2249D2*
X2300D1*
X2376D2*
X2382D1*
X836Y2475D2*
X948D1*
X1103D2*
X1118D1*
X1410D2*
X1460D1*
X1469D2*
X1640D1*
X1764D2*
X1791D1*
X2253D2*
X2305D1*
X2371D2*
X2384D1*
X828Y2465D2*
X937D1*
X1101D2*
X1116D1*
X1399D2*
X1602D1*
X1767D2*
X1795D1*
X2257D2*
X2310D1*
X2365D2*
X2387D1*
X820Y2455D2*
X925D1*
X1099D2*
X1114D1*
X1383D2*
X1564D1*
X1770D2*
X1800D1*
X2263D2*
X2315D1*
X2360D2*
X2389D1*
X813Y2445D2*
X914D1*
X1096D2*
X1113D1*
X1362D2*
X1531D1*
X1773D2*
X1805D1*
X2268D2*
X2319D1*
X2354D2*
X2391D1*
X806Y2435D2*
X902D1*
X922D2*
X932D1*
X1094D2*
X1113D1*
X1337D2*
X1501D1*
X1776D2*
X1809D1*
X2032D2*
D3*
X2272D2*
X2323D1*
X2346D2*
X2392D1*
X801Y2425D2*
X932D1*
X1093D2*
X1113D1*
X1311D2*
X1475D1*
X1779D2*
X1813D1*
X2024D2*
X2042D1*
X2276D2*
X2327D1*
X2335D2*
X2392D1*
X795Y2415D2*
X892D1*
X912D2*
X932D1*
X1093D2*
X1113D1*
X1284D2*
X1452D1*
X1781D2*
X1817D1*
X2019D2*
X2042D1*
X2279D2*
X2392D1*
X789Y2405D2*
X982D1*
X1093D2*
X1113D1*
X1255D2*
X1397D1*
X1424D2*
X1457D1*
X1782D2*
X1823D1*
X2015D2*
X2092D1*
X2281D2*
X2392D1*
X712Y2395D2*
D3*
X782D2*
X884D1*
X901D2*
X977D1*
X1093D2*
X1112D1*
X1226D2*
X1369D1*
X1427D2*
X1462D1*
X1782D2*
X1828D1*
X2015D2*
X2085D1*
X2282D2*
X2392D1*
X707Y2385D2*
X712D1*
X776D2*
X869D1*
X910D2*
X970D1*
X1093D2*
X1113D1*
X1199D2*
X1338D1*
X1429D2*
X1466D1*
X1783D2*
X1832D1*
X2019D2*
X2078D1*
X2284D2*
X2392D1*
X700Y2375D2*
X712D1*
X769D2*
X857D1*
X921D2*
X962D1*
X1092D2*
X1113D1*
X1175D2*
X1309D1*
X1431D2*
X1469D1*
X1784D2*
X1836D1*
X2025D2*
X2070D1*
X2286D2*
X2392D1*
X693Y2365D2*
X711D1*
X762D2*
X849D1*
X932D2*
X952D1*
X1092D2*
X1114D1*
X1152D2*
X1282D1*
X1433D2*
X1472D1*
X1787D2*
X1839D1*
X2032D2*
X2062D1*
X2289D2*
X2392D1*
X687Y2355D2*
X708D1*
X756D2*
X844D1*
X1090D2*
X1118D1*
X1128D2*
X1255D1*
X1436D2*
X1476D1*
X1790D2*
X1842D1*
X2293D2*
X2392D1*
X681Y2345D2*
X706D1*
X749D2*
X838D1*
X1082D2*
X1226D1*
X1439D2*
X1479D1*
X1793D2*
X1846D1*
X2296D2*
X2391D1*
X675Y2335D2*
X704D1*
X743D2*
X830D1*
X1071D2*
X1195D1*
X1441D2*
X1482D1*
X1622D2*
X1642D1*
X1796D2*
X1849D1*
X2301D2*
X2388D1*
X670Y2325D2*
X703D1*
X737D2*
X822D1*
X1057D2*
X1167D1*
X1443D2*
X1486D1*
X1619D2*
X1642D1*
X1801D2*
X1852D1*
X2305D2*
X2386D1*
X665Y2315D2*
X703D1*
X732D2*
X813D1*
X1042D2*
X1146D1*
X1446D2*
X1489D1*
X1616D2*
X1692D1*
X1805D2*
X1856D1*
X2308D2*
X2384D1*
X660Y2305D2*
X705D1*
X725D2*
X804D1*
X1025D2*
X1132D1*
X1449D2*
X1492D1*
X1615D2*
X1689D1*
X1809D2*
X1861D1*
X2311D2*
X2382D1*
X655Y2295D2*
X708D1*
X715D2*
X798D1*
X1006D2*
X1127D1*
X1451D2*
X1496D1*
X1617D2*
X1684D1*
X1812D2*
X1867D1*
X2313D2*
X2379D1*
X649Y2285D2*
X793D1*
X984D2*
X1061D1*
X1092D2*
X1124D1*
X1452D2*
X1499D1*
X1620D2*
X1679D1*
X1816D2*
X1873D1*
X2316D2*
X2376D1*
X643Y2275D2*
X788D1*
X963D2*
X1037D1*
X1092D2*
X1123D1*
X1452D2*
X1501D1*
X1622D2*
X1672D1*
X1820D2*
X1879D1*
X2319D2*
X2375D1*
X637Y2265D2*
X781D1*
X943D2*
X1012D1*
X1092D2*
X1123D1*
X1453D2*
X1502D1*
X1825D2*
X1886D1*
X2322D2*
X2375D1*
X633Y2255D2*
X773D1*
X925D2*
X989D1*
X1092D2*
X1123D1*
X1454D2*
X1504D1*
X1829D2*
X1895D1*
X2012D2*
X2162D1*
X2326D2*
X2377D1*
X629Y2245D2*
X766D1*
X792D2*
D3*
X910D2*
X969D1*
X1092D2*
X1123D1*
X1457D2*
X1507D1*
X1833D2*
X1917D1*
X1929D2*
X2093D1*
X2329D2*
X2380D1*
X626Y2235D2*
X759D1*
X792D2*
D3*
X894D2*
X950D1*
X1092D2*
X1123D1*
X1460D2*
X1511D1*
X1837D2*
X2033D1*
X2331D2*
X2383D1*
X624Y2225D2*
X751D1*
X792D2*
D3*
X877D2*
X930D1*
X1092D2*
X1123D1*
X1282D2*
D3*
X1463D2*
X1515D1*
X1842D2*
X1983D1*
X2332D2*
X2386D1*
X623Y2215D2*
X744D1*
X791D2*
X792D1*
X860D2*
X908D1*
X1092D2*
X1123D1*
X1278D2*
X1292D1*
X1466D2*
X1520D1*
X1799D2*
X1941D1*
X2332D2*
X2389D1*
X623Y2205D2*
X738D1*
X788D2*
X792D1*
X844D2*
X886D1*
X1092D2*
X1124D1*
X1275D2*
X1342D1*
X1469D2*
X1525D1*
X1762D2*
X1902D1*
X2332D2*
X2391D1*
X623Y2195D2*
X733D1*
X786D2*
X792D1*
X826D2*
X866D1*
X1092D2*
X1127D1*
X1274D2*
X1341D1*
X1472D2*
X1529D1*
X1730D2*
X1909D1*
X2333D2*
X2392D1*
X622Y2185D2*
X729D1*
X784D2*
X797D1*
X805D2*
X847D1*
X1093D2*
X1129D1*
X1273D2*
X1336D1*
X1476D2*
X1532D1*
X1702D2*
X1801D1*
X1853D2*
X1914D1*
X2334D2*
X2392D1*
X621Y2175D2*
X725D1*
X782D2*
X830D1*
X1093D2*
X1131D1*
X1275D2*
X1330D1*
X1479D2*
X1536D1*
X1675D2*
X1778D1*
X1854D2*
X1920D1*
X2337D2*
X2392D1*
X618Y2165D2*
X719D1*
X779D2*
X815D1*
X1094D2*
X1132D1*
X1278D2*
X1321D1*
X1482D2*
X1542D1*
X1646D2*
X1755D1*
X1857D2*
X1926D1*
X2339D2*
X2392D1*
X616Y2155D2*
X713D1*
X769D2*
X802D1*
X1097D2*
X1134D1*
X1282D2*
X1312D1*
X1486D2*
X1549D1*
X1611D2*
X1730D1*
X1861D2*
X1933D1*
X2341D2*
X2393D1*
X614Y2145D2*
X706D1*
X757D2*
X797D1*
X1099D2*
X1136D1*
X1490D2*
X1565D1*
X1568D2*
X1703D1*
X1867D2*
X1939D1*
X2343D2*
X2394D1*
X613Y2135D2*
X698D1*
X745D2*
X752D1*
X782D2*
X795D1*
X1101D2*
X1139D1*
X1495D2*
X1675D1*
X1873D2*
X1944D1*
X2346D2*
X2397D1*
X613Y2125D2*
X692D1*
X733D2*
X742D1*
X782D2*
X793D1*
X1102D2*
X1141D1*
X1499D2*
X1649D1*
X1878D2*
X1948D1*
X2349D2*
X2399D1*
X613Y2115D2*
X687D1*
X723D2*
X732D1*
X782D2*
X793D1*
X1102D2*
X1143D1*
X1498D2*
X1626D1*
X1882D2*
X1951D1*
X2351D2*
X2401D1*
X613Y2105D2*
X686D1*
X713D2*
X721D1*
X782D2*
X793D1*
X1103D2*
X1146D1*
X1490D2*
X1606D1*
X1886D2*
X1954D1*
X2182D2*
X2192D1*
X2352D2*
X2403D1*
X613Y2095D2*
X688D1*
X702D2*
X708D1*
X782D2*
X793D1*
X1104D2*
X1149D1*
X1473D2*
X1591D1*
X1889D2*
X1958D1*
X2178D2*
X2192D1*
X2354D2*
X2406D1*
X612Y2085D2*
X696D1*
X782D2*
X793D1*
X1107D2*
X1151D1*
X1454D2*
X1580D1*
X1892D2*
X1963D1*
X2175D2*
X2242D1*
X2356D2*
X2409D1*
X612Y2075D2*
X685D1*
X782D2*
X792D1*
X1109D2*
X1153D1*
X1434D2*
X1577D1*
X1896D2*
X1969D1*
X2174D2*
X2237D1*
X2359D2*
X2411D1*
X611Y2065D2*
X675D1*
X782D2*
X792D1*
X1111D2*
X1156D1*
X1414D2*
X1578D1*
X1901D2*
X1975D1*
X2174D2*
X2231D1*
X2361D2*
X2412D1*
X608Y2055D2*
X667D1*
X782D2*
X792D1*
X1113D2*
X1159D1*
X1396D2*
X1493D1*
X1511D2*
X1582D1*
X1905D2*
X1980D1*
X2179D2*
X2224D1*
X2362D2*
X2413D1*
X604Y2045D2*
X661D1*
X782D2*
X792D1*
X952D2*
X962D1*
X1116D2*
X1162D1*
X1378D2*
X1475D1*
X1517D2*
X1587D1*
X1910D2*
X1986D1*
X2190D2*
X2214D1*
X2363D2*
X2414D1*
X600Y2035D2*
X655D1*
X782D2*
X792D1*
X951D2*
X962D1*
X1119D2*
X1166D1*
X1358D2*
X1457D1*
X1522D2*
X1593D1*
X1916D2*
X1992D1*
X2202D2*
D3*
X2364D2*
X2417D1*
X596Y2025D2*
X649D1*
X782D2*
X793D1*
X949D2*
X1022D1*
X1121D2*
X1169D1*
X1339D2*
X1438D1*
X1527D2*
X1598D1*
X1923D2*
X1997D1*
X2367D2*
X2419D1*
X593Y2015D2*
X643D1*
X782D2*
X793D1*
X948D2*
X1017D1*
X1122D2*
X1171D1*
X1321D2*
X1418D1*
X1533D2*
X1602D1*
X1929D2*
X2000D1*
X2369D2*
X2421D1*
X589Y2005D2*
X637D1*
X782D2*
X794D1*
X949D2*
X1012D1*
X1122D2*
X1172D1*
X1303D2*
X1398D1*
X1538D2*
X1606D1*
X1762D2*
X1772D1*
X1934D2*
X2004D1*
X2371D2*
X2422D1*
X586Y1995D2*
X633D1*
X782D2*
X797D1*
X952D2*
X1005D1*
X1122D2*
X1173D1*
X1287D2*
X1381D1*
X1542D2*
X1609D1*
X1759D2*
X1772D1*
X1940D2*
X2008D1*
X2372D2*
X2423D1*
X583Y1985D2*
X629D1*
X782D2*
X799D1*
X957D2*
X995D1*
X1123D2*
X1174D1*
X1272D2*
X1364D1*
X1546D2*
X1612D1*
X1754D2*
X1772D1*
X1945D2*
X2015D1*
X2373D2*
X2424D1*
X579Y1975D2*
X626D1*
X782D2*
X801D1*
X962D2*
X982D1*
X1124D2*
X1177D1*
X1254D2*
X1347D1*
X1550D2*
X1616D1*
X1749D2*
X1832D1*
X1949D2*
X2022D1*
X2374D2*
X2428D1*
X576Y1965D2*
X624D1*
X782D2*
X803D1*
X1127D2*
X1185D1*
X1234D2*
X1328D1*
X1555D2*
X1620D1*
X1742D2*
X1822D1*
X1953D2*
X2028D1*
X2377D2*
X2432D1*
X2472D2*
D3*
X574Y1955D2*
X622D1*
X783D2*
X806D1*
X1129D2*
X1197D1*
X1209D2*
X1309D1*
X1558D2*
X1625D1*
X1749D2*
X1812D1*
X1957D2*
X2034D1*
X2379D2*
X2422D1*
X2467D2*
X2472D1*
X573Y1945D2*
X619D1*
X783D2*
X809D1*
X1131D2*
X1292D1*
X1561D2*
X1629D1*
X1756D2*
X1802D1*
X1963D2*
X2040D1*
X2381D2*
X2427D1*
X2463D2*
X2474D1*
X571Y1935D2*
X616D1*
X784D2*
X811D1*
X1133D2*
X1277D1*
X1563D2*
X1632D1*
X1762D2*
X1792D1*
X1969D2*
X2045D1*
X2382D2*
X2430D1*
X2459D2*
X2477D1*
X568Y1925D2*
X616D1*
X787D2*
X812D1*
X1135D2*
X1262D1*
X1566D2*
X1636D1*
X1975D2*
X2050D1*
X2382D2*
X2433D1*
X2454D2*
X2479D1*
X564Y1915D2*
X617D1*
X789D2*
X814D1*
X1137D2*
X1247D1*
X1569D2*
X1641D1*
X1980D2*
X2055D1*
X2382D2*
X2437D1*
X2449D2*
X2481D1*
X560Y1905D2*
X619D1*
X791D2*
X816D1*
X1131D2*
X1235D1*
X1573D2*
X1647D1*
X1986D2*
X2059D1*
X2382D2*
X2482D1*
X557Y1895D2*
X621D1*
X792D2*
X819D1*
X1122D2*
X1226D1*
X1578D2*
X1653D1*
X1992D2*
X2062D1*
X2262D2*
X2282D1*
X2382D2*
X2482D1*
X554Y1885D2*
X672D1*
X792D2*
X823D1*
X1112D2*
X1219D1*
X1583D2*
X1659D1*
X1998D2*
X2066D1*
X2222D2*
X2242D1*
X2382D2*
X2482D1*
X552Y1875D2*
X669D1*
X792D2*
X826D1*
X1101D2*
X1219D1*
X1589D2*
X1664D1*
X2002D2*
X2071D1*
X2172D2*
X2211D1*
X2382D2*
X2482D1*
X549Y1865D2*
X664D1*
X792D2*
X829D1*
X1088D2*
X1221D1*
X1594D2*
X1668D1*
X2007D2*
X2076D1*
X2139D2*
X2181D1*
X2383D2*
X2482D1*
X546Y1855D2*
X658D1*
X793D2*
X832D1*
X1074D2*
X1223D1*
X1599D2*
X1671D1*
X2013D2*
X2082D1*
X2102D2*
X2154D1*
X2383D2*
X2482D1*
X543Y1845D2*
X582D1*
X602D2*
X651D1*
X793D2*
X836D1*
X1060D2*
X1131D1*
X1164D2*
X1226D1*
X1602D2*
X1673D1*
X2018D2*
X2132D1*
X2384D2*
X2482D1*
X539Y1835D2*
X581D1*
X622D2*
X642D1*
X794D2*
X839D1*
X1045D2*
X1117D1*
X1167D2*
X1229D1*
X1606D2*
X1677D1*
X2010D2*
X2116D1*
X2387D2*
X2482D1*
X536Y1825D2*
X578D1*
X797D2*
X841D1*
X1032D2*
X1102D1*
X1169D2*
X1231D1*
X1609D2*
X1681D1*
X1993D2*
X2111D1*
X2389D2*
X2482D1*
X534Y1815D2*
X576D1*
X799D2*
X842D1*
X1019D2*
X1087D1*
X1171D2*
X1233D1*
X1392D2*
D3*
X1612D2*
X1685D1*
X1973D2*
X2111D1*
X2391D2*
X2481D1*
X532Y1805D2*
X574D1*
X801D2*
X843D1*
X1006D2*
X1073D1*
X1172D2*
X1237D1*
X1389D2*
X1392D1*
X1616D2*
X1690D1*
X1951D2*
X2012D1*
X2054D2*
X2112D1*
X2392D2*
X2478D1*
X529Y1795D2*
X573D1*
X802D2*
X844D1*
X992D2*
X1059D1*
X1174D2*
X1241D1*
X1384D2*
X1392D1*
X1621D2*
X1696D1*
X1925D2*
X1992D1*
X2057D2*
X2114D1*
X2392D2*
X2476D1*
X526Y1785D2*
X573D1*
X804D2*
X847D1*
X977D2*
X1045D1*
X1177D2*
X1245D1*
X1379D2*
X1417D1*
X1442D2*
X1452D1*
X1627D2*
X1703D1*
X1898D2*
X1969D1*
X2061D2*
X2118D1*
X2392D2*
X2474D1*
X462Y1775D2*
D3*
X524D2*
X573D1*
X806D2*
X851D1*
X963D2*
X1030D1*
X1181D2*
X1250D1*
X1372D2*
X1448D1*
X1633D2*
X1709D1*
X1871D2*
X1945D1*
X2067D2*
X2124D1*
X2392D2*
X2472D1*
X461Y1765D2*
X462D1*
X522D2*
X572D1*
X809D2*
X855D1*
X951D2*
X1015D1*
X1185D2*
X1255D1*
X1379D2*
X1442D1*
X1639D2*
X1714D1*
X1847D2*
X1921D1*
X2073D2*
X2129D1*
X2252D2*
X2262D1*
X2392D2*
X2469D1*
X458Y1755D2*
X462D1*
X519D2*
X571D1*
X813D2*
X859D1*
X938D2*
X1000D1*
X1189D2*
X1259D1*
X1386D2*
X1433D1*
X1644D2*
X1718D1*
X1824D2*
X1900D1*
X2079D2*
X2135D1*
X2249D2*
X2262D1*
X2392D2*
X2466D1*
X455Y1745D2*
X462D1*
X516D2*
X568D1*
X816D2*
X864D1*
X925D2*
X985D1*
X1192D2*
X1263D1*
X1392D2*
X1422D1*
X1650D2*
X1722D1*
X1804D2*
X1881D1*
X2086D2*
X2140D1*
X2244D2*
X2262D1*
X2392D2*
X2464D1*
X452Y1735D2*
X467D1*
X514D2*
X566D1*
X819D2*
X870D1*
X910D2*
X971D1*
X1196D2*
X1267D1*
X1655D2*
X1727D1*
X1781D2*
X1862D1*
X2093D2*
X2147D1*
X2241D2*
X2322D1*
X2392D2*
X2461D1*
X449Y1725D2*
X470D1*
X513D2*
X564D1*
X822D2*
X885D1*
X892D2*
X957D1*
X1201D2*
X1273D1*
X1660D2*
X1743D1*
X1754D2*
X1843D1*
X2099D2*
X2154D1*
X2238D2*
X2314D1*
X2392D2*
X2457D1*
X446Y1715D2*
X473D1*
X513D2*
X563D1*
X592D2*
X602D1*
X826D2*
X943D1*
X1205D2*
X1277D1*
X1665D2*
X1822D1*
X2104D2*
X2161D1*
X2241D2*
X2305D1*
X2392D2*
X2452D1*
X443Y1705D2*
X476D1*
X513D2*
X561D1*
X592D2*
X602D1*
X829D2*
X928D1*
X1210D2*
X1280D1*
X1668D2*
X1802D1*
X2110D2*
X2167D1*
X2251D2*
X2294D1*
X2392D2*
X2448D1*
X439Y1695D2*
X479D1*
X513D2*
X559D1*
X593D2*
X602D1*
X831D2*
X916D1*
X1215D2*
X1282D1*
X1671D2*
X1784D1*
X2117D2*
X2170D1*
X2262D2*
X2282D1*
X2392D2*
X2445D1*
X436Y1685D2*
X481D1*
X512D2*
X556D1*
X593D2*
X602D1*
X831D2*
X906D1*
X1220D2*
X1284D1*
X1669D2*
X1767D1*
X2124D2*
X2173D1*
X2392D2*
X2443D1*
X434Y1675D2*
X484D1*
X512D2*
X554D1*
X594D2*
X603D1*
X831D2*
X898D1*
X1225D2*
X1287D1*
X1662D2*
X1752D1*
X2132D2*
X2177D1*
X2392D2*
X2443D1*
X433Y1665D2*
X489D1*
X511D2*
X553D1*
X597D2*
X603D1*
X825D2*
X896D1*
X1228D2*
X1291D1*
X1646D2*
X1759D1*
X2139D2*
X2182D1*
X2391D2*
X2443D1*
X432Y1655D2*
X500D1*
X507D2*
X553D1*
X599D2*
X604D1*
X814D2*
X897D1*
X1231D2*
X1297D1*
X1627D2*
X1766D1*
X2146D2*
X2189D1*
X2388D2*
X2443D1*
X431Y1645D2*
X553D1*
X601D2*
X607D1*
X802D2*
X900D1*
X1233D2*
X1303D1*
X1607D2*
X1772D1*
X2154D2*
X2197D1*
X2386D2*
X2442D1*
X428Y1635D2*
X552D1*
X602D2*
X609D1*
X792D2*
X901D1*
X1237D2*
X1309D1*
X1590D2*
X1671D1*
X1702D2*
X1777D1*
X2162D2*
X2203D1*
X2384D2*
X2442D1*
X426Y1625D2*
X551D1*
X602D2*
X611D1*
X782D2*
X812D1*
X841D2*
X904D1*
X1062D2*
D3*
X1241D2*
X1315D1*
X1574D2*
X1657D1*
X1710D2*
X1780D1*
X2169D2*
X2209D1*
X2383D2*
X2441D1*
X424Y1615D2*
X548D1*
X602D2*
X612D1*
X772D2*
X802D1*
X847D2*
X907D1*
X1054D2*
X1062D1*
X1245D2*
X1320D1*
X1558D2*
X1642D1*
X1716D2*
X1784D1*
X2176D2*
X2215D1*
X2383D2*
X2437D1*
X423Y1605D2*
X546D1*
X602D2*
X614D1*
X761D2*
X792D1*
X851D2*
X911D1*
X1049D2*
X1066D1*
X1249D2*
X1326D1*
X1540D2*
X1626D1*
X1720D2*
X1788D1*
X2183D2*
X2220D1*
X2383D2*
X2432D1*
X423Y1595D2*
X544D1*
X602D2*
X616D1*
X748D2*
X779D1*
X856D2*
X915D1*
X1045D2*
X1078D1*
X1102D2*
X1122D1*
X1253D2*
X1332D1*
X1522D2*
X1610D1*
X1723D2*
X1793D1*
X2191D2*
X2225D1*
X2383D2*
X2442D1*
X423Y1585D2*
X543D1*
X602D2*
X619D1*
X736D2*
X765D1*
X860D2*
X920D1*
X1044D2*
X1117D1*
X1257D2*
X1337D1*
X1504D2*
X1593D1*
X1728D2*
X1799D1*
X2200D2*
X2230D1*
X2383D2*
X2438D1*
X423Y1575D2*
X543D1*
X602D2*
X621D1*
X724D2*
X751D1*
X865D2*
X925D1*
X1045D2*
X1110D1*
X1263D2*
X1340D1*
X1487D2*
X1575D1*
X1735D2*
X1805D1*
X2022D2*
D3*
X2209D2*
X2235D1*
X2382D2*
X2435D1*
X424Y1565D2*
X543D1*
X602D2*
X622D1*
X713D2*
X738D1*
X869D2*
X930D1*
X1048D2*
X1102D1*
X1269D2*
X1343D1*
X1472D2*
X1558D1*
X1742D2*
X1810D1*
X2016D2*
X2022D1*
X2216D2*
X2240D1*
X2382D2*
X2434D1*
X427Y1555D2*
X543D1*
X603D2*
X622D1*
X702D2*
X726D1*
X872D2*
X935D1*
X1052D2*
X1092D1*
X1274D2*
X1347D1*
X1459D2*
X1542D1*
X1748D2*
X1815D1*
X2011D2*
X2034D1*
X2221D2*
X2245D1*
X2382D2*
X2433D1*
X429Y1545D2*
X543D1*
X603D2*
X622D1*
X691D2*
X714D1*
X876D2*
X940D1*
X1279D2*
X1351D1*
X1444D2*
X1527D1*
X1754D2*
X1820D1*
X2007D2*
X2048D1*
X2062D2*
X2082D1*
X2227D2*
X2248D1*
X2381D2*
X2433D1*
X431Y1535D2*
X542D1*
X604D2*
X622D1*
X678D2*
X702D1*
X881D2*
X945D1*
X1282D2*
X1357D1*
X1427D2*
X1511D1*
X1760D2*
X1826D1*
X2005D2*
X2078D1*
X2235D2*
X2251D1*
X2378D2*
X2432D1*
X432Y1525D2*
X542D1*
X607D2*
X622D1*
X666D2*
X689D1*
X885D2*
X948D1*
X1286D2*
X1367D1*
X1408D2*
X1494D1*
X1766D2*
X1832D1*
X2009D2*
X2072D1*
X2243D2*
X2272D1*
X2376D2*
X2431D1*
X434Y1515D2*
X542D1*
X609D2*
X622D1*
X654D2*
X676D1*
X890D2*
X951D1*
X1290D2*
X1379D1*
X1391D2*
X1477D1*
X1772D2*
X1838D1*
X2015D2*
X2067D1*
X2253D2*
X2276D1*
X2374D2*
X2428D1*
X436Y1505D2*
X542D1*
X611D2*
X622D1*
X642D2*
X663D1*
X895D2*
X953D1*
X1295D2*
X1462D1*
X1778D2*
X1842D1*
X2022D2*
X2062D1*
X2262D2*
X2279D1*
X2373D2*
X2426D1*
X439Y1495D2*
X542D1*
X611D2*
X651D1*
X898D2*
X957D1*
X1300D2*
X1448D1*
X1782D2*
X1846D1*
X2271D2*
X2282D1*
X2372D2*
X2424D1*
X441Y1485D2*
X542D1*
X610D2*
X641D1*
X901D2*
X961D1*
X1304D2*
X1434D1*
X1786D2*
X1851D1*
X2277D2*
X2285D1*
X2371D2*
X2423D1*
X443Y1475D2*
X542D1*
X603D2*
X637D1*
X903D2*
X967D1*
X1307D2*
X1420D1*
X1792D2*
X1856D1*
X2283D2*
X2291D1*
X2368D2*
X2423D1*
X447Y1465D2*
X543D1*
X594D2*
X638D1*
X906D2*
X973D1*
X1305D2*
X1406D1*
X1799D2*
X1863D1*
X2292D2*
X2297D1*
X2366D2*
X2422D1*
X451Y1455D2*
X543D1*
X585D2*
X592D1*
X622D2*
X640D1*
X909D2*
X979D1*
X1297D2*
X1392D1*
X1807D2*
X1869D1*
X2302D2*
D3*
X2364D2*
X2421D1*
X455Y1445D2*
X545D1*
X578D2*
X583D1*
X622D2*
X642D1*
X913D2*
X985D1*
X1287D2*
X1399D1*
X1815D2*
X1874D1*
X2312D2*
D3*
X2363D2*
X2418D1*
X458Y1435D2*
X553D1*
X572D2*
X573D1*
X622D2*
X644D1*
X916D2*
X990D1*
X1276D2*
X1404D1*
X1822D2*
X1880D1*
X2363D2*
X2416D1*
X461Y1425D2*
X565D1*
X622D2*
X647D1*
X921D2*
X995D1*
X1263D2*
X1410D1*
X1829D2*
X1885D1*
X2362D2*
X2414D1*
X464Y1415D2*
X559D1*
X622D2*
X651D1*
X925D2*
X1000D1*
X1248D2*
X1417D1*
X1834D2*
X1889D1*
X2361D2*
X2413D1*
X468Y1405D2*
X555D1*
X622D2*
X655D1*
X930D2*
X1005D1*
X1232D2*
X1311D1*
X1342D2*
X1424D1*
X1840D2*
X1893D1*
X2358D2*
X2411D1*
X473Y1395D2*
X554D1*
X623D2*
X658D1*
X935D2*
X1008D1*
X1216D2*
X1296D1*
X1352D2*
X1432D1*
X1845D2*
X1897D1*
X2356D2*
X2409D1*
X2452D2*
D3*
X479Y1385D2*
X553D1*
X623D2*
X661D1*
X782D2*
D3*
X940D2*
X1011D1*
X1201D2*
X1280D1*
X1361D2*
X1438D1*
X1850D2*
X1903D1*
X2282D2*
D3*
X2354D2*
X2406D1*
X2449D2*
X2452D1*
X484Y1375D2*
X553D1*
X624D2*
X663D1*
X774D2*
X782D1*
X945D2*
X1013D1*
X1187D2*
X1263D1*
X1368D2*
X1444D1*
X1856D2*
X1909D1*
X2262D2*
D3*
X2353D2*
X2404D1*
X2444D2*
X2452D1*
X489Y1365D2*
X553D1*
X627D2*
X666D1*
X769D2*
X805D1*
X948D2*
X1017D1*
X1174D2*
X1248D1*
X1374D2*
X1448D1*
X1863D2*
X1915D1*
X2242D2*
X2252D1*
X2351D2*
X2404D1*
X2439D2*
X2452D1*
X492Y1355D2*
X554D1*
X630D2*
X669D1*
X765D2*
X825D1*
X951D2*
X1021D1*
X1160D2*
X1234D1*
X1380D2*
X1452D1*
X1632D2*
D3*
X1869D2*
X1920D1*
X2222D2*
X2236D1*
X2348D2*
X2405D1*
X2433D2*
X2452D1*
X496Y1345D2*
X557D1*
X633D2*
X672D1*
X765D2*
X842D1*
X954D2*
X1027D1*
X1145D2*
X1219D1*
X1385D2*
X1456D1*
X1624D2*
X1642D1*
X1876D2*
X1926D1*
X2199D2*
X2218D1*
X2346D2*
X2413D1*
X2423D2*
X2451D1*
X499Y1335D2*
X559D1*
X636D2*
X676D1*
X769D2*
X831D1*
X958D2*
X1033D1*
X1129D2*
X1202D1*
X1390D2*
X1461D1*
X1619D2*
X1692D1*
X1883D2*
X1933D1*
X2175D2*
X2198D1*
X2342D2*
X2448D1*
X501Y1325D2*
X561D1*
X639D2*
X679D1*
X775D2*
X817D1*
X963D2*
X1039D1*
X1114D2*
X1185D1*
X1395D2*
X1467D1*
X1615D2*
X1687D1*
X1889D2*
X1939D1*
X2152D2*
X2180D1*
X2339D2*
X2446D1*
X502Y1315D2*
X562D1*
X641D2*
X681D1*
X782D2*
X802D1*
X969D2*
X1045D1*
X1099D2*
X1168D1*
X1400D2*
X1473D1*
X1615D2*
X1682D1*
X1894D2*
X1944D1*
X2131D2*
X2162D1*
X2336D2*
X2444D1*
X502Y1305D2*
X564D1*
X643D2*
X682D1*
X975D2*
X1050D1*
X1084D2*
X1152D1*
X1406D2*
X1479D1*
X1619D2*
X1676D1*
X1900D2*
X1949D1*
X2111D2*
X2146D1*
X2334D2*
X2443D1*
X502Y1295D2*
X566D1*
X646D2*
X684D1*
X980D2*
X1056D1*
X1069D2*
X1137D1*
X1413D2*
X1486D1*
X1630D2*
X1669D1*
X1907D2*
X1953D1*
X2090D2*
X2130D1*
X2333D2*
X2442D1*
X502Y1285D2*
X569D1*
X649D2*
X686D1*
X986D2*
X1122D1*
X1421D2*
X1492D1*
X1642D2*
X1662D1*
X1914D2*
X1957D1*
X2068D2*
X2113D1*
X2333D2*
X2441D1*
X503Y1275D2*
X571D1*
X652D2*
X689D1*
X992D2*
X1106D1*
X1429D2*
X1497D1*
X1923D2*
X1964D1*
X2045D2*
X2096D1*
X2332D2*
X2438D1*
X504Y1265D2*
X572D1*
X656D2*
X693D1*
X998D2*
X1092D1*
X1436D2*
X1502D1*
X1931D2*
X1971D1*
X2020D2*
X2080D1*
X2331D2*
X2435D1*
X507Y1255D2*
X572D1*
X659D2*
X696D1*
X998D2*
X1082D1*
X1443D2*
X1506D1*
X1938D2*
X1981D1*
X1992D2*
X2064D1*
X2328D2*
X2432D1*
X509Y1245D2*
X572D1*
X662D2*
X699D1*
X991D2*
X1079D1*
X1448D2*
X1511D1*
X1944D2*
X2048D1*
X2325D2*
X2429D1*
X511Y1235D2*
X573D1*
X666D2*
X702D1*
X981D2*
X1085D1*
X1452D2*
X1517D1*
X1949D2*
X2033D1*
X2322D2*
X2424D1*
X512Y1225D2*
X574D1*
X669D2*
X706D1*
X968D2*
X1092D1*
X1458D2*
X1524D1*
X1952D2*
X2020D1*
X2319D2*
X2418D1*
X512Y1215D2*
X581D1*
X672D2*
X710D1*
X954D2*
X1099D1*
X1465D2*
X1532D1*
X1929D2*
X2010D1*
X2316D2*
X2412D1*
X512Y1205D2*
X595D1*
X676D2*
X715D1*
X940D2*
X993D1*
X1022D2*
X1104D1*
X1473D2*
X1539D1*
X1909D2*
X2007D1*
X2313D2*
X2406D1*
X512Y1195D2*
X607D1*
X679D2*
X719D1*
X927D2*
X976D1*
X1031D2*
X1110D1*
X1481D2*
X1546D1*
X1892D2*
X1950D1*
X1972D2*
X2009D1*
X2309D2*
X2401D1*
X512Y1185D2*
X618D1*
X681D2*
X722D1*
X914D2*
X961D1*
X1038D2*
X1115D1*
X1488D2*
X1552D1*
X1876D2*
X1941D1*
X1982D2*
X2014D1*
X2306D2*
X2397D1*
X513Y1175D2*
X615D1*
X682D2*
X726D1*
X903D2*
X947D1*
X1044D2*
X1119D1*
X1494D2*
X1557D1*
X1859D2*
X1929D1*
X1990D2*
X2020D1*
X2303D2*
X2393D1*
X513Y1165D2*
X611D1*
X683D2*
X729D1*
X890D2*
X933D1*
X1050D2*
X1122D1*
X1499D2*
X1562D1*
X1842D2*
X1916D1*
X1997D2*
X2026D1*
X2192D2*
X2202D1*
X2299D2*
X2388D1*
X514Y1155D2*
X607D1*
X684D2*
X731D1*
X875D2*
X918D1*
X1055D2*
X1126D1*
X1504D2*
X1567D1*
X1822D2*
X1901D1*
X2002D2*
X2033D1*
X2184D2*
X2202D1*
X2294D2*
X2382D1*
X517Y1145D2*
X605D1*
X688D2*
X733D1*
X861D2*
X902D1*
X1059D2*
X1130D1*
X1511D2*
X1573D1*
X1803D2*
X1884D1*
X2008D2*
X2039D1*
X2178D2*
X2252D1*
X2290D2*
X2374D1*
X520Y1135D2*
X605D1*
X693D2*
X737D1*
X848D2*
X886D1*
X1063D2*
X1135D1*
X1292D2*
X1302D1*
X1520D2*
X1579D1*
X1786D2*
X1867D1*
X2015D2*
X2046D1*
X2176D2*
X2247D1*
X2287D2*
X2364D1*
X523Y1125D2*
X607D1*
X698D2*
X741D1*
X836D2*
X871D1*
X1067D2*
X1140D1*
X1289D2*
X1312D1*
X1528D2*
X1586D1*
X1769D2*
X1851D1*
X2023D2*
X2052D1*
X2179D2*
X2240D1*
X2284D2*
X2355D1*
X526Y1115D2*
X610D1*
X702D2*
X745D1*
X825D2*
X857D1*
X1073D2*
X1147D1*
X1286D2*
X1335D1*
X1535D2*
X1593D1*
X1752D2*
X1836D1*
X2031D2*
X2058D1*
X2187D2*
X2231D1*
X2283D2*
X2347D1*
X529Y1105D2*
X613D1*
X706D2*
X751D1*
X813D2*
X844D1*
X1079D2*
X1154D1*
X1284D2*
X1362D1*
X1542D2*
X1599D1*
X1736D2*
X1821D1*
X2039D2*
X2062D1*
X2199D2*
X2222D1*
X2281D2*
X2341D1*
X532Y1095D2*
X616D1*
X710D2*
X759D1*
X799D2*
X830D1*
X1086D2*
X1161D1*
X1284D2*
X1356D1*
X1549D2*
X1605D1*
X1719D2*
X1805D1*
X2046D2*
X2067D1*
X2212D2*
D3*
X2278D2*
X2337D1*
X536Y1085D2*
X619D1*
X715D2*
X775D1*
X782D2*
X817D1*
X1094D2*
X1167D1*
X1285D2*
X1349D1*
X1556D2*
X1610D1*
X1703D2*
X1789D1*
X2052D2*
X2073D1*
X2274D2*
X2333D1*
X539Y1075D2*
X621D1*
X720D2*
X805D1*
X1102D2*
X1170D1*
X1293D2*
X1341D1*
X1563D2*
X1617D1*
X1687D2*
X1771D1*
X2059D2*
X2079D1*
X2270D2*
X2329D1*
X541Y1065D2*
X622D1*
X725D2*
X798D1*
X1108D2*
X1173D1*
X1302D2*
X1332D1*
X1569D2*
X1628D1*
X1671D2*
X1754D1*
X2066D2*
X2085D1*
X2265D2*
X2325D1*
X543Y1055D2*
X624D1*
X728D2*
X772D1*
X1114D2*
X1177D1*
X1576D2*
X1644D1*
X1653D2*
X1738D1*
X2073D2*
X2090D1*
X2260D2*
X2320D1*
X547Y1045D2*
X628D1*
X730D2*
X777D1*
X1118D2*
X1182D1*
X1584D2*
X1724D1*
X2080D2*
X2096D1*
X2255D2*
X2315D1*
X551Y1035D2*
X633D1*
X726D2*
X783D1*
X1123D2*
X1189D1*
X1593D2*
X1711D1*
X2087D2*
X2102D1*
X2249D2*
X2310D1*
X555Y1025D2*
X638D1*
X719D2*
X787D1*
X1128D2*
X1197D1*
X1602D2*
X1697D1*
X2096D2*
X2108D1*
X2242D2*
X2305D1*
X559Y1015D2*
X642D1*
X711D2*
X722D1*
X744D2*
X791D1*
X1135D2*
X1203D1*
X1591D2*
X1684D1*
X2104D2*
X2112D1*
X2236D2*
X2300D1*
X562Y1005D2*
X646D1*
X702D2*
X711D1*
X747D2*
X793D1*
X1142D2*
X1209D1*
X1580D2*
X1677D1*
X2110D2*
X2117D1*
X2231D2*
X2295D1*
X566Y995D2*
X651D1*
X692D2*
X700D1*
X751D2*
X797D1*
X1149D2*
X1215D1*
X1569D2*
X1676D1*
X2117D2*
X2123D1*
X2227D2*
X2290D1*
X569Y985D2*
X656D1*
X682D2*
X690D1*
X755D2*
X801D1*
X1156D2*
X1220D1*
X1557D2*
X1679D1*
X2125D2*
X2128D1*
X2223D2*
X2286D1*
X571Y975D2*
X663D1*
X682D2*
X683D1*
X760D2*
X805D1*
X1162D2*
X1225D1*
X1542D2*
X1685D1*
X2133D2*
X2132D1*
X2219D2*
X2283D1*
X572Y965D2*
X678D1*
X766D2*
X810D1*
X1169D2*
X1230D1*
X1526D2*
X1616D1*
X1639D2*
X1692D1*
X1912D2*
D3*
X2143D2*
X2152D1*
X2214D2*
X2279D1*
X574Y955D2*
X679D1*
X773D2*
X815D1*
X1174D2*
X1235D1*
X1513D2*
X1595D1*
X1652D2*
X1699D1*
X1904D2*
X1912D1*
X2153D2*
X2152D1*
X2210D2*
X2274D1*
X577Y945D2*
X680D1*
X779D2*
X820D1*
X1180D2*
X1240D1*
X1502D2*
X1578D1*
X1661D2*
X1706D1*
X1899D2*
X1921D1*
X2162D2*
D3*
X2205D2*
X2270D1*
X581Y935D2*
X683D1*
X784D2*
X825D1*
X1186D2*
X1245D1*
X1490D2*
X1563D1*
X1669D2*
X1712D1*
X1895D2*
X1931D1*
X1952D2*
X1972D1*
X2199D2*
X2265D1*
X585Y925D2*
X687D1*
X789D2*
X830D1*
X1193D2*
X1250D1*
X1478D2*
X1549D1*
X1676D2*
X1717D1*
X1894D2*
X1968D1*
X2192D2*
X2260D1*
X589Y915D2*
X692D1*
X793D2*
X835D1*
X982D2*
D3*
X1199D2*
X1257D1*
X1464D2*
X1534D1*
X1684D2*
X1722D1*
X1893D2*
X1962D1*
X2186D2*
X2255D1*
X593Y905D2*
X699D1*
X797D2*
X840D1*
X974D2*
X982D1*
X1206D2*
X1264D1*
X1450D2*
X1519D1*
X1693D2*
X1728D1*
X1893D2*
X1957D1*
X2180D2*
X2248D1*
X597Y895D2*
X707D1*
X803D2*
X845D1*
X969D2*
X997D1*
X1012D2*
X1042D1*
X1214D2*
X1271D1*
X1437D2*
X1503D1*
X1702D2*
X1735D1*
X1892D2*
X1952D1*
X2175D2*
X2241D1*
X603Y885D2*
X715D1*
X809D2*
X850D1*
X965D2*
X1037D1*
X1221D2*
X1277D1*
X1424D2*
X1488D1*
X1711D2*
X1743D1*
X2170D2*
X2234D1*
X609Y875D2*
X722D1*
X816D2*
X855D1*
X965D2*
X1032D1*
X1227D2*
X1282D1*
X1414D2*
X1475D1*
X1718D2*
X1751D1*
X2165D2*
X2228D1*
X614Y865D2*
X727D1*
X823D2*
X860D1*
X969D2*
X1026D1*
X1232D2*
X1286D1*
X1404D2*
X1463D1*
X1724D2*
X1759D1*
X2158D2*
X2223D1*
X619Y855D2*
X730D1*
X829D2*
X867D1*
X975D2*
X1019D1*
X1238D2*
X1291D1*
X1393D2*
X1452D1*
X1730D2*
X1766D1*
X2151D2*
X2219D1*
X624Y845D2*
X732D1*
X835D2*
X874D1*
X982D2*
X1012D1*
X1245D2*
X1297D1*
X1381D2*
X1439D1*
X1738D2*
X1772D1*
X2142D2*
X2213D1*
X632Y835D2*
X762D1*
X840D2*
X882D1*
X1253D2*
X1304D1*
X1368D2*
X1424D1*
X1748D2*
X1779D1*
X2133D2*
X2206D1*
X641Y825D2*
X768D1*
X846D2*
X888D1*
X1262D2*
X1312D1*
X1357D2*
X1409D1*
X1759D2*
X1786D1*
X2124D2*
X2198D1*
X650Y815D2*
X777D1*
X853D2*
X894D1*
X1271D2*
X1319D1*
X1348D2*
X1396D1*
X1769D2*
X1793D1*
X2118D2*
X2190D1*
X658Y805D2*
X789D1*
X802D2*
X822D1*
X859D2*
X898D1*
X1277D2*
X1325D1*
X1340D2*
X1384D1*
X1776D2*
X1799D1*
X2113D2*
X2183D1*
X666Y795D2*
X819D1*
X866D2*
X903D1*
X1281D2*
X1373D1*
X1782D2*
X1806D1*
X2106D2*
X2177D1*
X674Y785D2*
X817D1*
X874D2*
X908D1*
X1285D2*
X1363D1*
X1789D2*
X1814D1*
X2096D2*
X2172D1*
X683Y775D2*
X815D1*
X883D2*
X915D1*
X1288D2*
X1353D1*
X1799D2*
X1823D1*
X2085D2*
X2165D1*
X691Y765D2*
X819D1*
X891D2*
X922D1*
X1286D2*
X1342D1*
X1810D2*
X1831D1*
X2075D2*
X2158D1*
X699Y755D2*
X825D1*
X897D2*
X929D1*
X1283D2*
X1349D1*
X1821D2*
X1837D1*
X2067D2*
X2150D1*
X706Y745D2*
X832D1*
X902D2*
X936D1*
X1277D2*
X1356D1*
X1830D2*
X1842D1*
X2059D2*
X2141D1*
X714Y735D2*
X841D1*
X908D2*
X943D1*
X1269D2*
X1302D1*
X1322D2*
X1364D1*
X1837D2*
X1849D1*
X2049D2*
X2132D1*
X723Y725D2*
X850D1*
X916D2*
X949D1*
X1258D2*
X1291D1*
X1331D2*
X1373D1*
X1843D2*
X1857D1*
X2038D2*
X2122D1*
X733Y715D2*
X861D1*
X927D2*
X956D1*
X1248D2*
X1278D1*
X1338D2*
X1381D1*
X1582D2*
X1592D1*
X1852D2*
X1866D1*
X2026D2*
X2113D1*
X743Y705D2*
X872D1*
X937D2*
X963D1*
X1240D2*
X1266D1*
X1346D2*
X1386D1*
X1574D2*
X1592D1*
X1861D2*
X1874D1*
X2016D2*
X2104D1*
X753Y695D2*
X882D1*
X945D2*
X969D1*
X1234D2*
X1255D1*
X1354D2*
X1390D1*
X1569D2*
X1652D1*
X1871D2*
X1881D1*
X2007D2*
X2097D1*
X762Y685D2*
X891D1*
X951D2*
X976D1*
X1228D2*
X1245D1*
X1363D2*
X1393D1*
X1565D2*
X1646D1*
X1881D2*
X1887D1*
X1999D2*
X2089D1*
X772Y675D2*
X900D1*
X957D2*
X984D1*
X1220D2*
X1237D1*
X1371D2*
X1398D1*
X1565D2*
X1639D1*
X1888D2*
X1890D1*
X1989D2*
X2081D1*
X782Y665D2*
X912D1*
X965D2*
X993D1*
X1210D2*
X1229D1*
X1378D2*
X1405D1*
X1569D2*
X1631D1*
X1896D2*
X1892D1*
X1977D2*
X2071D1*
X792Y655D2*
X924D1*
X975D2*
X1003D1*
X1200D2*
X1219D1*
X1386D2*
X1413D1*
X1575D2*
X1622D1*
X1904D2*
X1902D1*
X1963D2*
X2061D1*
X804Y645D2*
X937D1*
X987D2*
X1012D1*
X1190D2*
X1208D1*
X1392D2*
X1421D1*
X1582D2*
X1612D1*
X1911D2*
X1912D1*
X1948D2*
X2048D1*
X817Y635D2*
X948D1*
X999D2*
X1021D1*
X1182D2*
X1196D1*
X1399D2*
X1429D1*
X1916D2*
X2036D1*
X828Y625D2*
X959D1*
X1011D2*
X1028D1*
X1176D2*
X1186D1*
X1406D2*
X1436D1*
X1914D2*
X2024D1*
X838Y615D2*
X972D1*
X1022D2*
X1036D1*
X1171D2*
X1177D1*
X1414D2*
X1442D1*
X1906D2*
X2014D1*
X847Y605D2*
X987D1*
X1033D2*
X1046D1*
X1166D2*
X1169D1*
X1423D2*
X1449D1*
X1893D2*
X2005D1*
X860Y595D2*
X1003D1*
X1044D2*
X1057D1*
X1162D2*
X1161D1*
X1432D2*
X1454D1*
X1878D2*
X1993D1*
X874Y585D2*
X1019D1*
X1057D2*
X1069D1*
X1142D2*
X1152D1*
X1441D2*
X1460D1*
X1861D2*
X1980D1*
X888Y575D2*
X1034D1*
X1071D2*
X1081D1*
X1142D2*
X1143D1*
X1272D2*
D3*
X1448D2*
X1465D1*
X1845D2*
X1966D1*
X901Y565D2*
X1049D1*
X1085D2*
X1092D1*
X1132D2*
X1135D1*
X1266D2*
X1282D1*
X1455D2*
X1470D1*
X1829D2*
X1953D1*
X913Y555D2*
X1063D1*
X1098D2*
X1102D1*
X1122D2*
X1128D1*
X1261D2*
X1284D1*
X1463D2*
X1477D1*
X1811D2*
X1939D1*
X927Y545D2*
X1082D1*
X1111D2*
X1126D1*
X1257D2*
X1288D1*
X1302D2*
X1332D1*
X1469D2*
X1484D1*
X1791D2*
X1924D1*
X941Y535D2*
X1105D1*
X1122D2*
X1130D1*
X1255D2*
X1327D1*
X1477D2*
X1491D1*
X1768D2*
X1908D1*
X957Y525D2*
X1141D1*
X1259D2*
X1320D1*
X1486D2*
X1497D1*
X1743D2*
X1891D1*
X974Y515D2*
X1157D1*
X1265D2*
X1312D1*
X1494D2*
X1502D1*
X1719D2*
X1873D1*
X992Y505D2*
X1176D1*
X1272D2*
X1302D1*
X1500D2*
X1507D1*
X1694D2*
X1856D1*
X1009Y495D2*
X1202D1*
X1507D2*
X1514D1*
X1665D2*
X1839D1*
X1026Y485D2*
X1238D1*
X1514D2*
X1533D1*
X1625D2*
X1820D1*
X1046Y475D2*
X1290D1*
X1522D2*
X1563D1*
X1569D2*
X1800D1*
X1067Y465D2*
X1358D1*
X1512D2*
X1777D1*
X1089Y455D2*
X1753D1*
X1111Y445D2*
X1730D1*
X1133Y435D2*
X1707D1*
X1156Y425D2*
X1681D1*
X1184Y415D2*
X1651D1*
X1223Y405D2*
X1610D1*
X1278Y395D2*
X1555D1*
X1342Y385D2*
X1492D1*
X2512Y4535D2*
X2492Y4525D2*
X2479Y4515D1*
X2466Y4505D1*
X2454Y4495D1*
X2442Y4485D1*
X2430Y4475D1*
X2416Y4465D1*
X2403Y4455D1*
X2392Y4445D1*
X2381Y4435D1*
X2368Y4425D1*
X2356Y4415D1*
X2344Y4405D1*
X2333Y4395D1*
X2321Y4385D1*
X2309Y4375D1*
X2297Y4365D1*
X2287Y4355D1*
X2276Y4345D1*
X2265Y4335D1*
X2254Y4325D1*
X2243Y4315D1*
X2234Y4305D1*
X2225Y4295D1*
X2215Y4285D1*
X2204Y4275D1*
X2194Y4265D1*
X2185Y4255D1*
X2177Y4245D1*
X2169Y4235D1*
X2159Y4225D1*
X2148Y4215D1*
X2136Y4205D1*
X2126Y4195D1*
X2119Y4185D1*
X2113Y4175D1*
X2106Y4165D1*
X2096Y4155D1*
X2085Y4145D1*
X2076Y4135D1*
X2069Y4125D1*
X2063Y4115D1*
X2056Y4105D1*
X2047Y4095D1*
X2037Y4085D1*
X2028Y4075D1*
X2020Y4065D1*
X2013Y4055D1*
X2006Y4045D1*
X1999Y4035D1*
X1992Y4025D1*
X1986Y4015D1*
X1979Y4005D1*
X1971Y3995D1*
X1963Y3985D1*
X1957Y3975D1*
X1951Y3965D1*
X1945Y3955D1*
X1939Y3945D1*
X1932Y3935D1*
X1926Y3925D1*
X1919Y3915D1*
X1911Y3905D1*
X1904Y3895D1*
X1898Y3885D1*
X1895Y3875D1*
X1892Y3865D1*
X1887Y3855D1*
X1880Y3845D1*
X1873Y3835D1*
X1867Y3825D1*
X1861Y3815D1*
X1855Y3805D1*
X1850Y3795D1*
X1846Y3785D1*
X1843Y3775D1*
X1839Y3765D1*
X1834Y3755D1*
X1830Y3745D1*
X1825Y3735D1*
X1819Y3725D1*
X1812Y3715D1*
X1806Y3705D1*
X1801Y3695D1*
X1797Y3685D1*
X1793Y3675D1*
X1789Y3665D1*
X1786Y3655D1*
X1784Y3645D1*
X1782Y3635D1*
X1778Y3625D1*
X1774Y3615D1*
X1770Y3605D1*
X1765Y3595D1*
X1760Y3585D1*
X1756Y3575D1*
X1753Y3565D1*
X1749Y3555D1*
X1745Y3545D1*
X1740Y3535D1*
X1736Y3525D1*
X1730Y3515D1*
X1722Y3505D1*
X1712Y3495D1*
X2502Y4525D2*
X2497Y4515D1*
X2490Y4505D1*
X2482Y4495D1*
X2474Y4485D1*
X2466Y4475D1*
X2459Y4465D1*
X2453Y4455D1*
X2446Y4445D1*
X2441Y4435D1*
X2435Y4425D1*
X2430Y4415D1*
X2423Y4405D1*
X2416Y4395D1*
X2408Y4385D1*
X2402Y4375D1*
X2397Y4365D1*
X2394Y4355D1*
X2391Y4345D1*
X2387Y4335D1*
X2382Y4325D1*
X2376Y4315D1*
X2370Y4305D1*
X2365Y4295D1*
X2359Y4285D1*
X2352Y4275D1*
X2346Y4265D1*
X2341Y4255D1*
X2337Y4245D1*
X2334Y4235D1*
X2331Y4225D1*
X2327Y4215D1*
X2322Y4205D1*
X2317Y4195D1*
X2313Y4185D1*
X2309Y4175D1*
X2305Y4165D1*
X2300Y4155D1*
X2295Y4145D1*
X2290Y4135D1*
X2287Y4125D1*
X2284Y4115D1*
X2283Y4105D1*
X2281Y4095D1*
X2277Y4085D1*
X2271Y4075D1*
X2266Y4065D1*
X2261Y4055D1*
X2256Y4045D1*
X2253Y4035D1*
X2249Y4025D1*
X2244Y4015D1*
X2240Y4005D1*
X2235Y3995D1*
X2230Y3985D1*
X2227Y3975D1*
X2224Y3965D1*
X2223Y3955D1*
X2221Y3945D1*
X2219Y3935D1*
X2215Y3925D1*
X2212Y3915D1*
X2207Y3905D1*
X2202Y3895D1*
X2197Y3885D1*
X2193Y3875D1*
X2189Y3865D1*
X2186Y3855D1*
X2183Y3845D1*
X2179Y3835D1*
X2176Y3825D1*
X2174Y3815D1*
X2173Y3805D1*
X2171Y3795D1*
X2168Y3785D1*
X2164Y3775D1*
X2160Y3765D1*
X2156Y3755D1*
X2153Y3745D1*
X2149Y3735D1*
X2146Y3725D1*
X2143Y3715D1*
X2139Y3705D1*
X2134Y3695D1*
X2130Y3685D1*
X2126Y3675D1*
X2123Y3665D1*
X2119Y3655D1*
X2116Y3645D1*
X2114Y3635D1*
X2113Y3625D1*
X2111Y3615D1*
X2108Y3605D1*
X2104Y3595D1*
X2100Y3585D1*
X2097Y3575D1*
X2094Y3565D1*
X2092Y3555D1*
X2088Y3545D1*
X2084Y3535D1*
X2080Y3525D1*
X2076Y3515D1*
X2073Y3505D1*
X2069Y3495D1*
X2066Y3485D1*
X2064Y3475D1*
X2063Y3465D1*
X2061Y3455D1*
X2059Y3445D1*
X2056Y3435D1*
X2054Y3425D1*
X2052Y3415D1*
X2049Y3405D1*
X2045Y3395D1*
X2042Y3385D1*
X2382Y4395D2*
X2372Y4385D1*
X2362Y4375D1*
X2352Y4365D1*
X2342Y4355D1*
X2332Y4345D1*
X2342Y4335D1*
X2402Y4395D2*
X2393Y4385D1*
X2383Y4375D1*
X2374Y4365D1*
X2368Y4355D1*
X2362Y4345D1*
X2322Y4335D2*
X2313Y4325D1*
X2303Y4315D1*
X2294Y4305D1*
X2286Y4295D1*
X2277Y4285D1*
X2267Y4275D1*
X2255Y4265D1*
X2244Y4255D1*
X2235Y4245D1*
X2228Y4235D1*
X2223Y4225D1*
X2216Y4215D1*
X2206Y4205D1*
X2195Y4195D1*
X2185Y4185D1*
X2177Y4175D1*
X2171Y4165D1*
X2163Y4155D1*
X2154Y4145D1*
X2144Y4135D1*
X2134Y4125D1*
X2125Y4115D1*
X2118Y4105D1*
X2112Y4095D1*
X2104Y4085D1*
X2095Y4075D1*
X2087Y4065D1*
X2080Y4055D1*
X2073Y4045D1*
X2066Y4035D1*
X2059Y4025D1*
X2051Y4015D1*
X2042Y4005D1*
X2034Y3995D1*
X2026Y3985D1*
X2019Y3975D1*
X2013Y3965D1*
X2006Y3955D1*
X2001Y3945D1*
X1995Y3935D1*
X1988Y3925D1*
X1981Y3915D1*
X1972Y3905D1*
X1964Y3895D1*
X1958Y3885D1*
X1953Y3875D1*
X1948Y3865D1*
X1942Y3855D1*
X1936Y3845D1*
X1929Y3835D1*
X1921Y3825D1*
X1913Y3815D1*
X1907Y3805D1*
X1901Y3795D1*
X1895Y3785D1*
X1890Y3775D1*
X1885Y3765D1*
X1880Y3755D1*
X1875Y3745D1*
X1870Y3735D1*
X1865Y3725D1*
X1859Y3715D1*
X1853Y3705D1*
X1847Y3695D1*
X1843Y3685D1*
X1839Y3675D1*
X1834Y3665D1*
X1829Y3655D1*
X1822Y3645D1*
X1816Y3635D1*
X1810Y3625D1*
X1805Y3615D1*
X1800Y3605D1*
X1795Y3595D1*
X1790Y3585D1*
X1787Y3575D1*
X1784Y3565D1*
X1782Y3555D1*
X1778Y3545D1*
X1774Y3535D1*
X1770Y3525D1*
X1765Y3515D1*
X1760Y3505D1*
X1755Y3495D1*
X1750Y3485D1*
X1746Y3475D1*
X1743Y3465D1*
X1739Y3455D1*
X1735Y3445D1*
X1730Y3435D1*
X1727Y3425D1*
X1724Y3415D1*
X1723Y3405D1*
X1721Y3395D1*
X1719Y3385D1*
X1716Y3375D1*
X1712Y3365D1*
X1709Y3355D1*
X1706Y3345D1*
X1703Y3335D1*
X1699Y3325D1*
X1696Y3315D1*
X1694Y3305D1*
X1692Y3295D1*
X1689Y3285D1*
X1686Y3275D1*
X1682Y3265D1*
X1679Y3255D1*
X1676Y3245D1*
X1674Y3235D1*
X1673Y3225D1*
Y3215D1*
Y3205D1*
Y3195D1*
Y3185D1*
X1672Y3175D1*
Y3165D1*
X1671Y3155D1*
X1668Y3145D1*
X1666Y3135D1*
X1664Y3125D1*
X1663Y3115D1*
Y3105D1*
Y3095D1*
X1662Y3085D1*
X2352Y4335D2*
X2344Y4325D1*
X2338Y4315D1*
X2333Y4305D1*
X2328Y4295D1*
X2322Y4285D1*
X2316Y4275D1*
X2310Y4265D1*
X2305Y4255D1*
X2300Y4245D1*
X2295Y4235D1*
X2290Y4225D1*
X2287Y4215D1*
X2284Y4205D1*
X2282Y4195D1*
X2278Y4185D1*
X2274Y4175D1*
X2270Y4165D1*
X2265Y4155D1*
X2260Y4145D1*
X2255Y4135D1*
X2250Y4125D1*
X2246Y4115D1*
X2243Y4105D1*
X2239Y4095D1*
X2235Y4085D1*
X2230Y4075D1*
X2227Y4065D1*
X2224Y4055D1*
X2222Y4045D1*
X2219Y4035D1*
X2216Y4025D1*
X2213Y4015D1*
X2209Y4005D1*
X2206Y3995D1*
X2203Y3985D1*
X2199Y3975D1*
X2194Y3965D1*
X2190Y3955D1*
X2186Y3945D1*
X2183Y3935D1*
X2179Y3925D1*
X2176Y3915D1*
X2174Y3905D1*
X2173Y3895D1*
X2172Y3885D1*
X2171Y3875D1*
X2168Y3865D1*
X2164Y3855D1*
X2160Y3845D1*
X2156Y3835D1*
X2153Y3825D1*
X2149Y3815D1*
X2146Y3805D1*
X2143Y3795D1*
X2139Y3785D1*
X2136Y3775D1*
X2133Y3765D1*
X2129Y3755D1*
X2126Y3745D1*
X2123Y3735D1*
X2119Y3725D1*
X2116Y3715D1*
X2114Y3705D1*
X2113Y3695D1*
X2112Y3685D1*
X2111Y3675D1*
X2108Y3665D1*
X2104Y3655D1*
X2100Y3645D1*
X2097Y3635D1*
X2094Y3625D1*
X2092Y3615D1*
X2088Y3605D1*
X2084Y3595D1*
X2080Y3585D1*
X2077Y3575D1*
X2074Y3565D1*
X2072Y3555D1*
X2069Y3545D1*
X2066Y3535D1*
X2064Y3525D1*
X2063Y3515D1*
X2062Y3505D1*
X2061Y3495D1*
X2058Y3485D1*
X2054Y3475D1*
X2050Y3465D1*
X2047Y3455D1*
X2044Y3445D1*
X2042Y3435D1*
X2038Y3425D1*
X2034Y3415D1*
X2030Y3405D1*
X2027Y3395D1*
X2024Y3385D1*
X2022Y3375D1*
X2018Y3365D1*
X2014Y3355D1*
X2010Y3345D1*
X2007Y3335D1*
X2004Y3325D1*
X2003Y3315D1*
X2002Y3305D1*
X2001Y3295D1*
X1998Y3285D1*
X1995Y3275D1*
X1992Y3265D1*
X1989Y3255D1*
X1986Y3245D1*
X1984Y3235D1*
X1982Y3225D1*
X1978Y3215D1*
X1974Y3205D1*
X1970Y3195D1*
X1966Y3185D1*
X1963Y3175D1*
X1959Y3165D1*
X1956Y3155D1*
X1954Y3145D1*
X1953Y3135D1*
X1952Y3125D1*
X1951Y3115D1*
X1948Y3105D1*
X1944Y3095D1*
X1940Y3085D1*
X1936Y3075D1*
X1933Y3065D1*
X1929Y3055D1*
X1925Y3045D1*
X1920Y3035D1*
X1916Y3025D1*
X1913Y3015D1*
X1909Y3005D1*
X1906Y2995D1*
X1903Y2985D1*
X1899Y2975D1*
X1896Y2965D1*
X1894Y2955D1*
X1893Y2945D1*
X1891Y2935D1*
X1888Y2925D1*
X1884Y2915D1*
X1880Y2905D1*
X1875Y2895D1*
X1870Y2885D1*
X1866Y2875D1*
X1862Y2865D1*
X1858Y2855D1*
X1852Y2845D1*
X1848Y2835D1*
X1845Y2825D1*
X1843Y2815D1*
X1841Y2805D1*
X1837Y2795D1*
X1831Y2785D1*
X1826Y2775D1*
X1820Y2765D1*
X1815Y2755D1*
X1810Y2745D1*
X1805Y2735D1*
X1799Y2725D1*
X1792Y2715D1*
X1252Y4145D2*
X1256Y4135D1*
X1258Y4125D1*
X1256Y4115D1*
X1252Y4105D1*
X1257Y4095D1*
X1260Y4085D1*
X1261Y4075D1*
X1262Y4065D1*
Y4055D1*
Y4045D1*
X1263Y4035D1*
Y4025D1*
X1264Y4015D1*
X1267Y4005D1*
X1269Y3995D1*
X1271Y3985D1*
X1272Y3975D1*
Y3965D1*
X1273Y3955D1*
X1274Y3945D1*
X1277Y3935D1*
X1279Y3925D1*
X1281Y3915D1*
X1282Y3905D1*
Y3895D1*
Y3885D1*
Y3875D1*
Y3865D1*
Y3855D1*
X1283Y3845D1*
Y3835D1*
X1284Y3825D1*
X1287Y3815D1*
X1289Y3805D1*
X1291Y3795D1*
X1293Y3785D1*
X1296Y3775D1*
X1299Y3765D1*
X1301Y3755D1*
X1302Y3745D1*
X1304Y3735D1*
X1306Y3725D1*
X1309Y3715D1*
X1311Y3705D1*
X1313Y3695D1*
X1316Y3685D1*
X1319Y3675D1*
X1321Y3665D1*
X1323Y3655D1*
X1326Y3645D1*
X1329Y3635D1*
X1332Y3625D1*
X1336Y3615D1*
X1339Y3605D1*
X1341Y3595D1*
X1342Y3585D1*
X1343Y3575D1*
X1344Y3565D1*
X1347Y3555D1*
X1349Y3545D1*
X1353Y3535D1*
X1356Y3525D1*
X1361Y3515D1*
X1365Y3505D1*
X1369Y3495D1*
X1372Y3485D1*
X1376Y3475D1*
X1380Y3465D1*
X1385Y3455D1*
X1388Y3445D1*
X1391Y3435D1*
X1392Y3425D1*
X1394Y3415D1*
X1397Y3405D1*
X1401Y3395D1*
X1405Y3385D1*
X1410Y3375D1*
X1415Y3365D1*
X1420Y3355D1*
X1425Y3345D1*
X1430Y3335D1*
X1435Y3325D1*
X1440Y3315D1*
X1445Y3305D1*
X1449Y3295D1*
X1453Y3285D1*
X1457Y3275D1*
X1462Y3265D1*
X1467Y3255D1*
X1465Y3245D1*
X1462Y3235D1*
X1262Y4135D2*
X1274Y4125D1*
X1284Y4115D1*
X1295Y4105D1*
X1307Y4095D1*
X1319Y4085D1*
X1329Y4075D1*
X1338Y4065D1*
X1346Y4055D1*
X1356Y4045D1*
X1367Y4035D1*
X1378Y4025D1*
X1387Y4015D1*
X1395Y4005D1*
X1404Y3995D1*
X1413Y3985D1*
X1424Y3975D1*
X1435Y3965D1*
X1443Y3955D1*
X1450Y3945D1*
X1457Y3935D1*
X1465Y3925D1*
X1475Y3915D1*
X1485Y3905D1*
X1494Y3895D1*
X1500Y3885D1*
X1506Y3875D1*
X1513Y3865D1*
X1521Y3855D1*
X1529Y3845D1*
X1537Y3835D1*
X1545Y3825D1*
X1552Y3815D1*
X1557Y3805D1*
X1562Y3795D1*
X1568Y3785D1*
X1574Y3775D1*
X1582Y3765D1*
X1588Y3755D1*
X1594Y3745D1*
X1600Y3735D1*
X1605Y3725D1*
X1610Y3715D1*
X1615Y3705D1*
X1620Y3695D1*
X1625Y3685D1*
X1630Y3675D1*
X1636Y3665D1*
X1643Y3655D1*
X1649Y3645D1*
X1654Y3635D1*
X1660Y3625D1*
X1665Y3615D1*
X1668Y3605D1*
X1671Y3595D1*
X1673Y3585D1*
X1677Y3575D1*
X1681Y3565D1*
X1685Y3555D1*
X1690Y3545D1*
X1695Y3535D1*
X1699Y3525D1*
X1704Y3515D1*
X1713Y3505D1*
X1722Y3495D1*
X1282Y4085D2*
Y4075D1*
Y4065D1*
Y4055D1*
Y4045D1*
Y4035D1*
Y4025D1*
Y4015D1*
Y4005D1*
X1283Y3995D1*
Y3985D1*
X1284Y3975D1*
X1287Y3965D1*
X1289Y3955D1*
X1291Y3945D1*
X1292Y3935D1*
X1294Y3925D1*
X1296Y3915D1*
X1299Y3905D1*
X1301Y3895D1*
X1302Y3885D1*
X1304Y3875D1*
X1306Y3865D1*
X1309Y3855D1*
X1311Y3845D1*
X1312Y3835D1*
X1314Y3825D1*
X1316Y3815D1*
X1319Y3805D1*
X1321Y3795D1*
X1323Y3785D1*
X1326Y3775D1*
X1329Y3765D1*
X1331Y3755D1*
X1332Y3745D1*
X1334Y3735D1*
X1336Y3725D1*
X1339Y3715D1*
X1341Y3705D1*
X1342Y3695D1*
Y3685D1*
X1343Y3675D1*
X1344Y3665D1*
X1347Y3655D1*
X1349Y3645D1*
X1351Y3635D1*
X1353Y3625D1*
X1356Y3615D1*
X1359Y3605D1*
X1362Y3595D1*
X1366Y3585D1*
X1369Y3575D1*
X1371Y3565D1*
X1373Y3555D1*
X1377Y3545D1*
X1381Y3535D1*
X1385Y3525D1*
X1388Y3515D1*
X1391Y3505D1*
X1392Y3495D1*
X1393Y3485D1*
X1394Y3475D1*
X1397Y3465D1*
X1399Y3455D1*
X1403Y3445D1*
X1406Y3435D1*
X1409Y3425D1*
X1412Y3415D1*
X1416Y3405D1*
X1420Y3395D1*
X1425Y3385D1*
X1429Y3375D1*
X1433Y3365D1*
X1437Y3355D1*
X1443Y3345D1*
X1447Y3335D1*
X1450Y3325D1*
X1452Y3315D1*
X1454Y3305D1*
X1457Y3295D1*
X1461Y3285D1*
X1465Y3275D1*
X1470Y3265D1*
X1475Y3255D1*
X1480Y3245D1*
X1485Y3235D1*
X1490Y3225D1*
X1495Y3215D1*
X1500Y3205D1*
X1507Y3195D1*
X1514Y3185D1*
X1524Y3175D1*
X1534Y3165D1*
X1545Y3155D1*
X1553Y3145D1*
X1560Y3135D1*
X1567Y3125D1*
X1575Y3115D1*
X1583Y3105D1*
X1592Y3095D1*
X1601Y3085D1*
X1608Y3075D1*
X1614Y3065D1*
X1620Y3055D1*
X1627Y3045D1*
X1634Y3035D1*
X1643Y3025D1*
X1651Y3015D1*
X1658Y3005D1*
X1664Y2995D1*
X1669Y2985D1*
X1674Y2975D1*
X1680Y2965D1*
X1687Y2955D1*
X1694Y2945D1*
X1699Y2935D1*
X1705Y2925D1*
X1710Y2915D1*
X1715Y2905D1*
X1719Y2895D1*
X1722Y2885D1*
X1726Y2875D1*
X1731Y2865D1*
X1736Y2855D1*
X1742Y2845D1*
X1292Y4085D2*
X1302Y4075D1*
X1312Y4065D1*
X1322Y4055D1*
X1331Y4045D1*
X1340Y4035D1*
X1350Y4025D1*
X1361Y4015D1*
X1371Y4005D1*
X1380Y3995D1*
X1388Y3985D1*
X1396Y3975D1*
X1404Y3965D1*
X1413Y3955D1*
X1423Y3945D1*
X1432Y3935D1*
X1441Y3925D1*
X1447Y3915D1*
X1453Y3905D1*
X1460Y3895D1*
X1467Y3885D1*
X1475Y3875D1*
X1482Y3865D1*
X1489Y3855D1*
X1494Y3845D1*
X1500Y3835D1*
X1506Y3825D1*
X1513Y3815D1*
X1519Y3805D1*
X1525Y3795D1*
X1530Y3785D1*
X1537Y3775D1*
X1544Y3765D1*
X1551Y3755D1*
X1557Y3745D1*
X1560Y3735D1*
X1563Y3725D1*
X1568Y3715D1*
X1573Y3705D1*
X1579Y3695D1*
X1585Y3685D1*
X1590Y3675D1*
X1595Y3665D1*
X1600Y3655D1*
X1605Y3645D1*
X1608Y3635D1*
X1611Y3625D1*
X1612Y3615D1*
X1614Y3605D1*
X1618Y3595D1*
X1623Y3585D1*
X1628Y3575D1*
X1632Y3565D1*
X1636Y3555D1*
X1639Y3545D1*
X1643Y3535D1*
X1647Y3525D1*
X1653Y3515D1*
X1657Y3505D1*
X1661Y3495D1*
X1663Y3485D1*
X1666Y3475D1*
X1669Y3465D1*
X1671Y3455D1*
X1672Y3445D1*
X1674Y3435D1*
X1676Y3425D1*
X1679Y3415D1*
X1683Y3405D1*
X1686Y3395D1*
X1689Y3385D1*
X1691Y3375D1*
X1692Y3365D1*
Y3355D1*
Y3345D1*
Y3335D1*
X1691Y3325D1*
X1688Y3315D1*
X1686Y3305D1*
X1684Y3295D1*
X1681Y3285D1*
X1677Y3275D1*
X1672Y3265D1*
X2172Y4065D2*
Y4045D2*
X2162Y4035D2*
X2153Y4025D1*
X2144Y4015D1*
X2137Y4005D1*
X2130Y3995D1*
X2123Y3985D1*
X2116Y3975D1*
X2111Y3965D1*
X2105Y3955D1*
X2099Y3945D1*
X2092Y3935D1*
X2086Y3925D1*
X2079Y3915D1*
X2072Y3905D1*
X2066Y3895D1*
X2061Y3885D1*
X2055Y3875D1*
X2050Y3865D1*
X2043Y3855D1*
X2036Y3845D1*
X2028Y3835D1*
X2020Y3825D1*
X2013Y3815D1*
X2008Y3805D1*
X2003Y3795D1*
X1999Y3785D1*
X1994Y3775D1*
X1989Y3765D1*
X1982Y3755D1*
X1976Y3745D1*
X1970Y3735D1*
X1965Y3725D1*
X1960Y3715D1*
X1956Y3705D1*
X1953Y3695D1*
X1949Y3685D1*
X1944Y3675D1*
X1938Y3665D1*
X1932Y3655D1*
X1926Y3645D1*
X1920Y3635D1*
X1915Y3625D1*
X1910Y3615D1*
X1905Y3605D1*
X1900Y3595D1*
X1897Y3585D1*
X1894Y3575D1*
X1892Y3565D1*
X1888Y3555D1*
X1884Y3545D1*
X1880Y3535D1*
X1875Y3525D1*
X1870Y3515D1*
X1866Y3505D1*
X1863Y3495D1*
X1859Y3485D1*
X1855Y3475D1*
X1850Y3465D1*
X1847Y3455D1*
X1844Y3445D1*
X1843Y3435D1*
X1841Y3425D1*
X1838Y3415D1*
X1834Y3405D1*
X1830Y3395D1*
X1827Y3385D1*
X1824Y3375D1*
X1822Y3365D1*
X1818Y3355D1*
X1814Y3345D1*
X1810Y3335D1*
X1807Y3325D1*
X1804Y3315D1*
X1802Y3305D1*
X1799Y3295D1*
X1796Y3285D1*
X1793Y3275D1*
X1789Y3265D1*
X1786Y3255D1*
X1784Y3245D1*
X1783Y3235D1*
Y3225D1*
Y3215D1*
X1782Y3205D1*
Y3195D1*
X1781Y3185D1*
X1778Y3175D1*
X1776Y3165D1*
X1774Y3155D1*
X1773Y3145D1*
X1771Y3135D1*
X1769Y3125D1*
X1766Y3115D1*
X1764Y3105D1*
X1763Y3095D1*
Y3085D1*
Y3075D1*
X1762Y3065D1*
X1761Y3055D1*
X1758Y3045D1*
X1756Y3035D1*
X1754Y3025D1*
X1753Y3015D1*
Y3005D1*
Y2995D1*
Y2985D1*
Y2975D1*
X1752Y2965D1*
Y2955D1*
Y2945D1*
Y2935D1*
Y2925D1*
Y2915D1*
Y2905D1*
Y2895D1*
Y2885D1*
Y2875D1*
X1751Y2865D1*
X1747Y2855D1*
X1742Y2845D1*
X2162Y4025D2*
X2154Y4015D1*
X2147Y4005D1*
X2139Y3995D1*
X2133Y3985D1*
X2126Y3975D1*
X2121Y3965D1*
X2117Y3955D1*
X2113Y3945D1*
X2109Y3935D1*
X2104Y3925D1*
X2100Y3915D1*
X2095Y3905D1*
X2088Y3895D1*
X2081Y3885D1*
X2074Y3875D1*
X2068Y3865D1*
X2065Y3855D1*
X2062Y3845D1*
X2057Y3835D1*
X2052Y3825D1*
X2046Y3815D1*
X2040Y3805D1*
X2035Y3795D1*
X2029Y3785D1*
X2022Y3775D1*
X2016Y3765D1*
X2011Y3755D1*
X2007Y3745D1*
X2004Y3735D1*
X2001Y3725D1*
X1997Y3715D1*
X1992Y3705D1*
X1986Y3695D1*
X1981Y3685D1*
X1976Y3675D1*
X1972Y3665D1*
X1968Y3655D1*
X1962Y3645D1*
X1958Y3635D1*
X1954Y3625D1*
X1952Y3615D1*
X1948Y3605D1*
X1944Y3595D1*
X1940Y3585D1*
X1935Y3575D1*
X1930Y3565D1*
X1926Y3555D1*
X1922Y3545D1*
X1918Y3535D1*
X1912Y3525D1*
X1907Y3515D1*
X1903Y3505D1*
X1899Y3495D1*
X1896Y3485D1*
X1894Y3475D1*
X1892Y3465D1*
X1889Y3455D1*
X1886Y3445D1*
X1882Y3435D1*
X1879Y3425D1*
X1876Y3415D1*
X1873Y3405D1*
X1869Y3395D1*
X1864Y3385D1*
X1860Y3375D1*
X1857Y3365D1*
X1854Y3355D1*
X1852Y3345D1*
X1849Y3335D1*
X1846Y3325D1*
X1844Y3315D1*
X1843Y3305D1*
X1842Y3295D1*
X1841Y3285D1*
X1838Y3275D1*
X1836Y3265D1*
X1834Y3255D1*
X1832Y3245D1*
X1829Y3235D1*
X1826Y3225D1*
X1824Y3215D1*
X1822Y3205D1*
X1819Y3195D1*
X1816Y3185D1*
X1814Y3175D1*
X1813Y3165D1*
X1811Y3155D1*
X1809Y3145D1*
X1806Y3135D1*
X1804Y3125D1*
X1803Y3115D1*
X1802Y3105D1*
X1801Y3095D1*
X1798Y3085D1*
X1796Y3075D1*
X1794Y3065D1*
X1793Y3055D1*
Y3045D1*
Y3035D1*
Y3025D1*
X1792Y3015D1*
Y3005D1*
X1791Y2995D1*
X1788Y2985D1*
X1786Y2975D1*
X1784Y2965D1*
X1783Y2955D1*
Y2945D1*
Y2935D1*
Y2925D1*
Y2915D1*
X1782Y2905D1*
Y2895D1*
Y2885D1*
Y2875D1*
Y2865D1*
Y2855D1*
Y2845D1*
Y2835D1*
Y2825D1*
Y2815D1*
Y2805D1*
Y2795D1*
Y2785D1*
Y2775D1*
Y2765D1*
X1783Y2755D1*
Y2745D1*
X1784Y2735D1*
X1788Y2725D1*
X1792Y2715D1*
X1372Y3935D2*
X1377Y3925D1*
X1382Y3915D1*
X1385Y3905D1*
X1389Y3895D1*
X1391Y3885D1*
X1393Y3875D1*
X1397Y3865D1*
X1401Y3855D1*
X1405Y3845D1*
X1410Y3835D1*
X1415Y3825D1*
X1420Y3815D1*
X1425Y3805D1*
X1429Y3795D1*
X1433Y3785D1*
X1437Y3775D1*
X1443Y3765D1*
X1447Y3755D1*
X1450Y3745D1*
X1452Y3735D1*
X1453Y3725D1*
X1454Y3715D1*
X1458Y3705D1*
X1463Y3695D1*
X1468Y3685D1*
X1472Y3675D1*
X1476Y3665D1*
X1480Y3655D1*
X1485Y3645D1*
X1490Y3635D1*
X1495Y3625D1*
X1498Y3615D1*
X1501Y3605D1*
X1503Y3595D1*
X1507Y3585D1*
X1511Y3575D1*
X1515Y3565D1*
X1519Y3555D1*
X1522Y3545D1*
X1526Y3535D1*
X1531Y3525D1*
X1535Y3515D1*
X1540Y3505D1*
X1545Y3495D1*
X1549Y3485D1*
X1552Y3475D1*
X1556Y3465D1*
X1559Y3455D1*
X1561Y3445D1*
X1563Y3435D1*
X1566Y3425D1*
X1569Y3415D1*
X1573Y3405D1*
X1576Y3395D1*
X1580Y3385D1*
X1585Y3375D1*
X1589Y3365D1*
X1592Y3355D1*
X1596Y3345D1*
X1600Y3335D1*
X1605Y3325D1*
X1608Y3315D1*
X1611Y3305D1*
X1612Y3295D1*
X1613Y3285D1*
X1614Y3275D1*
X1617Y3265D1*
X1619Y3255D1*
X1621Y3245D1*
X1623Y3235D1*
X1626Y3225D1*
X1629Y3215D1*
X1632Y3205D1*
X1636Y3195D1*
X1639Y3185D1*
X1641Y3175D1*
X1643Y3165D1*
X1646Y3155D1*
X1649Y3145D1*
X1651Y3135D1*
X1653Y3125D1*
X1656Y3115D1*
X1659Y3105D1*
X1661Y3095D1*
X1662Y3085D1*
X1392Y3905D2*
X1396Y3895D1*
X1401Y3885D1*
X1405Y3875D1*
X1410Y3865D1*
X1416Y3855D1*
X1423Y3845D1*
X1429Y3835D1*
X1436Y3825D1*
X1442Y3815D1*
X1447Y3805D1*
X1452Y3795D1*
X1456Y3785D1*
X1460Y3775D1*
X1465Y3765D1*
X1470Y3755D1*
X1475Y3745D1*
X1480Y3735D1*
X1486Y3725D1*
X1492Y3715D1*
X1497Y3705D1*
X1500Y3695D1*
X1503Y3685D1*
X1507Y3675D1*
X1511Y3665D1*
X1515Y3655D1*
X1520Y3645D1*
X1525Y3635D1*
X1530Y3625D1*
X1535Y3615D1*
X1540Y3605D1*
X1545Y3595D1*
X1550Y3585D1*
X1555Y3575D1*
X1558Y3565D1*
X1561Y3555D1*
X1563Y3545D1*
X1567Y3535D1*
X1571Y3525D1*
X1575Y3515D1*
X1579Y3505D1*
X1582Y3495D1*
X1586Y3485D1*
X1591Y3475D1*
X1595Y3465D1*
X1600Y3455D1*
X1605Y3445D1*
X1608Y3435D1*
X1611Y3425D1*
X1612Y3415D1*
X1614Y3405D1*
X1616Y3395D1*
X1619Y3385D1*
X1623Y3375D1*
X1626Y3365D1*
X1631Y3355D1*
X1635Y3345D1*
X1639Y3335D1*
X1642Y3325D1*
X1646Y3315D1*
X1649Y3305D1*
X1653Y3295D1*
X1659Y3285D1*
X1670Y3275D1*
X1682Y3265D1*
X2502Y3605D2*
X2442Y3595D1*
X2390Y3585D1*
X2350Y3575D1*
X2320Y3565D1*
X2295Y3555D1*
X2272Y3545D1*
X2251Y3535D1*
X2230Y3525D1*
X2212Y3515D1*
X2195Y3505D1*
X2181Y3495D1*
X2167Y3485D1*
X2152Y3475D1*
X2137Y3465D1*
X2124Y3455D1*
X2113Y3445D1*
X2102Y3435D1*
X2092Y3425D1*
X2082Y3415D1*
X2071Y3405D1*
X2057Y3395D1*
X2042Y3385D1*
X2682Y3605D2*
X2753Y3595D1*
X2815Y3585D1*
X2865Y3575D1*
X2905Y3565D1*
X2939Y3555D1*
X2971Y3545D1*
X3003Y3535D1*
X3030Y3525D1*
X3048Y3515D1*
X3062Y3505D1*
X3034Y3495D1*
X3007Y3485D1*
X2980Y3475D1*
X2952Y3465D1*
X2921Y3455D1*
X2889Y3445D1*
X2859Y3435D1*
X2832Y3425D1*
X2807Y3415D1*
X2781Y3405D1*
X2753Y3395D1*
X2724Y3385D1*
X2697Y3375D1*
X2672Y3365D1*
X2648Y3355D1*
X2625Y3345D1*
X2598Y3335D1*
X2572Y3325D1*
X2547Y3315D1*
X2524Y3305D1*
X2502Y3295D1*
X2479Y3285D1*
X2455Y3275D1*
X2431Y3265D1*
X2408Y3255D1*
X2387Y3245D1*
X2366Y3235D1*
X2347Y3225D1*
X2328Y3215D1*
X2307Y3205D1*
X2285Y3195D1*
X2264Y3185D1*
X2242Y3175D1*
X2252Y3165D1*
X792Y3585D2*
X799Y3575D1*
X806Y3565D1*
X813Y3555D1*
X819Y3545D1*
X826Y3535D1*
X832Y3525D1*
X837Y3515D1*
X842Y3505D1*
X846Y3495D1*
X851Y3485D1*
X857Y3475D1*
X865Y3465D1*
X873Y3455D1*
X882Y3445D1*
X891Y3435D1*
X897Y3425D1*
X902Y3415D1*
X908Y3405D1*
X915Y3395D1*
X923Y3385D1*
X932Y3375D1*
X941Y3365D1*
X947Y3355D1*
X953Y3345D1*
X962Y3335D1*
X971Y3325D1*
X981Y3315D1*
X991Y3305D1*
X998Y3295D1*
X1006Y3285D1*
X1014Y3275D1*
X1023Y3265D1*
X1033Y3255D1*
X1042Y3245D1*
X1051Y3235D1*
X1057Y3225D1*
X1063Y3215D1*
X1072Y3205D1*
X1081Y3195D1*
X1092Y3185D1*
X1102Y3175D1*
X1111Y3165D1*
X1120Y3155D1*
X1130Y3145D1*
X1141Y3135D1*
X1151Y3125D1*
X1160Y3115D1*
X1169Y3105D1*
X1177Y3095D1*
X1188Y3085D1*
X1200Y3075D1*
X1211Y3065D1*
X1220Y3055D1*
X1229Y3045D1*
X1237Y3035D1*
X1248Y3025D1*
X1259Y3015D1*
X1269Y3005D1*
X1278Y2995D1*
X1286Y2985D1*
X1294Y2975D1*
X1305Y2965D1*
X1316Y2955D1*
X1328Y2945D1*
X1339Y2935D1*
X1350Y2925D1*
X1362Y2915D1*
X1338Y2905D1*
X1315Y2895D1*
X1296Y2885D1*
X1278Y2875D1*
X1261Y2865D1*
X1244Y2855D1*
X1225Y2845D1*
X1206Y2835D1*
X1190Y2825D1*
X1176Y2815D1*
X1163Y2805D1*
X1151Y2795D1*
X1138Y2785D1*
X1124Y2775D1*
X1110Y2765D1*
X1097Y2755D1*
X1085Y2745D1*
X1074Y2735D1*
X1063Y2725D1*
X1049Y2715D1*
X1032Y2705D1*
X842Y3585D2*
X872Y3575D1*
X901Y3565D1*
X929Y3555D1*
X957Y3545D1*
X986Y3535D1*
X1014Y3525D1*
X1038Y3515D1*
X1061Y3505D1*
X1081Y3495D1*
X1101Y3485D1*
X1121Y3475D1*
X1142Y3465D1*
X1163Y3455D1*
X1183Y3445D1*
X1201Y3435D1*
X1217Y3425D1*
X1233Y3415D1*
X1250Y3405D1*
X1266Y3395D1*
X1281Y3385D1*
X1295Y3375D1*
X1310Y3365D1*
X1325Y3355D1*
X1340Y3345D1*
X1355Y3335D1*
X1368Y3325D1*
X1379Y3315D1*
X1390Y3305D1*
X1401Y3295D1*
X1415Y3285D1*
X1428Y3275D1*
X1439Y3265D1*
X1447Y3255D1*
X1455Y3245D1*
X1462Y3235D1*
X2582Y3595D2*
X2572Y3585D1*
X2602Y3595D2*
X2612Y3585D1*
X2622Y3595D2*
X2632Y3585D1*
X2652Y3595D2*
X2662Y3585D1*
X2472D2*
X2444Y3575D1*
X2417Y3565D1*
X2389Y3555D1*
X2363Y3545D1*
X2336Y3535D1*
X2311Y3525D1*
X2287Y3515D1*
X2265Y3505D1*
X2245Y3495D1*
X2229Y3485D1*
X2213Y3475D1*
X2198Y3465D1*
X2181Y3455D1*
X2164Y3445D1*
X2148Y3435D1*
X2135Y3425D1*
X2123Y3415D1*
X2110Y3405D1*
X2095Y3395D1*
X2081Y3385D1*
X2070Y3375D1*
X2060Y3365D1*
X2051Y3355D1*
X2041Y3345D1*
X2030Y3335D1*
X2021Y3325D1*
X2017Y3315D1*
X2019Y3305D1*
X2022Y3295D1*
X2752Y3585D2*
X2792Y3575D1*
X2829Y3565D1*
X2862Y3555D1*
X2892Y3545D1*
X2921Y3535D1*
X2949Y3525D1*
X2972Y3515D1*
X2992Y3505D1*
X2969Y3495D1*
X2943Y3485D1*
X2915Y3475D1*
X2884Y3465D1*
X2854Y3455D1*
X2826Y3445D1*
X2800Y3435D1*
X2774Y3425D1*
X2747Y3415D1*
X2719Y3405D1*
X2691Y3395D1*
X2665Y3385D1*
X2640Y3375D1*
X2616Y3365D1*
X2591Y3355D1*
X2564Y3345D1*
X2537Y3335D1*
X2512Y3325D1*
X2488Y3315D1*
X2465Y3305D1*
X2441Y3295D1*
X2415Y3285D1*
X2389Y3275D1*
X2366Y3265D1*
X2344Y3255D1*
X2323Y3245D1*
X2302Y3235D1*
X2280Y3225D1*
X2256Y3215D1*
X2232Y3205D1*
X2210Y3195D1*
X2190Y3185D1*
X2170Y3175D1*
X2150Y3165D1*
X2128Y3155D1*
X2106Y3145D1*
X2086Y3135D1*
X2067Y3125D1*
X2049Y3115D1*
X2029Y3105D1*
X2007Y3095D1*
X1984Y3085D1*
X1958Y3075D1*
X1932Y3065D1*
X2582Y3545D2*
X2519Y3535D1*
X2465Y3525D1*
X2421Y3515D1*
X2387Y3505D1*
X2359Y3495D1*
X2335Y3485D1*
X2310Y3475D1*
X2285Y3465D1*
X2261Y3455D1*
X2240Y3445D1*
X2221Y3435D1*
X2203Y3425D1*
X2185Y3415D1*
X2167Y3405D1*
X2149Y3395D1*
X2134Y3385D1*
X2121Y3375D1*
X2109Y3365D1*
X2096Y3355D1*
X2083Y3345D1*
X2070Y3335D1*
X2057Y3325D1*
X2043Y3315D1*
X2028Y3305D1*
X2012Y3295D1*
X2752Y3545D2*
X2812Y3535D1*
X2742Y3525D1*
X832Y3545D2*
X842Y3535D1*
X852Y3525D1*
X862Y3515D1*
X872Y3505D1*
X882Y3495D1*
X891Y3485D1*
X900Y3475D1*
X910Y3465D1*
X921Y3455D1*
X931Y3445D1*
X940Y3435D1*
X949Y3425D1*
X957Y3415D1*
X968Y3405D1*
X980Y3395D1*
X991Y3385D1*
X1000Y3375D1*
X1008Y3365D1*
X1016Y3355D1*
X1024Y3345D1*
X1033Y3335D1*
X1042Y3325D1*
X1051Y3315D1*
X1059Y3305D1*
X1068Y3295D1*
X1078Y3285D1*
X1090Y3275D1*
X1101Y3265D1*
X1110Y3255D1*
X1118Y3245D1*
X1126Y3235D1*
X1136Y3225D1*
X1147Y3215D1*
X1157Y3205D1*
X1165Y3195D1*
X1171Y3185D1*
X1178Y3175D1*
X1186Y3165D1*
X1197Y3155D1*
X1209Y3145D1*
X1219Y3135D1*
X1228Y3125D1*
X1236Y3115D1*
X1246Y3105D1*
X1257Y3095D1*
X1268Y3085D1*
X1277Y3075D1*
X1285Y3065D1*
X1294Y3055D1*
X1303Y3045D1*
X1313Y3035D1*
X1322Y3025D1*
X1331Y3015D1*
X1338Y3005D1*
X1346Y2995D1*
X1354Y2985D1*
X1364Y2975D1*
X1375Y2965D1*
X1385Y2955D1*
X1394Y2945D1*
X1403Y2935D1*
X1413Y2925D1*
X1424Y2915D1*
X1435Y2905D1*
X1445Y2895D1*
X1454Y2885D1*
X1463Y2875D1*
X1473Y2865D1*
X1483Y2855D1*
X1494Y2845D1*
X1507Y2835D1*
X1519Y2825D1*
X1531Y2815D1*
X1542Y2805D1*
X1552Y2795D1*
X1562Y2785D1*
X1573Y2775D1*
X1584Y2765D1*
X1595Y2755D1*
X1605Y2745D1*
X1615Y2735D1*
X1625Y2725D1*
X1638Y2715D1*
X1652Y2705D1*
X1663Y2695D1*
X1674Y2685D1*
X1684Y2675D1*
X1695Y2665D1*
X1709Y2655D1*
X1725Y2645D1*
X1742Y2635D1*
X872Y3545D2*
X899Y3535D1*
X929Y3525D1*
X959Y3515D1*
X986Y3505D1*
X1011Y3495D1*
X1034Y3485D1*
X1055Y3475D1*
X1076Y3465D1*
X1097Y3455D1*
X1119Y3445D1*
X1139Y3435D1*
X1156Y3425D1*
X1172Y3415D1*
X1189Y3405D1*
X1207Y3395D1*
X1224Y3385D1*
X1240Y3375D1*
X1255Y3365D1*
X1268Y3355D1*
X1280Y3345D1*
X1295Y3335D1*
X1311Y3325D1*
X1325Y3315D1*
X1337Y3305D1*
X1349Y3295D1*
X1362Y3285D1*
X1375Y3275D1*
X1389Y3265D1*
X1401Y3255D1*
X1412Y3245D1*
X1422Y3235D1*
X1432Y3225D1*
X1442Y3215D1*
X1452Y3205D1*
X1462Y3195D1*
X1472Y3185D1*
X1482Y3175D1*
X1491Y3165D1*
X1500Y3155D1*
X1510Y3145D1*
X1521Y3135D1*
X1532Y3125D1*
X1542Y3115D1*
X1551Y3105D1*
X1558Y3095D1*
X1566Y3085D1*
X1574Y3075D1*
X1583Y3065D1*
X1592Y3055D1*
X1601Y3045D1*
X1608Y3035D1*
X1615Y3025D1*
X1622Y3015D1*
X1629Y3005D1*
X1636Y2995D1*
X1643Y2985D1*
X1649Y2975D1*
X1656Y2965D1*
X1662Y2955D1*
X1667Y2945D1*
X1672Y2935D1*
X1676Y2925D1*
X1681Y2915D1*
X1686Y2905D1*
X1693Y2895D1*
X1699Y2885D1*
X1704Y2875D1*
X1710Y2865D1*
X1715Y2855D1*
X1718Y2845D1*
X1721Y2835D1*
X1723Y2825D1*
X1726Y2815D1*
X1729Y2805D1*
X1731Y2795D1*
X1733Y2785D1*
X1736Y2775D1*
X1739Y2765D1*
X1741Y2755D1*
X1743Y2745D1*
X1746Y2735D1*
X1749Y2725D1*
X1751Y2715D1*
X1752Y2705D1*
Y2695D1*
Y2685D1*
Y2675D1*
X1751Y2665D1*
X1746Y2655D1*
X1735Y2645D1*
X1722Y2635D1*
X2642Y3525D2*
X2595Y3515D1*
X2551Y3505D1*
X2511Y3495D1*
X2477Y3485D1*
X2445Y3475D1*
X2413Y3465D1*
X2381Y3455D1*
X2351Y3445D1*
X2326Y3435D1*
X2304Y3425D1*
X2283Y3415D1*
X2263Y3405D1*
X2243Y3395D1*
X2223Y3385D1*
X2205Y3375D1*
X2189Y3365D1*
X2174Y3355D1*
X2160Y3345D1*
X2145Y3335D1*
X2129Y3325D1*
X2116Y3315D1*
X2104Y3305D1*
X2091Y3295D1*
X2079Y3285D1*
X2066Y3275D1*
X2054Y3265D1*
X2042Y3255D1*
X2029Y3245D1*
X2018Y3235D1*
X2008Y3225D1*
X2000Y3215D1*
X1992Y3205D1*
X1984Y3195D1*
X1978Y3185D1*
X1975Y3175D1*
X1972Y3165D1*
X1968Y3155D1*
X1964Y3145D1*
X1960Y3135D1*
X1957Y3125D1*
X1954Y3115D1*
X1953Y3105D1*
X1951Y3095D1*
X1948Y3085D1*
X1945Y3075D1*
X1942Y3065D1*
X1102Y3325D2*
X1115Y3315D1*
X1128Y3305D1*
X1142Y3295D1*
X1157Y3285D1*
X1173Y3275D1*
X1188Y3265D1*
X1201Y3255D1*
X1214Y3245D1*
X1225Y3235D1*
X1235Y3225D1*
X1246Y3215D1*
X1259Y3205D1*
X1272Y3195D1*
X1283Y3185D1*
X1293Y3175D1*
X1303Y3165D1*
X1314Y3155D1*
X1327Y3145D1*
X1339Y3135D1*
X1351Y3125D1*
X1362Y3115D1*
X1372Y3105D1*
X1382Y3095D1*
X1392Y3085D1*
X1402Y3075D1*
X1411Y3065D1*
X1418Y3055D1*
X1426Y3045D1*
X1434Y3035D1*
X1443Y3025D1*
X1452Y3015D1*
X1461Y3005D1*
X1468Y2995D1*
X1476Y2985D1*
X1484Y2975D1*
X1492Y2965D1*
X1499Y2955D1*
X1506Y2945D1*
X1512Y2935D1*
X1519Y2925D1*
X1526Y2915D1*
X1534Y2905D1*
X1543Y2895D1*
X1551Y2885D1*
X1557Y2875D1*
X1561Y2865D1*
X1566Y2855D1*
X1571Y2845D1*
X1577Y2835D1*
X1584Y2825D1*
X1592Y2815D1*
X1598Y2805D1*
X1604Y2795D1*
X1610Y2785D1*
X1616Y2775D1*
X1622Y2765D1*
X1112Y3325D2*
X1132Y3315D2*
X1152Y3305D1*
X1171Y3295D1*
X1192Y3285D1*
X1212Y3275D1*
X1229Y3265D1*
X1244Y3255D1*
X1258Y3245D1*
X1271Y3235D1*
X1285Y3225D1*
X1300Y3215D1*
X1316Y3205D1*
X1329Y3195D1*
X1341Y3185D1*
X1352Y3175D1*
X1364Y3165D1*
X1375Y3155D1*
X1385Y3145D1*
X1394Y3135D1*
X1403Y3125D1*
X1413Y3115D1*
X1424Y3105D1*
X1435Y3095D1*
X1445Y3085D1*
X1454Y3075D1*
X1463Y3065D1*
X1473Y3055D1*
X1482Y3045D1*
X1491Y3035D1*
X1498Y3025D1*
X1506Y3015D1*
X1514Y3005D1*
X1522Y2995D1*
X1529Y2985D1*
X1537Y2975D1*
X1546Y2965D1*
X1554Y2955D1*
X1560Y2945D1*
X1565Y2935D1*
X1571Y2925D1*
X1577Y2915D1*
X1584Y2905D1*
X1592Y2895D1*
X1598Y2885D1*
X1604Y2875D1*
X1608Y2865D1*
X1612Y2855D1*
X1616Y2845D1*
X1619Y2835D1*
X1622Y2825D1*
X1626Y2815D1*
X1629Y2805D1*
X1631Y2795D1*
X1632Y2785D1*
Y2775D1*
Y2765D1*
X2422Y3195D2*
X2348Y3185D1*
X2271Y3175D1*
X2192Y3165D1*
X2442Y3195D2*
X2432Y3185D1*
X2612Y3195D2*
X2692Y3185D1*
X2762Y3175D1*
X2824Y3165D1*
X2879Y3155D1*
X2924Y3145D1*
X2956Y3135D1*
X2982Y3125D1*
X2972Y3115D1*
X2962Y3105D1*
X2951Y3095D1*
X2938Y3085D1*
X2926Y3075D1*
X2913Y3065D1*
X2900Y3055D1*
X2888Y3045D1*
X2874Y3035D1*
X2858Y3025D1*
X2842Y3015D1*
X2827Y3005D1*
X2812Y2995D1*
X2797Y2985D1*
X2782Y2975D1*
X2766Y2965D1*
X2746Y2955D1*
X2725Y2945D1*
X2704Y2935D1*
X2685Y2925D1*
X2666Y2915D1*
X2648Y2905D1*
X2626Y2895D1*
X2604Y2885D1*
X2581Y2875D1*
X2559Y2865D1*
X2537Y2855D1*
X2514Y2845D1*
X2488Y2835D1*
X2460Y2825D1*
X2432Y2815D1*
X2406Y2805D1*
X2380Y2795D1*
X2351Y2785D1*
X2320Y2775D1*
X2287Y2765D1*
X2255Y2755D1*
X2227Y2745D1*
X2203Y2735D1*
X2186Y2725D1*
X2172Y2715D1*
X2184Y2705D1*
X2193Y2695D1*
X2201Y2685D1*
X2208Y2675D1*
X2214Y2665D1*
X2220Y2655D1*
X2225Y2645D1*
X2230Y2635D1*
X2235Y2625D1*
X2240Y2615D1*
X2246Y2605D1*
X2253Y2595D1*
X2259Y2585D1*
X2264Y2575D1*
X2270Y2565D1*
X2275Y2555D1*
X2278Y2545D1*
X2281Y2535D1*
X2283Y2525D1*
X2287Y2515D1*
X2291Y2505D1*
X2295Y2495D1*
X2300Y2485D1*
X2305Y2475D1*
X2310Y2465D1*
X2315Y2455D1*
X2319Y2445D1*
X2323Y2435D1*
X2327Y2425D1*
X2332Y2415D1*
X2582Y3185D2*
X2482Y3175D1*
X2382Y3165D1*
X2492Y3185D2*
X2502Y3175D1*
X2442Y3185D2*
X2544Y3175D1*
X2635Y3165D1*
X2712Y3155D1*
X2776Y3145D1*
X2829Y3135D1*
X2870Y3125D1*
X2903Y3115D1*
X2932Y3105D1*
X2915Y3095D1*
X2898Y3085D1*
X2880Y3075D1*
X2863Y3065D1*
X2847Y3055D1*
X2830Y3045D1*
X2811Y3035D1*
X2791Y3025D1*
X2772Y3015D1*
X2754Y3005D1*
X2736Y2995D1*
X2719Y2985D1*
X2699Y2975D1*
X2678Y2965D1*
X2656Y2955D1*
X2636Y2945D1*
X2617Y2935D1*
X2597Y2925D1*
X2575Y2915D1*
X2551Y2905D1*
X2527Y2895D1*
X2505Y2885D1*
X2483Y2875D1*
X2462Y2865D1*
X2438Y2855D1*
X2410Y2845D1*
X2382Y2835D1*
X2356Y2825D1*
X2330Y2815D1*
X2306Y2805D1*
X2279Y2795D1*
X2249Y2785D1*
X2218Y2775D1*
X2189Y2765D1*
X2160Y2755D1*
X2132Y2745D1*
X2102Y2735D1*
X2070Y2725D1*
X2033Y2715D1*
X1994Y2705D1*
X1958Y2695D1*
X1921Y2685D1*
X1880Y2675D1*
X1829Y2665D1*
X1772Y2655D1*
X2422Y3175D2*
X2365Y3165D1*
X2309Y3155D1*
X2254Y3145D1*
X2205Y3135D1*
X2164Y3125D1*
X2131Y3115D1*
X2102Y3105D1*
X2073Y3095D1*
X2044Y3085D1*
X2018Y3075D1*
X1995Y3065D1*
X1975Y3055D1*
X1959Y3045D1*
X1946Y3035D1*
X1936Y3025D1*
X1929Y3015D1*
X1924Y3005D1*
X1920Y2995D1*
X1916Y2985D1*
X1913Y2975D1*
X1909Y2965D1*
X1906Y2955D1*
X1902Y2945D1*
X2402Y3115D2*
X2339Y3105D1*
X2280Y3095D1*
X2227Y3085D1*
X2184Y3075D1*
X2149Y3065D1*
X2120Y3055D1*
X2093Y3045D1*
X2066Y3035D1*
X2041Y3025D1*
X2020Y3015D1*
X2002Y3005D1*
X1986Y2995D1*
X1972Y2985D1*
X1957Y2975D1*
X1939Y2965D1*
X1917Y2955D1*
X1892Y2945D1*
X2602Y3115D2*
X2663Y3105D1*
X2720Y3095D1*
X2772Y3085D1*
X2432D2*
X2383Y3075D1*
X2335Y3065D1*
X2290Y3055D1*
X2249Y3045D1*
X2210Y3035D1*
X2173Y3025D1*
X2140Y3015D1*
X2112Y3005D1*
X2089Y2995D1*
X2069Y2985D1*
X2050Y2975D1*
X2031Y2965D1*
X2012Y2955D1*
X1994Y2945D1*
X1979Y2935D1*
X1965Y2925D1*
X1953Y2915D1*
X1940Y2905D1*
X1925Y2895D1*
X1911Y2885D1*
X1900Y2875D1*
X1891Y2865D1*
X1883Y2855D1*
X1876Y2845D1*
X1869Y2835D1*
X1863Y2825D1*
X1858Y2815D1*
X1853Y2805D1*
X1849Y2795D1*
X1846Y2785D1*
X1843Y2775D1*
X1839Y2765D1*
X1836Y2755D1*
X1833Y2745D1*
X1829Y2735D1*
X1824Y2725D1*
X1819Y2715D1*
X1813Y2705D1*
X1808Y2695D1*
X1805Y2685D1*
Y2675D1*
X1823Y2665D1*
X1842Y2655D1*
X1432Y2835D2*
X1424Y2825D1*
X1419Y2815D1*
X1415Y2805D1*
X1414Y2795D1*
X1413Y2785D1*
Y2775D1*
Y2765D1*
Y2755D1*
X1412Y2745D1*
Y2735D1*
Y2725D1*
Y2715D1*
Y2705D1*
Y2695D1*
Y2685D1*
X1413Y2675D1*
Y2665D1*
X1414Y2655D1*
X1417Y2645D1*
X1419Y2635D1*
X1421Y2625D1*
X1422Y2615D1*
Y2605D1*
X1423Y2595D1*
X1424Y2585D1*
X1427Y2575D1*
X1429Y2565D1*
X1431Y2555D1*
X1433Y2545D1*
X1436Y2535D1*
X1439Y2525D1*
X1441Y2515D1*
X1442Y2505D1*
X1445Y2495D1*
X1449Y2485D1*
X1460Y2475D1*
X1472Y2465D1*
X1452Y2835D2*
X1462Y2825D1*
X1472Y2815D1*
X1483Y2805D1*
X1493Y2795D1*
X1504Y2785D1*
X1517Y2775D1*
X1529Y2765D1*
X1541Y2755D1*
X1552Y2745D1*
X1562Y2735D1*
X1573Y2725D1*
X1584Y2715D1*
X1597Y2705D1*
X1609Y2695D1*
X1621Y2685D1*
X1632Y2675D1*
X1643Y2665D1*
X1654Y2655D1*
X1668Y2645D1*
X1684Y2635D1*
X1703Y2625D1*
X1720Y2615D1*
X1733Y2605D1*
X1738Y2595D1*
X1741Y2585D1*
X1742Y2575D1*
X1744Y2565D1*
X1748Y2555D1*
X1752Y2545D1*
X1707Y2535D1*
X1661Y2525D1*
X1618Y2515D1*
X1579Y2505D1*
X1542Y2495D1*
X1505Y2485D1*
X1469Y2475D1*
X1432Y2465D1*
X1032Y2815D2*
X1024Y2805D1*
X1017Y2795D1*
X1011Y2785D1*
X1005Y2775D1*
X1000Y2765D1*
X995Y2755D1*
X990Y2745D1*
X985Y2735D1*
X979Y2725D1*
X972Y2715D1*
X966Y2705D1*
X961Y2695D1*
X957Y2685D1*
X955Y2675D1*
X953Y2665D1*
X952Y2655D1*
X951Y2645D1*
X948Y2635D1*
X945Y2625D1*
X942Y2615D1*
X937Y2605D1*
X930Y2595D1*
X922Y2585D1*
X914Y2575D1*
X906Y2565D1*
X899Y2555D1*
X891Y2545D1*
X882Y2535D1*
X873Y2525D1*
X864Y2515D1*
X857Y2505D1*
X850Y2495D1*
X844Y2485D1*
X836Y2475D1*
X828Y2465D1*
X820Y2455D1*
X813Y2445D1*
X806Y2435D1*
X801Y2425D1*
X795Y2415D1*
X789Y2405D1*
X782Y2395D1*
X776Y2385D1*
X769Y2375D1*
X762Y2365D1*
X756Y2355D1*
X749Y2345D1*
X743Y2335D1*
X737Y2325D1*
X732Y2315D1*
X725Y2305D1*
X715Y2295D1*
X702Y2285D1*
X1032Y2805D2*
Y2795D1*
Y2785D1*
Y2775D1*
Y2765D1*
Y2755D1*
X1031Y2745D1*
X1028Y2735D1*
X1025Y2725D1*
X1022Y2715D1*
X1052Y2705D1*
X1412Y2815D2*
X1393Y2805D1*
X1373Y2795D1*
X1354Y2785D1*
X1333Y2775D1*
X1313Y2765D1*
X1296Y2755D1*
X1280Y2745D1*
X1265Y2735D1*
X1251Y2725D1*
X1237Y2715D1*
X1221Y2705D1*
X1204Y2695D1*
X1189Y2685D1*
X1175Y2675D1*
X1164Y2665D1*
X1153Y2655D1*
X1145Y2645D1*
X1138Y2635D1*
X1134Y2625D1*
X1130Y2615D1*
X1126Y2605D1*
X1124Y2595D1*
X1123Y2585D1*
Y2575D1*
Y2565D1*
Y2555D1*
Y2545D1*
X1122Y2535D1*
Y2525D1*
Y2515D1*
Y2505D1*
Y2495D1*
X1121Y2485D1*
X1118Y2475D1*
X1116Y2465D1*
X1114Y2455D1*
X1113Y2445D1*
Y2435D1*
Y2425D1*
Y2415D1*
Y2405D1*
X1112Y2395D1*
X1113Y2385D1*
Y2375D1*
X1114Y2365D1*
X1118Y2355D1*
X1122Y2345D1*
X1402Y2755D2*
Y2745D1*
Y2735D1*
Y2725D1*
Y2715D1*
Y2705D1*
Y2695D1*
Y2685D1*
Y2675D1*
Y2665D1*
Y2655D1*
Y2645D1*
Y2635D1*
Y2625D1*
Y2615D1*
Y2605D1*
Y2595D1*
Y2585D1*
Y2575D1*
Y2565D1*
X1403Y2555D1*
Y2545D1*
X1404Y2535D1*
X1407Y2525D1*
X1409Y2515D1*
X1411Y2505D1*
X1412Y2495D1*
X1411Y2485D1*
X1410Y2475D1*
X1399Y2465D1*
X1383Y2455D1*
X1362Y2445D1*
X1337Y2435D1*
X1311Y2425D1*
X1284Y2415D1*
X1255Y2405D1*
X1226Y2395D1*
X1199Y2385D1*
X1175Y2375D1*
X1152Y2365D1*
X1128Y2355D1*
X1102Y2345D1*
X2172Y2715D2*
X2114Y2705D1*
X2061Y2695D1*
X2020Y2685D1*
X1992Y2675D1*
X1975Y2665D1*
X1962Y2655D1*
X2022Y2645D1*
X2016Y2635D1*
X2011Y2625D1*
X2005Y2615D1*
X1999Y2605D1*
X1992Y2595D1*
X2112Y2715D2*
X2129Y2705D1*
X2142Y2695D1*
X2151Y2685D1*
X2159Y2675D1*
X2164Y2665D1*
X2170Y2655D1*
X2175Y2645D1*
X2180Y2635D1*
X2185Y2625D1*
X2190Y2615D1*
X2195Y2605D1*
X2200Y2595D1*
X2206Y2585D1*
X2212Y2575D1*
X2217Y2565D1*
X2220Y2555D1*
X2223Y2545D1*
X2227Y2535D1*
X2231Y2525D1*
X2235Y2515D1*
X2240Y2505D1*
X2245Y2495D1*
X2249Y2485D1*
X2253Y2475D1*
X2257Y2465D1*
X2263Y2455D1*
X2268Y2445D1*
X2272Y2435D1*
X2276Y2425D1*
X2279Y2415D1*
X2281Y2405D1*
X2282Y2395D1*
X2284Y2385D1*
X2286Y2375D1*
X2289Y2365D1*
X2293Y2355D1*
X2296Y2345D1*
X2301Y2335D1*
X2305Y2325D1*
X2308Y2315D1*
X2311Y2305D1*
X2313Y2295D1*
X2316Y2285D1*
X2319Y2275D1*
X2322Y2265D1*
X2326Y2255D1*
X2329Y2245D1*
X2331Y2235D1*
X2332Y2225D1*
Y2215D1*
Y2205D1*
X2333Y2195D1*
X2334Y2185D1*
X2337Y2175D1*
X2339Y2165D1*
X2341Y2155D1*
X2343Y2145D1*
X2346Y2135D1*
X2349Y2125D1*
X2351Y2115D1*
X2352Y2105D1*
X2354Y2095D1*
X2356Y2085D1*
X2359Y2075D1*
X2361Y2065D1*
X2362Y2055D1*
X2363Y2045D1*
X2364Y2035D1*
X2367Y2025D1*
X2369Y2015D1*
X2371Y2005D1*
X2372Y1995D1*
X2373Y1985D1*
X2374Y1975D1*
X2377Y1965D1*
X2379Y1955D1*
X2381Y1945D1*
X2382Y1935D1*
Y1925D1*
Y1915D1*
Y1905D1*
Y1895D1*
Y1885D1*
Y1875D1*
X2383Y1865D1*
Y1855D1*
X2384Y1845D1*
X2387Y1835D1*
X2389Y1825D1*
X2391Y1815D1*
X2392Y1805D1*
Y1795D1*
Y1785D1*
Y1775D1*
Y1765D1*
Y1755D1*
Y1745D1*
Y1735D1*
Y1725D1*
Y1715D1*
Y1705D1*
Y1695D1*
Y1685D1*
Y1675D1*
X2391Y1665D1*
X2388Y1655D1*
X2386Y1645D1*
X2384Y1635D1*
X2383Y1625D1*
Y1615D1*
Y1605D1*
Y1595D1*
Y1585D1*
X2382Y1575D1*
Y1565D1*
Y1555D1*
X2381Y1545D1*
X2378Y1535D1*
X2376Y1525D1*
X2374Y1515D1*
X2373Y1505D1*
X2372Y1495D1*
X2371Y1485D1*
X2368Y1475D1*
X2366Y1465D1*
X2364Y1455D1*
X2363Y1445D1*
Y1435D1*
X2362Y1425D1*
X2361Y1415D1*
X2358Y1405D1*
X2356Y1395D1*
X2354Y1385D1*
X2353Y1375D1*
X2351Y1365D1*
X2348Y1355D1*
X2346Y1345D1*
X2342Y1335D1*
X2339Y1325D1*
X2336Y1315D1*
X2334Y1305D1*
X2333Y1295D1*
Y1285D1*
X2332Y1275D1*
X2331Y1265D1*
X2328Y1255D1*
X2325Y1245D1*
X2322Y1235D1*
X2319Y1225D1*
X2316Y1215D1*
X2313Y1205D1*
X2309Y1195D1*
X2306Y1185D1*
X2303Y1175D1*
X2299Y1165D1*
X2294Y1155D1*
X2290Y1145D1*
X2287Y1135D1*
X2284Y1125D1*
X2283Y1115D1*
X2281Y1105D1*
X2278Y1095D1*
X2274Y1085D1*
X2270Y1075D1*
X2265Y1065D1*
X2260Y1055D1*
X2255Y1045D1*
X2249Y1035D1*
X2242Y1025D1*
X2236Y1015D1*
X2231Y1005D1*
X2227Y995D1*
X2223Y985D1*
X2219Y975D1*
X2214Y965D1*
X2210Y955D1*
X2205Y945D1*
X2199Y935D1*
X2192Y925D1*
X2186Y915D1*
X2180Y905D1*
X2175Y895D1*
X2170Y885D1*
X2165Y875D1*
X2158Y865D1*
X2151Y855D1*
X2142Y845D1*
X2133Y835D1*
X2124Y825D1*
X2118Y815D1*
X2113Y805D1*
X2106Y795D1*
X2096Y785D1*
X2085Y775D1*
X2075Y765D1*
X2067Y755D1*
X2059Y745D1*
X2049Y735D1*
X2038Y725D1*
X2026Y715D1*
X2016Y705D1*
X2007Y695D1*
X1999Y685D1*
X1989Y675D1*
X1977Y665D1*
X1963Y655D1*
X1948Y645D1*
X1934Y635D1*
X1921Y625D1*
X1909Y615D1*
X1895Y605D1*
X1878Y595D1*
X1861Y585D1*
X1845Y575D1*
X1829Y565D1*
X1811Y555D1*
X1791Y545D1*
X1768Y535D1*
X1743Y525D1*
X1719Y515D1*
X1694Y505D1*
X1665Y495D1*
X1625Y485D1*
X1569Y475D1*
X1502Y465D1*
X1532Y2695D2*
X1528Y2685D1*
X1522Y2675D1*
X1518Y2665D1*
X1516Y2655D1*
X1517Y2645D1*
X1524Y2635D1*
X1537Y2625D1*
X1552Y2615D1*
X1542Y2685D2*
X1546Y2675D1*
X1558Y2665D1*
X1572Y2655D1*
X1582Y2665D2*
X1572Y2655D1*
X1592Y2665D2*
X1590Y2655D1*
X1583Y2645D1*
X1573Y2635D1*
X1563Y2625D1*
X1552Y2615D1*
X1942Y2665D2*
X1897Y2655D1*
X1848Y2645D1*
X1796Y2635D1*
X1742Y2625D1*
X1746Y2615D1*
X1751Y2605D1*
X1755Y2595D1*
X1759Y2585D1*
X1763Y2575D1*
X1774Y2565D1*
X1801Y2555D1*
X1832Y2545D1*
X1962Y2665D2*
X1954Y2655D1*
X1948Y2645D1*
X1946Y2635D1*
X1948Y2625D1*
X1950Y2615D1*
X1958Y2605D1*
X1978Y2595D1*
X2002Y2585D1*
X1132Y2635D2*
X1114Y2625D1*
X1099Y2615D1*
X1085Y2605D1*
X1073Y2595D1*
X1061Y2585D1*
X1049Y2575D1*
X1036Y2565D1*
X1026Y2555D1*
X1017Y2545D1*
X1008Y2535D1*
X997Y2525D1*
X985Y2515D1*
X974Y2505D1*
X965Y2495D1*
X956Y2485D1*
X948Y2475D1*
X937Y2465D1*
X925Y2455D1*
X914Y2445D1*
X902Y2435D1*
X1122Y2615D2*
Y2605D1*
Y2595D1*
Y2585D1*
Y2575D1*
X1121Y2565D1*
X1118Y2555D1*
X1116Y2545D1*
X1114Y2535D1*
X1113Y2525D1*
X1111Y2515D1*
X1109Y2505D1*
X1106Y2495D1*
X1104Y2485D1*
X1103Y2475D1*
X1101Y2465D1*
X1099Y2455D1*
X1096Y2445D1*
X1094Y2435D1*
X1093Y2425D1*
Y2415D1*
Y2405D1*
Y2395D1*
Y2385D1*
X1092Y2375D1*
Y2365D1*
X1090Y2355D1*
X1082Y2345D1*
X1071Y2335D1*
X1057Y2325D1*
X1042Y2315D1*
X1025Y2305D1*
X1006Y2295D1*
X984Y2285D1*
X963Y2275D1*
X943Y2265D1*
X925Y2255D1*
X910Y2245D1*
X894Y2235D1*
X877Y2225D1*
X860Y2215D1*
X844Y2205D1*
X826Y2195D1*
X805Y2185D1*
X782Y2175D1*
X1242Y2605D2*
X1238Y2595D1*
X1235Y2585D1*
X1234Y2575D1*
X1233Y2565D1*
X1235Y2555D1*
X1238Y2545D1*
X1242Y2535D1*
X1252Y2595D2*
X1302Y2585D1*
X1299Y2575D1*
X1294Y2565D1*
X1290Y2555D1*
X1286Y2545D1*
X1282Y2535D1*
X2042Y2585D2*
X1967Y2575D1*
X1890Y2565D1*
X1808Y2555D1*
X1722Y2545D1*
X2142Y2585D2*
X2086Y2575D1*
X2034Y2565D1*
X1986Y2555D1*
X1939Y2545D1*
X1891Y2535D1*
X1838Y2525D1*
X1782Y2515D1*
X1783Y2505D1*
X1784Y2495D1*
X1787Y2485D1*
X1791Y2475D1*
X1795Y2465D1*
X1800Y2455D1*
X1805Y2445D1*
X1809Y2435D1*
X1813Y2425D1*
X1817Y2415D1*
X1823Y2405D1*
X1828Y2395D1*
X1832Y2385D1*
X1836Y2375D1*
X1839Y2365D1*
X1842Y2355D1*
X1846Y2345D1*
X1849Y2335D1*
X1852Y2325D1*
X1856Y2315D1*
X1861Y2305D1*
X1867Y2295D1*
X1873Y2285D1*
X1879Y2275D1*
X1886Y2265D1*
X1895Y2255D1*
X1917Y2245D1*
X1942Y2235D1*
X1752Y2505D2*
X1714Y2495D1*
X1677Y2485D1*
X1640Y2475D1*
X1602Y2465D1*
X1564Y2455D1*
X1531Y2445D1*
X1501Y2435D1*
X1475Y2425D1*
X1452Y2415D1*
X1457Y2405D1*
X1462Y2395D1*
X1466Y2385D1*
X1469Y2375D1*
X1472Y2365D1*
X1476Y2355D1*
X1479Y2345D1*
X1482Y2335D1*
X1486Y2325D1*
X1489Y2315D1*
X1492Y2305D1*
X1496Y2295D1*
X1499Y2285D1*
X1501Y2275D1*
X1502Y2265D1*
X1504Y2255D1*
X1507Y2245D1*
X1511Y2235D1*
X1515Y2225D1*
X1520Y2215D1*
X1525Y2205D1*
X1529Y2195D1*
X1532Y2185D1*
X1536Y2175D1*
X1542Y2165D1*
X1549Y2155D1*
X1565Y2145D1*
X1582Y2135D1*
X1762Y2505D2*
X1763Y2495D1*
Y2485D1*
X1764Y2475D1*
X1767Y2465D1*
X1770Y2455D1*
X1773Y2445D1*
X1776Y2435D1*
X1779Y2425D1*
X1781Y2415D1*
X1782Y2405D1*
Y2395D1*
X1783Y2385D1*
X1784Y2375D1*
X1787Y2365D1*
X1790Y2355D1*
X1793Y2345D1*
X1796Y2335D1*
X1801Y2325D1*
X1805Y2315D1*
X1809Y2305D1*
X1812Y2295D1*
X1816Y2285D1*
X1820Y2275D1*
X1825Y2265D1*
X1829Y2255D1*
X1833Y2245D1*
X1837Y2235D1*
X1842Y2225D1*
X1799Y2215D1*
X1762Y2205D1*
X1730Y2195D1*
X1702Y2185D1*
X1675Y2175D1*
X1646Y2165D1*
X1611Y2155D1*
X1568Y2145D1*
X1522Y2135D1*
X2382Y2495D2*
X2376Y2485D1*
X2371Y2475D1*
X2365Y2465D1*
X2360Y2455D1*
X2354Y2445D1*
X2346Y2435D1*
X2335Y2425D1*
X2322Y2415D1*
X2382Y2485D2*
X2384Y2475D1*
X2387Y2465D1*
X2389Y2455D1*
X2391Y2445D1*
X2392Y2435D1*
Y2425D1*
Y2415D1*
Y2405D1*
Y2395D1*
Y2385D1*
Y2375D1*
Y2365D1*
Y2355D1*
X2391Y2345D1*
X2388Y2335D1*
X2386Y2325D1*
X2384Y2315D1*
X2382Y2305D1*
X2379Y2295D1*
X2376Y2285D1*
X2375Y2275D1*
Y2265D1*
X2377Y2255D1*
X2380Y2245D1*
X2383Y2235D1*
X2386Y2225D1*
X2389Y2215D1*
X2391Y2205D1*
X2392Y2195D1*
Y2185D1*
Y2175D1*
Y2165D1*
X2393Y2155D1*
X2394Y2145D1*
X2397Y2135D1*
X2399Y2125D1*
X2401Y2115D1*
X2403Y2105D1*
X2406Y2095D1*
X2409Y2085D1*
X2411Y2075D1*
X2412Y2065D1*
X2413Y2055D1*
X2414Y2045D1*
X2417Y2035D1*
X2419Y2025D1*
X2421Y2015D1*
X2422Y2005D1*
X2423Y1995D1*
X2424Y1985D1*
X2428Y1975D1*
X2432Y1965D1*
X2422Y1955D1*
X2427Y1945D1*
X2430Y1935D1*
X2433Y1925D1*
X2437Y1915D1*
X2442Y1905D1*
X922Y2435D2*
X932D2*
Y2425D1*
Y2415D1*
Y2405D1*
X982D1*
X977Y2395D1*
X970Y2385D1*
X962Y2375D1*
X952Y2365D1*
X2032Y2435D2*
X2024Y2425D1*
X2019Y2415D1*
X2015Y2405D1*
Y2395D1*
X2019Y2385D1*
X2025Y2375D1*
X2032Y2365D1*
X2042Y2425D2*
Y2415D1*
Y2405D1*
X2092D1*
X2085Y2395D1*
X2078Y2385D1*
X2070Y2375D1*
X2062Y2365D1*
X902Y2425D2*
X892Y2415D1*
X902Y2425D2*
X912Y2415D1*
X1422D2*
X1397Y2405D1*
X1369Y2395D1*
X1338Y2385D1*
X1309Y2375D1*
X1282Y2365D1*
X1255Y2355D1*
X1226Y2345D1*
X1195Y2335D1*
X1167Y2325D1*
X1146Y2315D1*
X1132Y2305D1*
X1127Y2295D1*
X1124Y2285D1*
X1123Y2275D1*
Y2265D1*
Y2255D1*
Y2245D1*
Y2235D1*
Y2225D1*
Y2215D1*
X1124Y2205D1*
X1127Y2195D1*
X1129Y2185D1*
X1131Y2175D1*
X1132Y2165D1*
X1134Y2155D1*
X1136Y2145D1*
X1139Y2135D1*
X1141Y2125D1*
X1143Y2115D1*
X1146Y2105D1*
X1149Y2095D1*
X1151Y2085D1*
X1153Y2075D1*
X1156Y2065D1*
X1159Y2055D1*
X1162Y2045D1*
X1166Y2035D1*
X1169Y2025D1*
X1171Y2015D1*
X1172Y2005D1*
X1173Y1995D1*
X1174Y1985D1*
X1177Y1975D1*
X1185Y1965D1*
X1197Y1955D1*
X1212Y1945D1*
X1422Y2415D2*
X1424Y2405D1*
X1427Y2395D1*
X1429Y2385D1*
X1431Y2375D1*
X1433Y2365D1*
X1436Y2355D1*
X1439Y2345D1*
X1441Y2335D1*
X1443Y2325D1*
X1446Y2315D1*
X1449Y2305D1*
X1451Y2295D1*
X1452Y2285D1*
Y2275D1*
X1453Y2265D1*
X1454Y2255D1*
X1457Y2245D1*
X1460Y2235D1*
X1463Y2225D1*
X1466Y2215D1*
X1469Y2205D1*
X1472Y2195D1*
X1476Y2185D1*
X1479Y2175D1*
X1482Y2165D1*
X1486Y2155D1*
X1490Y2145D1*
X1495Y2135D1*
X1499Y2125D1*
X1498Y2115D1*
X1490Y2105D1*
X1473Y2095D1*
X1454Y2085D1*
X1434Y2075D1*
X1414Y2065D1*
X1396Y2055D1*
X1378Y2045D1*
X1358Y2035D1*
X1339Y2025D1*
X1321Y2015D1*
X1303Y2005D1*
X1287Y1995D1*
X1272Y1985D1*
X1254Y1975D1*
X1234Y1965D1*
X1209Y1955D1*
X1182Y1945D1*
X712Y2395D2*
X707Y2385D1*
X700Y2375D1*
X693Y2365D1*
X687Y2355D1*
X681Y2345D1*
X675Y2335D1*
X670Y2325D1*
X665Y2315D1*
X660Y2305D1*
X655Y2295D1*
X649Y2285D1*
X643Y2275D1*
X637Y2265D1*
X633Y2255D1*
X629Y2245D1*
X626Y2235D1*
X624Y2225D1*
X623Y2215D1*
Y2205D1*
Y2195D1*
X622Y2185D1*
X621Y2175D1*
X618Y2165D1*
X616Y2155D1*
X614Y2145D1*
X613Y2135D1*
Y2125D1*
Y2115D1*
Y2105D1*
Y2095D1*
X612Y2085D1*
Y2075D1*
X611Y2065D1*
X608Y2055D1*
X604Y2045D1*
X600Y2035D1*
X596Y2025D1*
X593Y2015D1*
X589Y2005D1*
X586Y1995D1*
X583Y1985D1*
X579Y1975D1*
X576Y1965D1*
X574Y1955D1*
X573Y1945D1*
X571Y1935D1*
X568Y1925D1*
X564Y1915D1*
X560Y1905D1*
X557Y1895D1*
X554Y1885D1*
X552Y1875D1*
X549Y1865D1*
X546Y1855D1*
X543Y1845D1*
X539Y1835D1*
X536Y1825D1*
X534Y1815D1*
X532Y1805D1*
X529Y1795D1*
X526Y1785D1*
X524Y1775D1*
X522Y1765D1*
X519Y1755D1*
X516Y1745D1*
X514Y1735D1*
X513Y1725D1*
Y1715D1*
Y1705D1*
Y1695D1*
X512Y1685D1*
Y1675D1*
X511Y1665D1*
X507Y1655D1*
X502Y1645D1*
X902Y2405D2*
X884Y2395D1*
X869Y2385D1*
X857Y2375D1*
X849Y2365D1*
X844Y2355D1*
X838Y2345D1*
X830Y2335D1*
X822Y2325D1*
X813Y2315D1*
X804Y2305D1*
X798Y2295D1*
X793Y2285D1*
X788Y2275D1*
X781Y2265D1*
X773Y2255D1*
X766Y2245D1*
X759Y2235D1*
X751Y2225D1*
X744Y2215D1*
X738Y2205D1*
X733Y2195D1*
X729Y2185D1*
X725Y2175D1*
X719Y2165D1*
X713Y2155D1*
X706Y2145D1*
X698Y2135D1*
X692Y2125D1*
X687Y2115D1*
X686Y2105D1*
X688Y2095D1*
X692Y2085D1*
X683Y2075D1*
X674Y2065D1*
X667Y2055D1*
X661Y2045D1*
X655Y2035D1*
X649Y2025D1*
X643Y2015D1*
X637Y2005D1*
X633Y1995D1*
X629Y1985D1*
X626Y1975D1*
X624Y1965D1*
X622Y1955D1*
X619Y1945D1*
X616Y1935D1*
Y1925D1*
X617Y1915D1*
X619Y1905D1*
X621Y1895D1*
X622Y1885D1*
X672D1*
X669Y1875D1*
X664Y1865D1*
X658Y1855D1*
X651Y1845D1*
X642Y1835D1*
X892Y2405D2*
X901Y2395D1*
X910Y2385D1*
X921Y2375D1*
X932Y2365D1*
X712Y2375D2*
X711Y2365D1*
X708Y2355D1*
X706Y2345D1*
X704Y2335D1*
X703Y2325D1*
Y2315D1*
X705Y2305D1*
X708Y2295D1*
X712Y2285D1*
X1622Y2335D2*
X1619Y2325D1*
X1616Y2315D1*
X1615Y2305D1*
X1617Y2295D1*
X1620Y2285D1*
X1622Y2275D1*
X1642Y2335D2*
Y2325D1*
Y2315D1*
X1692D1*
X1689Y2305D1*
X1684Y2295D1*
X1679Y2285D1*
X1672Y2275D1*
X1082Y2295D2*
X1061Y2285D1*
X1037Y2275D1*
X1012Y2265D1*
X989Y2255D1*
X969Y2245D1*
X950Y2235D1*
X930Y2225D1*
X908Y2215D1*
X886Y2205D1*
X866Y2195D1*
X847Y2185D1*
X830Y2175D1*
X815Y2165D1*
X802Y2155D1*
X797Y2145D1*
X795Y2135D1*
X793Y2125D1*
Y2115D1*
Y2105D1*
Y2095D1*
Y2085D1*
X792Y2075D1*
Y2065D1*
Y2055D1*
Y2045D1*
Y2035D1*
X793Y2025D1*
Y2015D1*
X794Y2005D1*
X797Y1995D1*
X799Y1985D1*
X801Y1975D1*
X803Y1965D1*
X806Y1955D1*
X809Y1945D1*
X811Y1935D1*
X812Y1925D1*
X814Y1915D1*
X816Y1905D1*
X819Y1895D1*
X823Y1885D1*
X826Y1875D1*
X829Y1865D1*
X832Y1855D1*
X836Y1845D1*
X839Y1835D1*
X841Y1825D1*
X842Y1815D1*
X843Y1805D1*
X844Y1795D1*
X847Y1785D1*
X851Y1775D1*
X855Y1765D1*
X859Y1755D1*
X864Y1745D1*
X870Y1735D1*
X885Y1725D1*
X902Y1715D1*
X1092Y2295D2*
Y2285D1*
Y2275D1*
Y2265D1*
Y2255D1*
Y2245D1*
Y2235D1*
Y2225D1*
Y2215D1*
Y2205D1*
Y2195D1*
X1093Y2185D1*
Y2175D1*
X1094Y2165D1*
X1097Y2155D1*
X1099Y2145D1*
X1101Y2135D1*
X1102Y2125D1*
Y2115D1*
X1103Y2105D1*
X1104Y2095D1*
X1107Y2085D1*
X1109Y2075D1*
X1111Y2065D1*
X1113Y2055D1*
X1116Y2045D1*
X1119Y2035D1*
X1121Y2025D1*
X1122Y2015D1*
Y2005D1*
Y1995D1*
X1123Y1985D1*
X1124Y1975D1*
X1127Y1965D1*
X1129Y1955D1*
X1131Y1945D1*
X1133Y1935D1*
X1135Y1925D1*
X1137Y1915D1*
X1131Y1905D1*
X1122Y1895D1*
X1112Y1885D1*
X1101Y1875D1*
X1088Y1865D1*
X1074Y1855D1*
X1060Y1845D1*
X1045Y1835D1*
X1032Y1825D1*
X1019Y1815D1*
X1006Y1805D1*
X992Y1795D1*
X977Y1785D1*
X963Y1775D1*
X951Y1765D1*
X938Y1755D1*
X925Y1745D1*
X910Y1735D1*
X892Y1725D1*
X872Y1715D1*
X2012Y2255D2*
X1929Y2245D1*
X1842Y2235D1*
X2162Y2255D2*
X2093Y2245D1*
X2033Y2235D1*
X1983Y2225D1*
X1941Y2215D1*
X1902Y2205D1*
X1909Y2195D1*
X1914Y2185D1*
X1920Y2175D1*
X1926Y2165D1*
X1933Y2155D1*
X1939Y2145D1*
X1944Y2135D1*
X1948Y2125D1*
X1951Y2115D1*
X1954Y2105D1*
X1958Y2095D1*
X1963Y2085D1*
X1969Y2075D1*
X1975Y2065D1*
X1980Y2055D1*
X1986Y2045D1*
X1992Y2035D1*
X1997Y2025D1*
X2000Y2015D1*
X2004Y2005D1*
X2008Y1995D1*
X2015Y1985D1*
X2022Y1975D1*
X2028Y1965D1*
X2034Y1955D1*
X2040Y1945D1*
X2045Y1935D1*
X2050Y1925D1*
X2055Y1915D1*
X2059Y1905D1*
X2062Y1895D1*
X2066Y1885D1*
X2071Y1875D1*
X2076Y1865D1*
X2082Y1855D1*
X792Y2245D2*
Y2235D1*
Y2225D1*
X791Y2215D1*
X788Y2205D1*
X786Y2195D1*
X784Y2185D1*
X782Y2175D1*
X779Y2165D1*
X769Y2155D1*
X757Y2145D1*
X745Y2135D1*
X733Y2125D1*
X723Y2115D1*
X713Y2105D1*
X702Y2095D1*
X1282Y2225D2*
X1278Y2215D1*
X1275Y2205D1*
X1274Y2195D1*
X1273Y2185D1*
X1275Y2175D1*
X1278Y2165D1*
X1282Y2155D1*
X1292Y2215D2*
X1342Y2205D1*
X1341Y2195D1*
X1336Y2185D1*
X1330Y2175D1*
X1321Y2165D1*
X1312Y2155D1*
X792Y2195D2*
X797Y2185D1*
X802Y2175D1*
X1822Y2195D2*
X1801Y2185D1*
X1778Y2175D1*
X1755Y2165D1*
X1730Y2155D1*
X1703Y2145D1*
X1675Y2135D1*
X1649Y2125D1*
X1626Y2115D1*
X1606Y2105D1*
X1591Y2095D1*
X1580Y2085D1*
X1577Y2075D1*
X1578Y2065D1*
X1582Y2055D1*
X1587Y2045D1*
X1593Y2035D1*
X1598Y2025D1*
X1602Y2015D1*
X1606Y2005D1*
X1609Y1995D1*
X1612Y1985D1*
X1616Y1975D1*
X1620Y1965D1*
X1625Y1955D1*
X1629Y1945D1*
X1632Y1935D1*
X1636Y1925D1*
X1641Y1915D1*
X1647Y1905D1*
X1653Y1895D1*
X1659Y1885D1*
X1664Y1875D1*
X1668Y1865D1*
X1671Y1855D1*
X1673Y1845D1*
X1677Y1835D1*
X1681Y1825D1*
X1685Y1815D1*
X1690Y1805D1*
X1696Y1795D1*
X1703Y1785D1*
X1709Y1775D1*
X1714Y1765D1*
X1718Y1755D1*
X1722Y1745D1*
X1727Y1735D1*
X1743Y1725D1*
X1762Y1715D1*
X1852Y2195D2*
X1853Y2185D1*
X1854Y2175D1*
X1857Y2165D1*
X1861Y2155D1*
X1867Y2145D1*
X1873Y2135D1*
X1878Y2125D1*
X1882Y2115D1*
X1886Y2105D1*
X1889Y2095D1*
X1892Y2085D1*
X1896Y2075D1*
X1901Y2065D1*
X1905Y2055D1*
X1910Y2045D1*
X1916Y2035D1*
X1923Y2025D1*
X1929Y2015D1*
X1934Y2005D1*
X1940Y1995D1*
X1945Y1985D1*
X1949Y1975D1*
X1953Y1965D1*
X1957Y1955D1*
X1963Y1945D1*
X1969Y1935D1*
X1975Y1925D1*
X1980Y1915D1*
X1986Y1905D1*
X1992Y1895D1*
X1998Y1885D1*
X2002Y1875D1*
X2007Y1865D1*
X2013Y1855D1*
X2018Y1845D1*
X2010Y1835D1*
X1993Y1825D1*
X1973Y1815D1*
X1951Y1805D1*
X1925Y1795D1*
X1898Y1785D1*
X1871Y1775D1*
X1847Y1765D1*
X1824Y1755D1*
X1804Y1745D1*
X1781Y1735D1*
X1754Y1725D1*
X1722Y1715D1*
X752Y2135D2*
X742Y2125D1*
X732Y2115D1*
X721Y2105D1*
X708Y2095D1*
X696Y2085D1*
X685Y2075D1*
X675Y2065D1*
X667Y2055D1*
X661Y2045D1*
X655Y2035D1*
X649Y2025D1*
X643Y2015D1*
X637Y2005D1*
X633Y1995D1*
X629Y1985D1*
X626Y1975D1*
X624Y1965D1*
X622Y1955D1*
X619Y1945D1*
X616Y1935D1*
Y1925D1*
X617Y1915D1*
X619Y1905D1*
X621Y1895D1*
X622Y1885D1*
X672D1*
X669Y1875D1*
X664Y1865D1*
X658Y1855D1*
X651Y1845D1*
X642Y1835D1*
X782Y2145D2*
Y2135D1*
Y2125D1*
Y2115D1*
Y2105D1*
Y2095D1*
Y2085D1*
Y2075D1*
Y2065D1*
Y2055D1*
Y2045D1*
Y2035D1*
Y2025D1*
Y2015D1*
Y2005D1*
Y1995D1*
Y1985D1*
Y1975D1*
Y1965D1*
X783Y1955D1*
Y1945D1*
X784Y1935D1*
X787Y1925D1*
X789Y1915D1*
X791Y1905D1*
X792Y1895D1*
Y1885D1*
Y1875D1*
Y1865D1*
X793Y1855D1*
Y1845D1*
X794Y1835D1*
X797Y1825D1*
X799Y1815D1*
X801Y1805D1*
X802Y1795D1*
X804Y1785D1*
X806Y1775D1*
X809Y1765D1*
X813Y1755D1*
X816Y1745D1*
X819Y1735D1*
X822Y1725D1*
X826Y1715D1*
X829Y1705D1*
X831Y1695D1*
Y1685D1*
Y1675D1*
X825Y1665D1*
X814Y1655D1*
X802Y1645D1*
X792Y1635D1*
X782Y1625D1*
X772Y1615D1*
X761Y1605D1*
X748Y1595D1*
X736Y1585D1*
X724Y1575D1*
X713Y1565D1*
X702Y1555D1*
X691Y1545D1*
X678Y1535D1*
X666Y1525D1*
X654Y1515D1*
X642Y1505D1*
X2182Y2105D2*
X2178Y2095D1*
X2175Y2085D1*
X2174Y2075D1*
Y2065D1*
X2179Y2055D1*
X2190Y2045D1*
X2202Y2035D1*
X2192Y2105D2*
Y2095D1*
Y2085D1*
X2242D1*
X2237Y2075D1*
X2231Y2065D1*
X2224Y2055D1*
X2214Y2045D1*
X2202Y2035D1*
X1512Y2065D2*
X1493Y2055D1*
X1475Y2045D1*
X1457Y2035D1*
X1438Y2025D1*
X1418Y2015D1*
X1398Y2005D1*
X1381Y1995D1*
X1364Y1985D1*
X1347Y1975D1*
X1328Y1965D1*
X1309Y1955D1*
X1292Y1945D1*
X1277Y1935D1*
X1262Y1925D1*
X1247Y1915D1*
X1235Y1905D1*
X1226Y1895D1*
X1219Y1885D1*
Y1875D1*
X1221Y1865D1*
X1223Y1855D1*
X1226Y1845D1*
X1229Y1835D1*
X1231Y1825D1*
X1233Y1815D1*
X1237Y1805D1*
X1241Y1795D1*
X1245Y1785D1*
X1250Y1775D1*
X1255Y1765D1*
X1259Y1755D1*
X1263Y1745D1*
X1267Y1735D1*
X1273Y1725D1*
X1277Y1715D1*
X1280Y1705D1*
X1282Y1695D1*
X1284Y1685D1*
X1287Y1675D1*
X1291Y1665D1*
X1297Y1655D1*
X1303Y1645D1*
X1309Y1635D1*
X1315Y1625D1*
X1320Y1615D1*
X1326Y1605D1*
X1332Y1595D1*
X1337Y1585D1*
X1340Y1575D1*
X1343Y1565D1*
X1347Y1555D1*
X1351Y1545D1*
X1357Y1535D1*
X1367Y1525D1*
X1379Y1515D1*
X1392Y1505D1*
X1502Y2065D2*
X1511Y2055D1*
X1517Y2045D1*
X1522Y2035D1*
X1527Y2025D1*
X1533Y2015D1*
X1538Y2005D1*
X1542Y1995D1*
X1546Y1985D1*
X1550Y1975D1*
X1555Y1965D1*
X1558Y1955D1*
X1561Y1945D1*
X1563Y1935D1*
X1566Y1925D1*
X1569Y1915D1*
X1573Y1905D1*
X1578Y1895D1*
X1583Y1885D1*
X1589Y1875D1*
X1594Y1865D1*
X1599Y1855D1*
X1602Y1845D1*
X1606Y1835D1*
X1609Y1825D1*
X1612Y1815D1*
X1616Y1805D1*
X1621Y1795D1*
X1627Y1785D1*
X1633Y1775D1*
X1639Y1765D1*
X1644Y1755D1*
X1650Y1745D1*
X1655Y1735D1*
X1660Y1725D1*
X1665Y1715D1*
X1668Y1705D1*
X1671Y1695D1*
X1669Y1685D1*
X1662Y1675D1*
X1646Y1665D1*
X1627Y1655D1*
X1607Y1645D1*
X1590Y1635D1*
X1574Y1625D1*
X1558Y1615D1*
X1540Y1605D1*
X1522Y1595D1*
X1504Y1585D1*
X1487Y1575D1*
X1472Y1565D1*
X1459Y1555D1*
X1444Y1545D1*
X1427Y1535D1*
X1408Y1525D1*
X1391Y1515D1*
X1372Y1505D1*
X952Y2045D2*
X951Y2035D1*
X949Y2025D1*
X948Y2015D1*
X949Y2005D1*
X952Y1995D1*
X957Y1985D1*
X962Y1975D1*
Y2045D2*
Y2035D1*
X1022Y2025D1*
X1017Y2015D1*
X1012Y2005D1*
X1005Y1995D1*
X995Y1985D1*
X982Y1975D1*
X1762Y2005D2*
X1759Y1995D1*
X1754Y1985D1*
X1749Y1975D1*
X1742Y1965D1*
X1749Y1955D1*
X1756Y1945D1*
X1762Y1935D1*
X1772Y2005D2*
Y1995D1*
Y1985D1*
X1832Y1975D1*
X1822Y1965D1*
X1812Y1955D1*
X1802Y1945D1*
X1792Y1935D1*
X2472Y1965D2*
X2467Y1955D1*
X2463Y1945D1*
X2459Y1935D1*
X2454Y1925D1*
X2449Y1915D1*
X2442Y1905D1*
X2472Y1955D2*
X2474Y1945D1*
X2477Y1935D1*
X2479Y1925D1*
X2481Y1915D1*
X2482Y1905D1*
Y1895D1*
Y1885D1*
Y1875D1*
Y1865D1*
Y1855D1*
Y1845D1*
Y1835D1*
Y1825D1*
X2481Y1815D1*
X2478Y1805D1*
X2476Y1795D1*
X2474Y1785D1*
X2472Y1775D1*
X2469Y1765D1*
X2466Y1755D1*
X2464Y1745D1*
X2461Y1735D1*
X2457Y1725D1*
X2452Y1715D1*
X2448Y1705D1*
X2445Y1695D1*
X2443Y1685D1*
Y1675D1*
Y1665D1*
Y1655D1*
X2442Y1645D1*
Y1635D1*
X2441Y1625D1*
X2437Y1615D1*
X2432Y1605D1*
X2442Y1595D1*
X2438Y1585D1*
X2435Y1575D1*
X2434Y1565D1*
X2433Y1555D1*
Y1545D1*
X2432Y1535D1*
X2431Y1525D1*
X2428Y1515D1*
X2426Y1505D1*
X2424Y1495D1*
X2423Y1485D1*
Y1475D1*
X2422Y1465D1*
X2421Y1455D1*
X2418Y1445D1*
X2416Y1435D1*
X2414Y1425D1*
X2413Y1415D1*
X2411Y1405D1*
X2409Y1395D1*
X2406Y1385D1*
X2404Y1375D1*
Y1365D1*
X2405Y1355D1*
X2413Y1345D1*
X2422Y1335D1*
X2262Y1895D2*
X2282D2*
X2222Y1885D2*
X2242D2*
X2211Y1875D1*
X2181Y1865D1*
X2154Y1855D1*
X2132Y1845D1*
X2116Y1835D1*
X2111Y1825D1*
Y1815D1*
X2112Y1805D1*
X2114Y1795D1*
X2118Y1785D1*
X2124Y1775D1*
X2129Y1765D1*
X2135Y1755D1*
X2140Y1745D1*
X2147Y1735D1*
X2154Y1725D1*
X2161Y1715D1*
X2167Y1705D1*
X2170Y1695D1*
X2173Y1685D1*
X2177Y1675D1*
X2182Y1665D1*
X2189Y1655D1*
X2197Y1645D1*
X2203Y1635D1*
X2209Y1625D1*
X2215Y1615D1*
X2220Y1605D1*
X2225Y1595D1*
X2230Y1585D1*
X2235Y1575D1*
X2240Y1565D1*
X2245Y1555D1*
X2248Y1545D1*
X2251Y1535D1*
X2252Y1525D1*
X2272D1*
X2276Y1515D1*
X2279Y1505D1*
X2282Y1495D1*
X2285Y1485D1*
X2291Y1475D1*
X2297Y1465D1*
X2302Y1455D1*
X2172Y1875D2*
X2139Y1865D1*
X2102Y1855D1*
X2062Y1845D1*
X582Y1855D2*
Y1845D1*
X581Y1835D1*
X578Y1825D1*
X576Y1815D1*
X574Y1805D1*
X573Y1795D1*
Y1785D1*
Y1775D1*
X572Y1765D1*
X571Y1755D1*
X568Y1745D1*
X566Y1735D1*
X564Y1725D1*
X563Y1715D1*
X561Y1705D1*
X559Y1695D1*
X556Y1685D1*
X554Y1675D1*
X553Y1665D1*
Y1655D1*
Y1645D1*
X552Y1635D1*
X551Y1625D1*
X548Y1615D1*
X546Y1605D1*
X544Y1595D1*
X543Y1585D1*
Y1575D1*
Y1565D1*
Y1555D1*
Y1545D1*
X542Y1535D1*
Y1525D1*
Y1515D1*
Y1505D1*
Y1495D1*
Y1485D1*
Y1475D1*
X543Y1465D1*
Y1455D1*
X545Y1445D1*
X553Y1435D1*
X562Y1425D1*
X558Y1415D1*
X555Y1405D1*
X554Y1395D1*
X553Y1385D1*
Y1375D1*
Y1365D1*
X554Y1355D1*
X557Y1345D1*
X559Y1335D1*
X561Y1325D1*
X562Y1315D1*
X564Y1305D1*
X566Y1295D1*
X569Y1285D1*
X571Y1275D1*
X572Y1265D1*
Y1255D1*
Y1245D1*
X573Y1235D1*
X574Y1225D1*
X581Y1215D1*
X595Y1205D1*
X607Y1195D1*
X618Y1185D1*
X615Y1175D1*
X611Y1165D1*
X607Y1155D1*
X605Y1145D1*
Y1135D1*
X607Y1125D1*
X610Y1115D1*
X613Y1105D1*
X616Y1095D1*
X619Y1085D1*
X621Y1075D1*
X622Y1065D1*
X624Y1055D1*
X628Y1045D1*
X633Y1035D1*
X638Y1025D1*
X642Y1015D1*
X646Y1005D1*
X651Y995D1*
X656Y985D1*
X663Y975D1*
X669Y965D1*
X674Y955D1*
X678Y945D1*
X682Y935D1*
X686Y925D1*
X692Y915D1*
X699Y905D1*
X707Y895D1*
X715Y885D1*
X722Y875D1*
X727Y865D1*
X730Y855D1*
X732Y845D1*
Y835D1*
X762D1*
X768Y825D1*
X777Y815D1*
X789Y805D1*
X802Y795D1*
X582Y1855D2*
X602Y1845D1*
X622Y1835D1*
X1142Y1855D2*
X1131Y1845D1*
X1117Y1835D1*
X1102Y1825D1*
X1087Y1815D1*
X1073Y1805D1*
X1059Y1795D1*
X1045Y1785D1*
X1030Y1775D1*
X1015Y1765D1*
X1000Y1755D1*
X985Y1745D1*
X971Y1735D1*
X957Y1725D1*
X943Y1715D1*
X928Y1705D1*
X916Y1695D1*
X906Y1685D1*
X898Y1675D1*
X896Y1665D1*
X897Y1655D1*
X900Y1645D1*
X901Y1635D1*
X904Y1625D1*
X907Y1615D1*
X911Y1605D1*
X915Y1595D1*
X920Y1585D1*
X925Y1575D1*
X930Y1565D1*
X935Y1555D1*
X940Y1545D1*
X945Y1535D1*
X948Y1525D1*
X951Y1515D1*
X953Y1505D1*
X957Y1495D1*
X961Y1485D1*
X967Y1475D1*
X973Y1465D1*
X979Y1455D1*
X985Y1445D1*
X990Y1435D1*
X995Y1425D1*
X1000Y1415D1*
X1005Y1405D1*
X1008Y1395D1*
X1011Y1385D1*
X1013Y1375D1*
X1017Y1365D1*
X1021Y1355D1*
X1027Y1345D1*
X1033Y1335D1*
X1039Y1325D1*
X1045Y1315D1*
X1050Y1305D1*
X1056Y1295D1*
X1062Y1285D1*
X1162Y1855D2*
X1164Y1845D1*
X1167Y1835D1*
X1169Y1825D1*
X1171Y1815D1*
X1172Y1805D1*
X1174Y1795D1*
X1177Y1785D1*
X1181Y1775D1*
X1185Y1765D1*
X1189Y1755D1*
X1192Y1745D1*
X1196Y1735D1*
X1201Y1725D1*
X1205Y1715D1*
X1210Y1705D1*
X1215Y1695D1*
X1220Y1685D1*
X1225Y1675D1*
X1228Y1665D1*
X1231Y1655D1*
X1233Y1645D1*
X1237Y1635D1*
X1241Y1625D1*
X1245Y1615D1*
X1249Y1605D1*
X1253Y1595D1*
X1257Y1585D1*
X1263Y1575D1*
X1269Y1565D1*
X1274Y1555D1*
X1279Y1545D1*
X1282Y1535D1*
X1286Y1525D1*
X1290Y1515D1*
X1295Y1505D1*
X1300Y1495D1*
X1304Y1485D1*
X1307Y1475D1*
X1305Y1465D1*
X1297Y1455D1*
X1287Y1445D1*
X1276Y1435D1*
X1263Y1425D1*
X1248Y1415D1*
X1232Y1405D1*
X1216Y1395D1*
X1201Y1385D1*
X1187Y1375D1*
X1174Y1365D1*
X1160Y1355D1*
X1145Y1345D1*
X1129Y1335D1*
X1114Y1325D1*
X1099Y1315D1*
X1084Y1305D1*
X1069Y1295D1*
X1052Y1285D1*
X1392Y1815D2*
X1389Y1805D1*
X1384Y1795D1*
X1379Y1785D1*
X1372Y1775D1*
X1379Y1765D1*
X1386Y1755D1*
X1392Y1745D1*
X2032Y1815D2*
X2012Y1805D1*
X1992Y1795D1*
X1969Y1785D1*
X1945Y1775D1*
X1921Y1765D1*
X1900Y1755D1*
X1881Y1745D1*
X1862Y1735D1*
X1843Y1725D1*
X1822Y1715D1*
X1802Y1705D1*
X1784Y1695D1*
X1767Y1685D1*
X1752Y1675D1*
X1759Y1665D1*
X1766Y1655D1*
X1772Y1645D1*
X1777Y1635D1*
X1780Y1625D1*
X1784Y1615D1*
X1788Y1605D1*
X1793Y1595D1*
X1799Y1585D1*
X1805Y1575D1*
X1810Y1565D1*
X1815Y1555D1*
X1820Y1545D1*
X1826Y1535D1*
X1832Y1525D1*
X1838Y1515D1*
X1842Y1505D1*
X1846Y1495D1*
X1851Y1485D1*
X1856Y1475D1*
X1863Y1465D1*
X1869Y1455D1*
X1874Y1445D1*
X1880Y1435D1*
X1885Y1425D1*
X1889Y1415D1*
X1893Y1405D1*
X1897Y1395D1*
X1903Y1385D1*
X1909Y1375D1*
X1915Y1365D1*
X1920Y1355D1*
X1926Y1345D1*
X1933Y1335D1*
X1939Y1325D1*
X1944Y1315D1*
X1949Y1305D1*
X1953Y1295D1*
X1957Y1285D1*
X1964Y1275D1*
X1971Y1265D1*
X1981Y1255D1*
X1992Y1245D1*
X2052Y1815D2*
X2054Y1805D1*
X2057Y1795D1*
X2061Y1785D1*
X2067Y1775D1*
X2073Y1765D1*
X2079Y1755D1*
X2086Y1745D1*
X2093Y1735D1*
X2099Y1725D1*
X2104Y1715D1*
X2110Y1705D1*
X2117Y1695D1*
X2124Y1685D1*
X2132Y1675D1*
X2139Y1665D1*
X2146Y1655D1*
X2154Y1645D1*
X2162Y1635D1*
X2169Y1625D1*
X2176Y1615D1*
X2183Y1605D1*
X2191Y1595D1*
X2200Y1585D1*
X2209Y1575D1*
X2216Y1565D1*
X2221Y1555D1*
X2227Y1545D1*
X2235Y1535D1*
X2243Y1525D1*
X2253Y1515D1*
X2262Y1505D1*
X2271Y1495D1*
X2277Y1485D1*
X2283Y1475D1*
X2292Y1465D1*
X2302Y1455D1*
X2312Y1445D1*
X1392Y1795D2*
X1417Y1785D1*
X1442Y1775D1*
Y1785D2*
X1432Y1775D1*
X1452Y1785D2*
X1448Y1775D1*
X1442Y1765D1*
X1433Y1755D1*
X1422Y1745D1*
X462Y1775D2*
X461Y1765D1*
X458Y1755D1*
X455Y1745D1*
X452Y1735D1*
X449Y1725D1*
X446Y1715D1*
X443Y1705D1*
X439Y1695D1*
X436Y1685D1*
X434Y1675D1*
X433Y1665D1*
X432Y1655D1*
X431Y1645D1*
X428Y1635D1*
X426Y1625D1*
X424Y1615D1*
X423Y1605D1*
Y1595D1*
Y1585D1*
Y1575D1*
X424Y1565D1*
X427Y1555D1*
X429Y1545D1*
X431Y1535D1*
X432Y1525D1*
X434Y1515D1*
X436Y1505D1*
X439Y1495D1*
X441Y1485D1*
X443Y1475D1*
X447Y1465D1*
X451Y1455D1*
X455Y1445D1*
X458Y1435D1*
X461Y1425D1*
X464Y1415D1*
X468Y1405D1*
X473Y1395D1*
X479Y1385D1*
X484Y1375D1*
X489Y1365D1*
X492Y1355D1*
X496Y1345D1*
X499Y1335D1*
X501Y1325D1*
X502Y1315D1*
Y1305D1*
Y1295D1*
Y1285D1*
X503Y1275D1*
X504Y1265D1*
X507Y1255D1*
X509Y1245D1*
X511Y1235D1*
X512Y1225D1*
Y1215D1*
Y1205D1*
Y1195D1*
Y1185D1*
X513Y1175D1*
Y1165D1*
X514Y1155D1*
X517Y1145D1*
X520Y1135D1*
X523Y1125D1*
X526Y1115D1*
X529Y1105D1*
X532Y1095D1*
X536Y1085D1*
X539Y1075D1*
X541Y1065D1*
X543Y1055D1*
X547Y1045D1*
X551Y1035D1*
X555Y1025D1*
X559Y1015D1*
X562Y1005D1*
X566Y995D1*
X569Y985D1*
X571Y975D1*
X572Y965D1*
X574Y955D1*
X577Y945D1*
X581Y935D1*
X585Y925D1*
X589Y915D1*
X593Y905D1*
X597Y895D1*
X603Y885D1*
X609Y875D1*
X614Y865D1*
X619Y855D1*
X624Y845D1*
X632Y835D1*
X641Y825D1*
X650Y815D1*
X658Y805D1*
X666Y795D1*
X674Y785D1*
X683Y775D1*
X691Y765D1*
X699Y755D1*
X706Y745D1*
X714Y735D1*
X723Y725D1*
X733Y715D1*
X743Y705D1*
X753Y695D1*
X762Y685D1*
X772Y675D1*
X782Y665D1*
X792Y655D1*
X804Y645D1*
X817Y635D1*
X828Y625D1*
X838Y615D1*
X847Y605D1*
X860Y595D1*
X874Y585D1*
X888Y575D1*
X901Y565D1*
X913Y555D1*
X927Y545D1*
X941Y535D1*
X957Y525D1*
X974Y515D1*
X992Y505D1*
X1009Y495D1*
X1026Y485D1*
X1046Y475D1*
X1067Y465D1*
X1089Y455D1*
X1111Y445D1*
X1133Y435D1*
X1156Y425D1*
X1184Y415D1*
X1223Y405D1*
X1278Y395D1*
X1342Y385D1*
X2252Y1765D2*
X2249Y1755D1*
X2244Y1745D1*
X2241Y1735D1*
X2238Y1725D1*
X2241Y1715D1*
X2251Y1705D1*
X2262Y1695D1*
Y1765D2*
Y1755D1*
Y1745D1*
X2322Y1735D1*
X2314Y1725D1*
X2305Y1715D1*
X2294Y1705D1*
X2282Y1695D1*
X462Y1745D2*
X467Y1735D1*
X470Y1725D1*
X473Y1715D1*
X476Y1705D1*
X479Y1695D1*
X481Y1685D1*
X484Y1675D1*
X489Y1665D1*
X500Y1655D1*
X512Y1645D1*
X592Y1715D2*
Y1705D1*
X593Y1695D1*
Y1685D1*
X594Y1675D1*
X597Y1665D1*
X599Y1655D1*
X601Y1645D1*
X602Y1635D1*
Y1625D1*
Y1615D1*
Y1605D1*
Y1595D1*
Y1585D1*
Y1575D1*
Y1565D1*
X603Y1555D1*
Y1545D1*
X604Y1535D1*
X607Y1525D1*
X609Y1515D1*
X611Y1505D1*
Y1495D1*
X610Y1485D1*
X603Y1475D1*
X594Y1465D1*
X585Y1455D1*
X578Y1445D1*
X572Y1435D1*
X602Y1715D2*
Y1705D1*
Y1695D1*
Y1685D1*
X603Y1675D1*
Y1665D1*
X604Y1655D1*
X607Y1645D1*
X609Y1635D1*
X611Y1625D1*
X612Y1615D1*
X614Y1605D1*
X616Y1595D1*
X619Y1585D1*
X621Y1575D1*
X622Y1565D1*
Y1555D1*
Y1545D1*
Y1535D1*
Y1525D1*
Y1515D1*
Y1505D1*
X1682Y1645D2*
X1671Y1635D1*
X1657Y1625D1*
X1642Y1615D1*
X1626Y1605D1*
X1610Y1595D1*
X1593Y1585D1*
X1575Y1575D1*
X1558Y1565D1*
X1542Y1555D1*
X1527Y1545D1*
X1511Y1535D1*
X1494Y1525D1*
X1477Y1515D1*
X1462Y1505D1*
X1448Y1495D1*
X1434Y1485D1*
X1420Y1475D1*
X1406Y1465D1*
X1392Y1455D1*
X1399Y1445D1*
X1404Y1435D1*
X1410Y1425D1*
X1417Y1415D1*
X1424Y1405D1*
X1432Y1395D1*
X1438Y1385D1*
X1444Y1375D1*
X1448Y1365D1*
X1452Y1355D1*
X1456Y1345D1*
X1461Y1335D1*
X1467Y1325D1*
X1473Y1315D1*
X1479Y1305D1*
X1486Y1295D1*
X1492Y1285D1*
X1497Y1275D1*
X1502Y1265D1*
X1506Y1255D1*
X1511Y1245D1*
X1517Y1235D1*
X1524Y1225D1*
X1532Y1215D1*
X1539Y1205D1*
X1546Y1195D1*
X1552Y1185D1*
X1557Y1175D1*
X1562Y1165D1*
X1567Y1155D1*
X1573Y1145D1*
X1579Y1135D1*
X1586Y1125D1*
X1593Y1115D1*
X1599Y1105D1*
X1605Y1095D1*
X1610Y1085D1*
X1617Y1075D1*
X1628Y1065D1*
X1644Y1055D1*
X1662Y1045D1*
X1692Y1645D2*
X1702Y1635D1*
X1710Y1625D1*
X1716Y1615D1*
X1720Y1605D1*
X1723Y1595D1*
X1728Y1585D1*
X1735Y1575D1*
X1742Y1565D1*
X1748Y1555D1*
X1754Y1545D1*
X1760Y1535D1*
X1766Y1525D1*
X1772Y1515D1*
X1778Y1505D1*
X1782Y1495D1*
X1786Y1485D1*
X1792Y1475D1*
X1799Y1465D1*
X1807Y1455D1*
X1815Y1445D1*
X1822Y1435D1*
X1829Y1425D1*
X1834Y1415D1*
X1840Y1405D1*
X1845Y1395D1*
X1850Y1385D1*
X1856Y1375D1*
X1863Y1365D1*
X1869Y1355D1*
X1876Y1345D1*
X1883Y1335D1*
X1889Y1325D1*
X1894Y1315D1*
X1900Y1305D1*
X1907Y1295D1*
X1914Y1285D1*
X1923Y1275D1*
X1931Y1265D1*
X1938Y1255D1*
X1944Y1245D1*
X1949Y1235D1*
X1952Y1225D1*
X1929Y1215D1*
X1909Y1205D1*
X1892Y1195D1*
X1876Y1185D1*
X1859Y1175D1*
X1842Y1165D1*
X1822Y1155D1*
X1803Y1145D1*
X1786Y1135D1*
X1769Y1125D1*
X1752Y1115D1*
X1736Y1105D1*
X1719Y1095D1*
X1703Y1085D1*
X1687Y1075D1*
X1671Y1065D1*
X1653Y1055D1*
X1632Y1045D1*
X822Y1635D2*
X812Y1625D1*
X802Y1615D1*
X792Y1605D1*
X779Y1595D1*
X765Y1585D1*
X751Y1575D1*
X738Y1565D1*
X726Y1555D1*
X714Y1545D1*
X702Y1535D1*
X689Y1525D1*
X676Y1515D1*
X663Y1505D1*
X651Y1495D1*
X641Y1485D1*
X637Y1475D1*
X638Y1465D1*
X640Y1455D1*
X642Y1445D1*
X644Y1435D1*
X647Y1425D1*
X651Y1415D1*
X655Y1405D1*
X658Y1395D1*
X661Y1385D1*
X663Y1375D1*
X666Y1365D1*
X669Y1355D1*
X672Y1345D1*
X676Y1335D1*
X679Y1325D1*
X681Y1315D1*
X682Y1305D1*
X684Y1295D1*
X686Y1285D1*
X689Y1275D1*
X693Y1265D1*
X696Y1255D1*
X699Y1245D1*
X702Y1235D1*
X706Y1225D1*
X710Y1215D1*
X715Y1205D1*
X719Y1195D1*
X722Y1185D1*
X726Y1175D1*
X729Y1165D1*
X731Y1155D1*
X733Y1145D1*
X737Y1135D1*
X741Y1125D1*
X745Y1115D1*
X751Y1105D1*
X759Y1095D1*
X775Y1085D1*
X792Y1075D1*
X832Y1635D2*
X841Y1625D1*
X847Y1615D1*
X851Y1605D1*
X856Y1595D1*
X860Y1585D1*
X865Y1575D1*
X869Y1565D1*
X872Y1555D1*
X876Y1545D1*
X881Y1535D1*
X885Y1525D1*
X890Y1515D1*
X895Y1505D1*
X898Y1495D1*
X901Y1485D1*
X903Y1475D1*
X906Y1465D1*
X909Y1455D1*
X913Y1445D1*
X916Y1435D1*
X921Y1425D1*
X925Y1415D1*
X930Y1405D1*
X935Y1395D1*
X940Y1385D1*
X945Y1375D1*
X948Y1365D1*
X951Y1355D1*
X954Y1345D1*
X958Y1335D1*
X963Y1325D1*
X969Y1315D1*
X975Y1305D1*
X980Y1295D1*
X986Y1285D1*
X992Y1275D1*
X998Y1265D1*
Y1255D1*
X991Y1245D1*
X981Y1235D1*
X968Y1225D1*
X954Y1215D1*
X940Y1205D1*
X927Y1195D1*
X914Y1185D1*
X903Y1175D1*
X890Y1165D1*
X875Y1155D1*
X861Y1145D1*
X848Y1135D1*
X836Y1125D1*
X825Y1115D1*
X813Y1105D1*
X799Y1095D1*
X782Y1085D1*
X762Y1075D1*
X1062Y1625D2*
X1054Y1615D1*
X1049Y1605D1*
X1045Y1595D1*
X1044Y1585D1*
X1045Y1575D1*
X1048Y1565D1*
X1052Y1555D1*
X1062Y1615D2*
X1066Y1605D1*
X1078Y1595D1*
X1092Y1585D1*
X1102Y1595D2*
X1092Y1585D1*
X1122Y1595D2*
X1117Y1585D1*
X1110Y1575D1*
X1102Y1565D1*
X1092Y1555D1*
X2022Y1575D2*
X2016Y1565D1*
X2011Y1555D1*
X2007Y1545D1*
X2005Y1535D1*
X2009Y1525D1*
X2015Y1515D1*
X2022Y1505D1*
Y1565D2*
X2034Y1555D1*
X2048Y1545D1*
X2062Y1535D1*
Y1545D2*
X2052Y1535D1*
X2082Y1545D2*
X2078Y1535D1*
X2072Y1525D1*
X2067Y1515D1*
X2062Y1505D1*
X592Y1455D2*
X583Y1445D1*
X573Y1435D1*
X565Y1425D1*
X559Y1415D1*
X555Y1405D1*
X554Y1395D1*
X553Y1385D1*
Y1375D1*
Y1365D1*
X554Y1355D1*
X557Y1345D1*
X559Y1335D1*
X561Y1325D1*
X562Y1315D1*
X564Y1305D1*
X566Y1295D1*
X569Y1285D1*
X571Y1275D1*
X572Y1265D1*
Y1255D1*
Y1245D1*
X573Y1235D1*
X574Y1225D1*
X581Y1215D1*
X595Y1205D1*
X607Y1195D1*
X618Y1185D1*
X615Y1175D1*
X611Y1165D1*
X607Y1155D1*
X605Y1145D1*
Y1135D1*
X607Y1125D1*
X610Y1115D1*
X613Y1105D1*
X616Y1095D1*
X619Y1085D1*
X621Y1075D1*
X622Y1065D1*
X624Y1055D1*
X628Y1045D1*
X633Y1035D1*
X638Y1025D1*
X642Y1015D1*
X646Y1005D1*
X651Y995D1*
X656Y985D1*
X663Y975D1*
X669Y965D1*
X674Y955D1*
X678Y945D1*
X682Y935D1*
X686Y925D1*
X692Y915D1*
X699Y905D1*
X707Y895D1*
X715Y885D1*
X722Y875D1*
X727Y865D1*
X730Y855D1*
X732Y845D1*
Y835D1*
X762D1*
X768Y825D1*
X777Y815D1*
X789Y805D1*
X802Y795D1*
X622Y1465D2*
Y1455D1*
Y1445D1*
Y1435D1*
Y1425D1*
Y1415D1*
Y1405D1*
X623Y1395D1*
Y1385D1*
X624Y1375D1*
X627Y1365D1*
X630Y1355D1*
X633Y1345D1*
X636Y1335D1*
X639Y1325D1*
X641Y1315D1*
X643Y1305D1*
X646Y1295D1*
X649Y1285D1*
X652Y1275D1*
X656Y1265D1*
X659Y1255D1*
X662Y1245D1*
X666Y1235D1*
X669Y1225D1*
X672Y1215D1*
X676Y1205D1*
X679Y1195D1*
X681Y1185D1*
X682Y1175D1*
X683Y1165D1*
X684Y1155D1*
X688Y1145D1*
X693Y1135D1*
X698Y1125D1*
X702Y1115D1*
X706Y1105D1*
X710Y1095D1*
X715Y1085D1*
X720Y1075D1*
X725Y1065D1*
X728Y1055D1*
X730Y1045D1*
X726Y1035D1*
X719Y1025D1*
X711Y1015D1*
X702Y1005D1*
X692Y995D1*
X1322Y1415D2*
X1311Y1405D1*
X1296Y1395D1*
X1280Y1385D1*
X1263Y1375D1*
X1248Y1365D1*
X1234Y1355D1*
X1219Y1345D1*
X1202Y1335D1*
X1185Y1325D1*
X1168Y1315D1*
X1152Y1305D1*
X1137Y1295D1*
X1122Y1285D1*
X1106Y1275D1*
X1092Y1265D1*
X1082Y1255D1*
X1079Y1245D1*
X1085Y1235D1*
X1092Y1225D1*
X1099Y1215D1*
X1104Y1205D1*
X1110Y1195D1*
X1115Y1185D1*
X1119Y1175D1*
X1122Y1165D1*
X1126Y1155D1*
X1130Y1145D1*
X1135Y1135D1*
X1140Y1125D1*
X1147Y1115D1*
X1154Y1105D1*
X1161Y1095D1*
X1167Y1085D1*
X1170Y1075D1*
X1173Y1065D1*
X1177Y1055D1*
X1182Y1045D1*
X1189Y1035D1*
X1197Y1025D1*
X1203Y1015D1*
X1209Y1005D1*
X1215Y995D1*
X1220Y985D1*
X1225Y975D1*
X1230Y965D1*
X1235Y955D1*
X1240Y945D1*
X1245Y935D1*
X1250Y925D1*
X1257Y915D1*
X1264Y905D1*
X1271Y895D1*
X1277Y885D1*
X1282Y875D1*
X1286Y865D1*
X1291Y855D1*
X1297Y845D1*
X1304Y835D1*
X1312Y825D1*
X1319Y815D1*
X1325Y805D1*
X1332Y795D1*
Y1415D2*
X1342Y1405D1*
X1352Y1395D1*
X1361Y1385D1*
X1368Y1375D1*
X1374Y1365D1*
X1380Y1355D1*
X1385Y1345D1*
X1390Y1335D1*
X1395Y1325D1*
X1400Y1315D1*
X1406Y1305D1*
X1413Y1295D1*
X1421Y1285D1*
X1429Y1275D1*
X1436Y1265D1*
X1443Y1255D1*
X1448Y1245D1*
X1452Y1235D1*
X1458Y1225D1*
X1465Y1215D1*
X1473Y1205D1*
X1481Y1195D1*
X1488Y1185D1*
X1494Y1175D1*
X1499Y1165D1*
X1504Y1155D1*
X1511Y1145D1*
X1520Y1135D1*
X1528Y1125D1*
X1535Y1115D1*
X1542Y1105D1*
X1549Y1095D1*
X1556Y1085D1*
X1563Y1075D1*
X1569Y1065D1*
X1576Y1055D1*
X1584Y1045D1*
X1593Y1035D1*
X1602Y1025D1*
X1591Y1015D1*
X1580Y1005D1*
X1569Y995D1*
X1557Y985D1*
X1542Y975D1*
X1526Y965D1*
X1513Y955D1*
X1502Y945D1*
X1490Y935D1*
X1478Y925D1*
X1464Y915D1*
X1450Y905D1*
X1437Y895D1*
X1424Y885D1*
X1414Y875D1*
X1404Y865D1*
X1393Y855D1*
X1381Y845D1*
X1368Y835D1*
X1357Y825D1*
X1348Y815D1*
X1340Y805D1*
X1332Y795D1*
X2452Y1395D2*
X2449Y1385D1*
X2444Y1375D1*
X2439Y1365D1*
X2433Y1355D1*
X2423Y1345D1*
X2412Y1335D1*
X782Y1385D2*
X774Y1375D1*
X769Y1365D1*
X765Y1355D1*
Y1345D1*
X769Y1335D1*
X775Y1325D1*
X782Y1315D1*
X2282Y1385D2*
X782Y1375D2*
X805Y1365D1*
X825Y1355D1*
X842Y1345D1*
X831Y1335D1*
X817Y1325D1*
X802Y1315D1*
X2262Y1375D2*
X2452D2*
Y1365D1*
Y1355D1*
X2451Y1345D1*
X2448Y1335D1*
X2446Y1325D1*
X2444Y1315D1*
X2443Y1305D1*
X2442Y1295D1*
X2441Y1285D1*
X2438Y1275D1*
X2435Y1265D1*
X2432Y1255D1*
X2429Y1245D1*
X2424Y1235D1*
X2418Y1225D1*
X2412Y1215D1*
X2406Y1205D1*
X2401Y1195D1*
X2397Y1185D1*
X2393Y1175D1*
X2388Y1165D1*
X2382Y1155D1*
X2374Y1145D1*
X2364Y1135D1*
X2355Y1125D1*
X2347Y1115D1*
X2341Y1105D1*
X2337Y1095D1*
X2333Y1085D1*
X2329Y1075D1*
X2325Y1065D1*
X2320Y1055D1*
X2315Y1045D1*
X2310Y1035D1*
X2305Y1025D1*
X2300Y1015D1*
X2295Y1005D1*
X2290Y995D1*
X2286Y985D1*
X2283Y975D1*
X2279Y965D1*
X2274Y955D1*
X2270Y945D1*
X2265Y935D1*
X2260Y925D1*
X2255Y915D1*
X2248Y905D1*
X2241Y895D1*
X2234Y885D1*
X2228Y875D1*
X2223Y865D1*
X2219Y855D1*
X2213Y845D1*
X2206Y835D1*
X2198Y825D1*
X2190Y815D1*
X2183Y805D1*
X2177Y795D1*
X2172Y785D1*
X2165Y775D1*
X2158Y765D1*
X2150Y755D1*
X2141Y745D1*
X2132Y735D1*
X2122Y725D1*
X2113Y715D1*
X2104Y705D1*
X2097Y695D1*
X2089Y685D1*
X2081Y675D1*
X2071Y665D1*
X2061Y655D1*
X2048Y645D1*
X2036Y635D1*
X2024Y625D1*
X2014Y615D1*
X2005Y605D1*
X1993Y595D1*
X1980Y585D1*
X1966Y575D1*
X1953Y565D1*
X1939Y555D1*
X1924Y545D1*
X1908Y535D1*
X1891Y525D1*
X1873Y515D1*
X1856Y505D1*
X1839Y495D1*
X1820Y485D1*
X1800Y475D1*
X1777Y465D1*
X1753Y455D1*
X1730Y445D1*
X1707Y435D1*
X1681Y425D1*
X1651Y415D1*
X1610Y405D1*
X1555Y395D1*
X1492Y385D1*
X2242Y1365D2*
X2252D2*
X2236Y1355D1*
X2218Y1345D1*
X2198Y1335D1*
X2180Y1325D1*
X2162Y1315D1*
X2146Y1305D1*
X2130Y1295D1*
X2113Y1285D1*
X2096Y1275D1*
X2080Y1265D1*
X2064Y1255D1*
X2048Y1245D1*
X2033Y1235D1*
X2020Y1225D1*
X2010Y1215D1*
X2007Y1205D1*
X2009Y1195D1*
X2014Y1185D1*
X2020Y1175D1*
X2026Y1165D1*
X2033Y1155D1*
X2039Y1145D1*
X2046Y1135D1*
X2052Y1125D1*
X2058Y1115D1*
X2062Y1105D1*
X2067Y1095D1*
X2073Y1085D1*
X2079Y1075D1*
X2085Y1065D1*
X2090Y1055D1*
X2096Y1045D1*
X2102Y1035D1*
X2108Y1025D1*
X2112Y1015D1*
X2117Y1005D1*
X2123Y995D1*
X2128Y985D1*
X2132Y975D1*
X1632Y1355D2*
X1624Y1345D1*
X1619Y1335D1*
X1615Y1325D1*
Y1315D1*
X1619Y1305D1*
X1630Y1295D1*
X1642Y1285D1*
X2222Y1355D2*
X2199Y1345D1*
X2175Y1335D1*
X2152Y1325D1*
X2131Y1315D1*
X2111Y1305D1*
X2090Y1295D1*
X2068Y1285D1*
X2045Y1275D1*
X2020Y1265D1*
X1992Y1255D1*
X1962Y1245D1*
X1642Y1345D2*
X1692Y1335D1*
X1687Y1325D1*
X1682Y1315D1*
X1676Y1305D1*
X1669Y1295D1*
X1662Y1285D1*
X1012Y1215D2*
X993Y1205D1*
X976Y1195D1*
X961Y1185D1*
X947Y1175D1*
X933Y1165D1*
X918Y1155D1*
X902Y1145D1*
X886Y1135D1*
X871Y1125D1*
X857Y1115D1*
X844Y1105D1*
X830Y1095D1*
X817Y1085D1*
X805Y1075D1*
X798Y1065D1*
X792Y1055D1*
X772D1*
X777Y1045D1*
X783Y1035D1*
X787Y1025D1*
X791Y1015D1*
X793Y1005D1*
X797Y995D1*
X801Y985D1*
X805Y975D1*
X810Y965D1*
X815Y955D1*
X820Y945D1*
X825Y935D1*
X830Y925D1*
X835Y915D1*
X840Y905D1*
X845Y895D1*
X850Y885D1*
X855Y875D1*
X860Y865D1*
X867Y855D1*
X874Y845D1*
X882Y835D1*
X888Y825D1*
X894Y815D1*
X898Y805D1*
X903Y795D1*
X908Y785D1*
X915Y775D1*
X922Y765D1*
X929Y755D1*
X936Y745D1*
X943Y735D1*
X949Y725D1*
X956Y715D1*
X963Y705D1*
X969Y695D1*
X976Y685D1*
X984Y675D1*
X993Y665D1*
X1003Y655D1*
X1012Y645D1*
X1021Y635D1*
X1028Y625D1*
X1036Y615D1*
X1046Y605D1*
X1057Y595D1*
X1069Y585D1*
X1081Y575D1*
X1092Y565D1*
X1012Y1215D2*
X1022Y1205D1*
X1031Y1195D1*
X1038Y1185D1*
X1044Y1175D1*
X1050Y1165D1*
X1055Y1155D1*
X1059Y1145D1*
X1063Y1135D1*
X1067Y1125D1*
X1073Y1115D1*
X1079Y1105D1*
X1086Y1095D1*
X1094Y1085D1*
X1102Y1075D1*
X1108Y1065D1*
X1114Y1055D1*
X1118Y1045D1*
X1123Y1035D1*
X1128Y1025D1*
X1135Y1015D1*
X1142Y1005D1*
X1149Y995D1*
X1156Y985D1*
X1162Y975D1*
X1169Y965D1*
X1174Y955D1*
X1180Y945D1*
X1186Y935D1*
X1193Y925D1*
X1199Y915D1*
X1206Y905D1*
X1214Y895D1*
X1221Y885D1*
X1227Y875D1*
X1232Y865D1*
X1238Y855D1*
X1245Y845D1*
X1253Y835D1*
X1262Y825D1*
X1271Y815D1*
X1277Y805D1*
X1281Y795D1*
X1285Y785D1*
X1288Y775D1*
X1286Y765D1*
X1283Y755D1*
X1277Y745D1*
X1269Y735D1*
X1258Y725D1*
X1248Y715D1*
X1240Y705D1*
X1234Y695D1*
X1228Y685D1*
X1220Y675D1*
X1210Y665D1*
X1200Y655D1*
X1190Y645D1*
X1182Y635D1*
X1176Y625D1*
X1171Y615D1*
X1166Y605D1*
X1162Y595D1*
X1952Y1205D2*
X1950Y1195D1*
X1941Y1185D1*
X1929Y1175D1*
X1916Y1165D1*
X1901Y1155D1*
X1884Y1145D1*
X1867Y1135D1*
X1851Y1125D1*
X1836Y1115D1*
X1821Y1105D1*
X1805Y1095D1*
X1789Y1085D1*
X1771Y1075D1*
X1754Y1065D1*
X1738Y1055D1*
X1724Y1045D1*
X1711Y1035D1*
X1697Y1025D1*
X1684Y1015D1*
X1677Y1005D1*
X1676Y995D1*
X1679Y985D1*
X1685Y975D1*
X1692Y965D1*
X1699Y955D1*
X1706Y945D1*
X1712Y935D1*
X1717Y925D1*
X1722Y915D1*
X1728Y905D1*
X1735Y895D1*
X1743Y885D1*
X1751Y875D1*
X1759Y865D1*
X1766Y855D1*
X1772Y845D1*
X1779Y835D1*
X1786Y825D1*
X1793Y815D1*
X1799Y805D1*
X1806Y795D1*
X1814Y785D1*
X1823Y775D1*
X1831Y765D1*
X1837Y755D1*
X1842Y745D1*
X1849Y735D1*
X1857Y725D1*
X1866Y715D1*
X1874Y705D1*
X1881Y695D1*
X1887Y685D1*
X1890Y675D1*
X1892Y665D1*
X1962Y1205D2*
X1972Y1195D1*
X1982Y1185D1*
X1990Y1175D1*
X1997Y1165D1*
X2002Y1155D1*
X2008Y1145D1*
X2015Y1135D1*
X2023Y1125D1*
X2031Y1115D1*
X2039Y1105D1*
X2046Y1095D1*
X2052Y1085D1*
X2059Y1075D1*
X2066Y1065D1*
X2073Y1055D1*
X2080Y1045D1*
X2087Y1035D1*
X2096Y1025D1*
X2104Y1015D1*
X2110Y1005D1*
X2117Y995D1*
X2125Y985D1*
X2133Y975D1*
X2143Y965D1*
X2153Y955D1*
X2162Y945D1*
X2192Y1165D2*
X2184Y1155D1*
X2178Y1145D1*
X2176Y1135D1*
X2179Y1125D1*
X2187Y1115D1*
X2199Y1105D1*
X2212Y1095D1*
X2202Y1165D2*
Y1155D1*
Y1145D1*
X2252D1*
X2247Y1135D1*
X2240Y1125D1*
X2231Y1115D1*
X2222Y1105D1*
X2212Y1095D1*
X1292Y1135D2*
X1289Y1125D1*
X1286Y1115D1*
X1284Y1105D1*
Y1095D1*
X1285Y1085D1*
X1293Y1075D1*
X1302Y1065D1*
Y1135D2*
X1312Y1125D1*
X1335Y1115D1*
X1362Y1105D1*
X1356Y1095D1*
X1349Y1085D1*
X1341Y1075D1*
X1332Y1065D1*
X722Y1015D2*
X711Y1005D1*
X700Y995D1*
X690Y985D1*
X683Y975D1*
X678Y965D1*
X679Y955D1*
X680Y945D1*
X683Y935D1*
X687Y925D1*
X692Y915D1*
X699Y905D1*
X707Y895D1*
X715Y885D1*
X722Y875D1*
X727Y865D1*
X730Y855D1*
X732Y845D1*
Y835D1*
X762D1*
X768Y825D1*
X777Y815D1*
X789Y805D1*
X802Y795D1*
X742Y1025D2*
X744Y1015D1*
X747Y1005D1*
X751Y995D1*
X755Y985D1*
X760Y975D1*
X766Y965D1*
X773Y955D1*
X779Y945D1*
X784Y935D1*
X789Y925D1*
X793Y915D1*
X797Y905D1*
X803Y895D1*
X809Y885D1*
X816Y875D1*
X823Y865D1*
X829Y855D1*
X835Y845D1*
X840Y835D1*
X846Y825D1*
X853Y815D1*
X859Y805D1*
X866Y795D1*
X874Y785D1*
X883Y775D1*
X891Y765D1*
X897Y755D1*
X902Y745D1*
X908Y735D1*
X916Y725D1*
X927Y715D1*
X937Y705D1*
X945Y695D1*
X951Y685D1*
X957Y675D1*
X965Y665D1*
X975Y655D1*
X987Y645D1*
X999Y635D1*
X1011Y625D1*
X1022Y615D1*
X1033Y605D1*
X1044Y595D1*
X1057Y585D1*
X1071Y575D1*
X1085Y565D1*
X1098Y555D1*
X1111Y545D1*
X1122Y535D1*
X1112Y525D1*
X1642Y975D2*
X1616Y965D1*
X1595Y955D1*
X1578Y945D1*
X1563Y935D1*
X1549Y925D1*
X1534Y915D1*
X1519Y905D1*
X1503Y895D1*
X1488Y885D1*
X1475Y875D1*
X1463Y865D1*
X1452Y855D1*
X1439Y845D1*
X1424Y835D1*
X1409Y825D1*
X1396Y815D1*
X1384Y805D1*
X1373Y795D1*
X1363Y785D1*
X1353Y775D1*
X1342Y765D1*
X1349Y755D1*
X1356Y745D1*
X1364Y735D1*
X1373Y725D1*
X1381Y715D1*
X1386Y705D1*
X1390Y695D1*
X1393Y685D1*
X1398Y675D1*
X1405Y665D1*
X1413Y655D1*
X1421Y645D1*
X1429Y635D1*
X1436Y625D1*
X1442Y615D1*
X1449Y605D1*
X1454Y595D1*
X1460Y585D1*
X1465Y575D1*
X1470Y565D1*
X1477Y555D1*
X1484Y545D1*
X1491Y535D1*
X1497Y525D1*
X1502Y515D1*
X1507Y505D1*
X1514Y495D1*
X1533Y485D1*
X1563Y475D1*
X1602Y465D1*
X1622Y975D2*
X1639Y965D1*
X1652Y955D1*
X1661Y945D1*
X1669Y935D1*
X1676Y925D1*
X1684Y915D1*
X1693Y905D1*
X1702Y895D1*
X1711Y885D1*
X1718Y875D1*
X1724Y865D1*
X1730Y855D1*
X1738Y845D1*
X1748Y835D1*
X1759Y825D1*
X1769Y815D1*
X1776Y805D1*
X1782Y795D1*
X1789Y785D1*
X1799Y775D1*
X1810Y765D1*
X1821Y755D1*
X1830Y745D1*
X1837Y735D1*
X1843Y725D1*
X1852Y715D1*
X1861Y705D1*
X1871Y695D1*
X1881Y685D1*
X1888Y675D1*
X1896Y665D1*
X1904Y655D1*
X1911Y645D1*
X1916Y635D1*
X1914Y625D1*
X1906Y615D1*
X1893Y605D1*
X1878Y595D1*
X1861Y585D1*
X1845Y575D1*
X1829Y565D1*
X1811Y555D1*
X1791Y545D1*
X1768Y535D1*
X1743Y525D1*
X1719Y515D1*
X1694Y505D1*
X1665Y495D1*
X1625Y485D1*
X1569Y475D1*
X1502Y465D1*
X1912Y965D2*
X1904Y955D1*
X1899Y945D1*
X1895Y935D1*
X1894Y925D1*
X1893Y915D1*
Y905D1*
X1892Y895D1*
X2152Y965D2*
Y955D1*
X1912D2*
X1921Y945D1*
X1931Y935D1*
X1942Y925D1*
X1952Y935D2*
X1942Y925D1*
X1972Y935D2*
X1968Y925D1*
X1962Y915D1*
X1957Y905D1*
X1952Y895D1*
X982Y915D2*
X974Y905D1*
X969Y895D1*
X965Y885D1*
Y875D1*
X969Y865D1*
X975Y855D1*
X982Y845D1*
Y905D2*
X997Y895D1*
X1012Y885D1*
Y895D2*
X1002Y885D1*
X1042Y895D2*
X1037Y885D1*
X1032Y875D1*
X1026Y865D1*
X1019Y855D1*
X1012Y845D1*
X802Y805D2*
X792Y795D1*
X822Y805D2*
X819Y795D1*
X817Y785D1*
X815Y775D1*
X819Y765D1*
X825Y755D1*
X832Y745D1*
X841Y735D1*
X850Y725D1*
X861Y715D1*
X872Y705D1*
X882Y695D1*
X891Y685D1*
X900Y675D1*
X912Y665D1*
X924Y655D1*
X937Y645D1*
X948Y635D1*
X959Y625D1*
X972Y615D1*
X987Y605D1*
X1003Y595D1*
X1019Y585D1*
X1034Y575D1*
X1049Y565D1*
X1063Y555D1*
X1082Y545D1*
X1105Y535D1*
X1132Y525D1*
X1312Y745D2*
X1302Y735D1*
X1291Y725D1*
X1278Y715D1*
X1266Y705D1*
X1255Y695D1*
X1245Y685D1*
X1237Y675D1*
X1229Y665D1*
X1219Y655D1*
X1208Y645D1*
X1196Y635D1*
X1186Y625D1*
X1177Y615D1*
X1169Y605D1*
X1161Y595D1*
X1152Y585D1*
X1143Y575D1*
X1135Y565D1*
X1128Y555D1*
X1126Y545D1*
X1130Y535D1*
X1141Y525D1*
X1157Y515D1*
X1176Y505D1*
X1202Y495D1*
X1238Y485D1*
X1290Y475D1*
X1358Y465D1*
X1432Y455D1*
X1312Y745D2*
X1322Y735D1*
X1331Y725D1*
X1338Y715D1*
X1346Y705D1*
X1354Y695D1*
X1363Y685D1*
X1371Y675D1*
X1378Y665D1*
X1386Y655D1*
X1392Y645D1*
X1399Y635D1*
X1406Y625D1*
X1414Y615D1*
X1423Y605D1*
X1432Y595D1*
X1441Y585D1*
X1448Y575D1*
X1455Y565D1*
X1463Y555D1*
X1469Y545D1*
X1477Y535D1*
X1486Y525D1*
X1494Y515D1*
X1500Y505D1*
X1507Y495D1*
X1514Y485D1*
X1522Y475D1*
X1512Y465D1*
X1502Y455D1*
X1582Y715D2*
X1574Y705D1*
X1569Y695D1*
X1565Y685D1*
Y675D1*
X1569Y665D1*
X1575Y655D1*
X1582Y645D1*
X1592Y715D2*
Y705D1*
X1652Y695D1*
X1646Y685D1*
X1639Y675D1*
X1631Y665D1*
X1622Y655D1*
X1612Y645D1*
X1142Y585D2*
Y575D1*
X1272D2*
X1266Y565D1*
X1261Y555D1*
X1257Y545D1*
X1255Y535D1*
X1259Y525D1*
X1265Y515D1*
X1272Y505D1*
X1282Y565D2*
X1284Y555D1*
X1288Y545D1*
X1292Y535D1*
X1302Y545D2*
X1292Y535D1*
X1332Y545D2*
X1327Y535D1*
X1320Y525D1*
X1312Y515D1*
X1302Y505D1*
X5228Y12619D2*
D120*
X5276Y12595D1*
X5324Y12547D1*
X5348Y12500D1*
X5372Y12428D1*
Y12308D1*
X5348Y12237D1*
X5324Y12188D1*
X5276Y12141D1*
X5228Y12117D1*
X5132D1*
X5085Y12141D1*
X5037Y12188D1*
X5013Y12237D1*
X4989Y12308D1*
Y12428D1*
X5013Y12500D1*
X5037Y12547D1*
X5085Y12595D1*
X5132Y12619D1*
X5228D1*
X4500D2*
Y12117D1*
X4835Y12619D1*
Y12117D1*
X1795Y12619D2*
X1843Y12595D1*
X1891Y12547D1*
X1915Y12500D1*
X1939Y12428D1*
Y12308D1*
X1915Y12237D1*
X1891Y12188D1*
X1843Y12141D1*
X1795Y12117D1*
X1699D1*
X1652Y12141D1*
X1604Y12188D1*
X1580Y12237D1*
X1556Y12308D1*
Y12428D1*
X1580Y12500D1*
X1604Y12547D1*
X1652Y12595D1*
X1699Y12619D1*
X1795D1*
X1091D2*
X1402D1*
Y12117D1*
Y12380D2*
X1210D1*
X625Y12619D2*
X936D1*
Y12117D1*
Y12380D2*
X745D1*
X10434Y14257D2*
D121*
X10836D1*
Y14084D1*
X10817Y14027D1*
X10798Y14008D1*
X10760Y13989D1*
X10702D1*
X10664Y14008D1*
X10645Y14027D1*
X10626Y14084D1*
X10606Y14027D1*
X10587Y14008D1*
X10549Y13989D1*
X10511D1*
X10473Y14008D1*
X10453Y14027D1*
X10434Y14084D1*
Y14257D1*
X10626D2*
Y14084D1*
X10836Y13559D2*
X10434Y13712D1*
X10836Y13865D1*
X10702Y13808D2*
Y13616D1*
X10434Y13301D2*
X10836D1*
X10434Y13435D2*
Y13167D1*
Y12910D2*
X10836D1*
X10434Y13044D2*
Y12776D1*
Y12404D2*
Y12652D1*
X10836D1*
Y12404D1*
X10626Y12652D2*
Y12499D1*
Y12280D2*
Y12108D1*
X10606Y12051D1*
X10587Y12031D1*
X10549Y12012D1*
X10511D1*
X10473Y12031D1*
X10453Y12051D1*
X10434Y12108D1*
Y12280D1*
X10836D1*
X10626Y12146D2*
X10836Y12012D1*
X10434Y11889D2*
X10626Y11736D1*
X10836D1*
X10434Y11583D2*
X10626Y11736D1*
X9756Y13377D2*
D122*
Y12774D1*
X10057Y13075D2*
X9454D1*
X8966Y13076D2*
X8579D1*
X11098Y14190D2*
D121*
Y13980D1*
X11251Y14095D1*
Y14037D1*
X11270Y13999D1*
X11289Y13980D1*
X11347Y13961D1*
X11385D1*
X11442Y13980D1*
X11481Y14018D1*
X11500Y14076D1*
Y14133D1*
X11481Y14190D1*
X11461Y14209D1*
X11423Y14229D1*
X11461Y13818D2*
X11481Y13837D1*
X11500Y13818D1*
X11481Y13799D1*
X11461Y13818D1*
X11098Y13560D2*
X11117Y13618D1*
X11175Y13656D1*
X11270Y13675D1*
X11328D1*
X11423Y13656D1*
X11481Y13618D1*
X11500Y13560D1*
Y13522D1*
X11481Y13465D1*
X11423Y13427D1*
X11328Y13407D1*
X11270D1*
X11175Y13427D1*
X11117Y13465D1*
X11098Y13522D1*
Y13560D1*
X11175Y13427D2*
X11423Y13656D1*
X11299Y13284D2*
Y13063D1*
X11500Y12748D2*
X11098D1*
X11366Y12939D1*
Y12652D1*
X11461Y12510D2*
X11481Y12529D1*
X11500Y12510D1*
X11481Y12490D1*
X11461Y12510D1*
X11194Y12347D2*
X11175D1*
X11136Y12328D1*
X11117Y12309D1*
X11098Y12271D1*
Y12194D1*
X11117Y12156D1*
X11136Y12137D1*
X11175Y12118D1*
X11213D1*
X11251Y12137D1*
X11308Y12175D1*
X11500Y12367D1*
Y12099D1*
X11098Y11975D2*
X11500Y11822D1*
X11098Y11669D1*
X16527Y13789D2*
D119*
X16541Y13817D1*
X16570Y13846D1*
X16598Y13860D1*
X16656D1*
X16684Y13846D1*
X16713Y13817D1*
X16728Y13789D1*
X16742Y13746D1*
Y13674D1*
X16728Y13631D1*
X16713Y13602D1*
X16684Y13574D1*
X16656Y13559D1*
X16598D1*
X16570Y13574D1*
X16541Y13602D1*
X16527Y13631D1*
Y13674D1*
X16598D1*
X16434D2*
X16262D1*
Y13703D1*
X16276Y13731D1*
X16290Y13746D1*
X16319Y13760D1*
X16362D1*
X16391Y13746D1*
X16420Y13717D1*
X16434Y13674D1*
Y13645D1*
X16420Y13602D1*
X16391Y13574D1*
X16362Y13559D1*
X16319D1*
X16290Y13574D1*
X16262Y13602D1*
X16169Y13760D2*
Y13559D1*
Y13703D2*
X16126Y13746D1*
X16097Y13760D1*
X16054D1*
X16026Y13746D1*
X16011Y13703D1*
Y13559D1*
X15904Y13588D2*
X15919Y13573D1*
X15904Y13559D1*
X15890Y13573D1*
X15904Y13588D1*
X15797Y13703D2*
X15668D1*
X15625Y13717D1*
X15611Y13731D1*
X15596Y13760D1*
Y13803D1*
X15611Y13832D1*
X15625Y13846D1*
X15668Y13860D1*
X15797D1*
Y13559D1*
X15504Y13760D2*
Y13616D1*
X15489Y13574D1*
X15461Y13559D1*
X15417D1*
X15389Y13574D1*
X15346Y13616D1*
Y13760D2*
Y13559D1*
X15253Y13760D2*
Y13559D1*
Y13674D2*
X15239Y13717D1*
X15210Y13746D1*
X15181Y13760D1*
X15138D1*
X15045D2*
Y13458D1*
Y13717D2*
X15017Y13745D1*
X14988Y13760D1*
X14945D1*
X14916Y13745D1*
X14888Y13717D1*
X14873Y13674D1*
Y13645D1*
X14888Y13602D1*
X14916Y13573D1*
X14945Y13559D1*
X14988D1*
X15017Y13573D1*
X15045Y13602D1*
X14766Y13588D2*
X14780Y13573D1*
X14766Y13559D1*
X14752Y13573D1*
X14766Y13588D1*
X16514Y13423D2*
X16542Y13409D1*
X16571Y13380D1*
X16586Y13351D1*
X16600Y13308D1*
Y13236D1*
X16586Y13193D1*
X16571Y13164D1*
X16542Y13136D1*
X16514Y13121D1*
X16456D1*
X16428Y13136D1*
X16399Y13164D1*
X16385Y13193D1*
X16370Y13236D1*
Y13308D1*
X16385Y13351D1*
X16399Y13380D1*
X16428Y13409D1*
X16456Y13423D1*
X16514D1*
X16278Y13322D2*
Y13179D1*
X16263Y13136D1*
X16235Y13121D1*
X16191D1*
X16163Y13136D1*
X16120Y13179D1*
Y13322D2*
Y13121D1*
X15984Y13423D2*
Y13179D1*
X15970Y13136D1*
X15941Y13121D1*
X15912D1*
X16027Y13322D2*
X15927D1*
X15820D2*
Y13021D1*
Y13279D2*
X15791Y13308D1*
X15762Y13322D1*
X15719D1*
X15691Y13308D1*
X15662Y13279D1*
X15647Y13236D1*
Y13207D1*
X15662Y13164D1*
X15691Y13136D1*
X15719Y13121D1*
X15762D1*
X15791Y13136D1*
X15820Y13164D1*
X15555Y13322D2*
Y13179D1*
X15541Y13136D1*
X15512Y13121D1*
X15469D1*
X15440Y13136D1*
X15397Y13179D1*
Y13322D2*
Y13121D1*
X15261Y13423D2*
Y13179D1*
X15247Y13136D1*
X15218Y13121D1*
X15190D1*
X15304Y13322D2*
X15204D1*
X14939Y13279D2*
X14953Y13308D1*
X14996Y13322D1*
X15040D1*
X15083Y13308D1*
X15097Y13279D1*
X15083Y13251D1*
X15054Y13236D1*
X14982Y13222D1*
X14953Y13208D1*
X14939Y13179D1*
Y13164D1*
X14953Y13136D1*
X14996Y13121D1*
X15040D1*
X15083Y13136D1*
X15097Y13164D1*
X16584Y8246D2*
Y8547D1*
X16727Y8346D1*
X16512D1*
X16405Y8275D2*
X16419Y8260D1*
X16405Y8246D1*
X16390Y8260D1*
X16405Y8275D1*
X16068Y8246D2*
X16183Y8547D1*
X16298Y8246D1*
X16255Y8346D2*
X16111D1*
X15454Y8246D2*
Y8547D1*
X15569Y8246D1*
X15684Y8547D1*
Y8246D1*
X15190Y8447D2*
Y8246D1*
Y8404D2*
X15218Y8433D1*
X15247Y8447D1*
X15290D1*
X15319Y8433D1*
X15347Y8404D1*
X15362Y8361D1*
Y8332D1*
X15347Y8289D1*
X15319Y8260D1*
X15290Y8246D1*
X15247D1*
X15218Y8260D1*
X15190Y8289D1*
X15097Y8447D2*
X14939Y8246D1*
Y8447D2*
X15097Y8246D1*
X15199Y12115D2*
X15170Y12130D1*
X15127Y12172D1*
Y11871D1*
X15188Y9725D2*
Y9740D1*
X15174Y9769D1*
X15159Y9783D1*
X15131Y9797D1*
X15073D1*
X15045Y9783D1*
X15030Y9769D1*
X15016Y9740D1*
Y9711D1*
X15030Y9682D1*
X15059Y9640D1*
X15203Y9496D1*
X15002D1*
X16611Y9797D2*
X16454D1*
X16540Y9682D1*
X16497D1*
X16468Y9668D1*
X16454Y9654D1*
X16439Y9611D1*
Y9582D1*
X16454Y9539D1*
X16482Y9510D1*
X16525Y9496D1*
X16569D1*
X16611Y9510D1*
X16626Y9525D1*
X16640Y9553D1*
X16511Y11871D2*
Y12172D1*
X16654Y11972D1*
X16439D1*
X16761Y4484D2*
Y4183D1*
X16589D1*
X16267D2*
Y4484D1*
X16382Y4183D1*
X16497Y4484D1*
Y4183D1*
X16074Y4484D2*
Y4183D1*
X16174Y4484D2*
X15974D1*
X15809D2*
X15852Y4470D1*
X15867Y4441D1*
Y4412D1*
X15852Y4384D1*
X15824Y4369D1*
X15766Y4355D1*
X15723Y4341D1*
X15695Y4312D1*
X15680Y4283D1*
Y4240D1*
X15695Y4212D1*
X15709Y4197D1*
X15752Y4183D1*
X15809D1*
X15852Y4197D1*
X15867Y4212D1*
X15881Y4240D1*
Y4283D1*
X15867Y4312D1*
X15838Y4341D1*
X15795Y4355D1*
X15738Y4369D1*
X15709Y4384D1*
X15695Y4412D1*
Y4441D1*
X15709Y4470D1*
X15752Y4484D1*
X15809D1*
X15444Y4183D2*
Y4484D1*
X15588Y4283D1*
X15372D1*
X15280Y4484D2*
Y4183D1*
X15108D1*
X15015Y4327D2*
X14886D1*
X14843Y4341D1*
X14828Y4355D1*
X14814Y4384D1*
Y4427D1*
X14828Y4456D1*
X14843Y4470D1*
X14886Y4484D1*
X15015D1*
Y4183D1*
X16637Y3758D2*
D120*
X16589Y3782D1*
X16517Y3853D1*
Y3352D1*
X15265Y3734D2*
Y3758D1*
X15241Y3806D1*
X15218Y3830D1*
X15170Y3853D1*
X15074D1*
X15026Y3830D1*
X15003Y3806D1*
X14978Y3758D1*
Y3710D1*
X15003Y3662D1*
X15050Y3591D1*
X15289Y3352D1*
X14955D1*
X15856Y3056D2*
D119*
Y2926D1*
X15842Y2884D1*
X15827Y2869D1*
X15799Y2855D1*
X15756D1*
X15727Y2869D1*
X15712Y2884D1*
X15698Y2926D1*
Y3056D1*
X16000D1*
X15799Y2762D2*
X16000Y2705D1*
X15799Y2647D1*
X16000Y2590D1*
X15799Y2533D1*
Y2440D2*
X16000D1*
X15885D2*
X15842Y2426D1*
X15813Y2397D1*
X15799Y2368D1*
Y2325D1*
X15689Y1998D2*
X15703Y2027D1*
X15732Y2055D1*
X15761Y2070D1*
X15804Y2084D1*
X15876D1*
X15918Y2070D1*
X15947Y2055D1*
X15976Y2027D1*
X15990Y1998D1*
Y1940D1*
X15976Y1912D1*
X15947Y1883D1*
X15918Y1869D1*
X15876Y1855D1*
X15804D1*
X15761Y1869D1*
X15732Y1883D1*
X15703Y1912D1*
X15689Y1940D1*
Y1998D1*
X15789Y1762D2*
X15933D1*
X15976Y1748D1*
X15990Y1719D1*
Y1676D1*
X15976Y1647D1*
X15933Y1604D1*
X15789D2*
X15990D1*
X15689Y1468D2*
X15933D1*
X15976Y1454D1*
X15990Y1425D1*
Y1397D1*
X15789Y1511D2*
Y1411D1*
X15770Y903D2*
X15741Y917D1*
X15712Y946D1*
X15698Y974D1*
Y1032D1*
X15712Y1061D1*
X15741Y1089D1*
X15770Y1104D1*
X15813Y1118D1*
X15885D1*
X15928Y1104D1*
X15956Y1089D1*
X15985Y1061D1*
X16000Y1032D1*
Y974D1*
X15985Y946D1*
X15956Y917D1*
X15928Y903D1*
X15885D1*
Y974D1*
X15799Y810D2*
X16000D1*
X15856D2*
X15813Y767D1*
X15799Y738D1*
Y695D1*
X15813Y666D1*
X15856Y652D1*
X16000D1*
X15698Y387D2*
X16000D1*
X15842D2*
X15813Y416D1*
X15799Y445D1*
Y488D1*
X15813Y516D1*
X15842Y545D1*
X15885Y560D1*
X15913D1*
X15956Y545D1*
X15985Y516D1*
X16000Y488D1*
Y445D1*
X15985Y416D1*
X15956Y387D1*
X4032Y10598D2*
X4046Y10612D1*
X4032Y10627D1*
X4017Y10612D1*
Y10584D1*
X4032Y10555D1*
X4046Y10540D1*
X3974Y10598D2*
X3989Y10612D1*
X3974Y10627D1*
X3960Y10612D1*
Y10584D1*
X3974Y10555D1*
X3989Y10540D1*
X3867Y10627D2*
Y10326D1*
X3695D1*
X3531Y10527D2*
X3559Y10512D1*
X3588Y10483D1*
X3603Y10440D1*
Y10412D1*
X3588Y10369D1*
X3559Y10340D1*
X3531Y10326D1*
X3488D1*
X3459Y10340D1*
X3430Y10369D1*
X3416Y10412D1*
Y10440D1*
X3430Y10483D1*
X3459Y10512D1*
X3488Y10527D1*
X3531D1*
X3323D2*
Y10326D1*
Y10469D2*
X3280Y10512D1*
X3251Y10527D1*
X3208D1*
X3180Y10512D1*
X3165Y10469D1*
Y10326D1*
X3073Y10440D2*
X2901D1*
Y10469D1*
X2915Y10498D1*
X2929Y10512D1*
X2958Y10527D1*
X3001D1*
X3030Y10512D1*
X3058Y10483D1*
X3073Y10440D1*
Y10412D1*
X3058Y10369D1*
X3030Y10340D1*
X3001Y10326D1*
X2958D1*
X2929Y10340D1*
X2901Y10369D1*
X2516Y10469D2*
X2387D1*
X2344Y10483D1*
X2330Y10498D1*
X2315Y10527D1*
Y10570D1*
X2330Y10598D1*
X2344Y10613D1*
X2387Y10627D1*
X2516D1*
Y10326D1*
X2223Y10627D2*
X2209Y10613D1*
X2194Y10627D1*
X2209Y10642D1*
X2223Y10627D1*
X2209Y10527D2*
Y10326D1*
X2101Y10527D2*
Y10326D1*
Y10469D2*
X2058Y10512D1*
X2029Y10527D1*
X1987D1*
X1958Y10512D1*
X1943Y10469D1*
Y10326D1*
X1851Y10440D2*
X1679D1*
Y10469D1*
X1693Y10498D1*
X1707Y10512D1*
X1736Y10527D1*
X1779D1*
X1808Y10512D1*
X1837Y10483D1*
X1851Y10440D1*
Y10412D1*
X1837Y10369D1*
X1808Y10340D1*
X1779Y10326D1*
X1736D1*
X1707Y10340D1*
X1679Y10369D1*
X1414Y10527D2*
Y10326D1*
Y10483D2*
X1442Y10512D1*
X1471Y10527D1*
X1514D1*
X1543Y10512D1*
X1571Y10483D1*
X1586Y10440D1*
Y10412D1*
X1571Y10369D1*
X1543Y10340D1*
X1514Y10326D1*
X1471D1*
X1442Y10340D1*
X1414Y10369D1*
X1321Y10527D2*
Y10225D1*
Y10483D2*
X1292Y10512D1*
X1264Y10527D1*
X1221D1*
X1192Y10512D1*
X1163Y10483D1*
X1149Y10440D1*
Y10411D1*
X1163Y10369D1*
X1192Y10340D1*
X1221Y10326D1*
X1264D1*
X1292Y10340D1*
X1321Y10369D1*
X1056Y10527D2*
Y10225D1*
Y10483D2*
X1027Y10512D1*
X999Y10527D1*
X956D1*
X927Y10512D1*
X898Y10483D1*
X884Y10440D1*
Y10411D1*
X898Y10369D1*
X927Y10340D1*
X956Y10326D1*
X999D1*
X1027Y10340D1*
X1056Y10369D1*
X791Y10627D2*
Y10326D1*
X699Y10440D2*
X526D1*
Y10469D1*
X541Y10498D1*
X555Y10512D1*
X584Y10527D1*
X627D1*
X655Y10512D1*
X684Y10483D1*
X699Y10440D1*
Y10412D1*
X684Y10369D1*
X655Y10340D1*
X627Y10326D1*
X584D1*
X555Y10340D1*
X526Y10369D1*
X419Y10598D2*
X434Y10612D1*
X419Y10627D1*
X405Y10612D1*
Y10584D1*
X419Y10555D1*
X434Y10540D1*
X362Y10598D2*
X376Y10612D1*
X362Y10627D1*
X348Y10612D1*
Y10584D1*
X362Y10555D1*
X376Y10540D1*
X4317Y10112D2*
Y9811D1*
X4116Y10112D2*
Y9811D1*
X4317Y9969D2*
X4116D1*
X3793Y9811D2*
X3908Y10112D1*
X4023Y9811D1*
X3980Y9911D2*
X3836D1*
X3701Y10112D2*
Y9811D1*
X3571D1*
X3528Y9825D1*
X3514Y9840D1*
X3500Y9868D1*
Y9911D1*
X3514Y9940D1*
X3528Y9954D1*
X3571Y9969D1*
X3528Y9983D1*
X3514Y9998D1*
X3500Y10026D1*
Y10055D1*
X3514Y10083D1*
X3528Y10098D1*
X3571Y10112D1*
X3701D1*
Y9969D2*
X3571D1*
X3115Y10112D2*
Y9811D1*
X3015D1*
X2972Y9825D1*
X2943Y9854D1*
X2929Y9883D1*
X2914Y9926D1*
Y9998D1*
X2929Y10041D1*
X2943Y10069D1*
X2972Y10098D1*
X3015Y10112D1*
X3115D1*
X2650Y10012D2*
Y9811D1*
Y9969D2*
X2678Y9998D1*
X2707Y10012D1*
X2750D1*
X2779Y9998D1*
X2807Y9969D1*
X2822Y9926D1*
Y9897D1*
X2807Y9854D1*
X2779Y9825D1*
X2750Y9811D1*
X2707D1*
X2678Y9825D1*
X2650Y9854D1*
X2514Y10112D2*
Y9868D1*
X2500Y9825D1*
X2471Y9811D1*
X2442D1*
X2557Y10012D2*
X2457D1*
X2178D2*
Y9811D1*
Y9969D2*
X2206Y9998D1*
X2235Y10012D1*
X2278D1*
X2307Y9998D1*
X2335Y9969D1*
X2350Y9926D1*
Y9897D1*
X2335Y9854D1*
X2307Y9825D1*
X2278Y9811D1*
X2235D1*
X2206Y9825D1*
X2178Y9854D1*
X1793Y10112D2*
Y9811D1*
X1621D1*
X1457Y10012D2*
X1486Y9998D1*
X1514Y9969D1*
X1529Y9926D1*
Y9897D1*
X1514Y9854D1*
X1486Y9825D1*
X1457Y9811D1*
X1414D1*
X1385Y9825D1*
X1357Y9854D1*
X1342Y9897D1*
Y9926D1*
X1357Y9969D1*
X1385Y9998D1*
X1414Y10012D1*
X1457D1*
X1077Y9998D2*
Y9768D1*
X1091Y9725D1*
X1106Y9710D1*
X1135Y9696D1*
X1178D1*
X1206Y9710D1*
X1077Y9954D2*
X1106Y9983D1*
X1135Y9998D1*
X1178D1*
X1206Y9983D1*
X1235Y9954D1*
X1249Y9911D1*
Y9883D1*
X1235Y9840D1*
X1206Y9811D1*
X1178Y9797D1*
X1135D1*
X1106Y9811D1*
X1077Y9840D1*
X812Y9998D2*
Y9768D1*
X827Y9725D1*
X841Y9710D1*
X870Y9696D1*
X913D1*
X941Y9710D1*
X812Y9954D2*
X841Y9983D1*
X870Y9998D1*
X913D1*
X941Y9983D1*
X970Y9954D1*
X985Y9911D1*
Y9883D1*
X970Y9840D1*
X941Y9811D1*
X913Y9797D1*
X870D1*
X841Y9811D1*
X812Y9840D1*
X720Y9926D2*
X548D1*
Y9954D1*
X562Y9983D1*
X576Y9998D1*
X605Y10012D1*
X648D1*
X677Y9998D1*
X706Y9969D1*
X720Y9926D1*
Y9897D1*
X706Y9854D1*
X677Y9825D1*
X648Y9811D1*
X605D1*
X576Y9825D1*
X548Y9854D1*
X455Y10012D2*
Y9811D1*
Y9926D2*
X440Y9969D1*
X412Y9998D1*
X383Y10012D1*
X340D1*
X2924Y9386D2*
Y9156D1*
X2938Y9113D1*
X2953Y9099D1*
X2981Y9084D1*
X3010D1*
X3039Y9099D1*
X3053Y9113D1*
X3067Y9156D1*
Y9185D1*
X2760Y9285D2*
X2788Y9271D1*
X2817Y9242D1*
X2831Y9199D1*
Y9170D1*
X2817Y9127D1*
X2788Y9099D1*
X2760Y9084D1*
X2716D1*
X2688Y9099D1*
X2659Y9127D1*
X2645Y9170D1*
Y9199D1*
X2659Y9242D1*
X2688Y9271D1*
X2716Y9285D1*
X2760D1*
X2552D2*
Y9084D1*
Y9228D2*
X2509Y9271D1*
X2480Y9285D1*
X2437D1*
X2408Y9271D1*
X2394Y9228D1*
Y9084D1*
X2010Y9386D2*
X1938Y9084D1*
X1866Y9386D1*
X1795Y9084D1*
X1723Y9386D1*
X1630D2*
Y9084D1*
Y9228D2*
X1587Y9271D1*
X1558Y9285D1*
X1515D1*
X1486Y9271D1*
X1472Y9228D1*
Y9084D1*
X1379Y9199D2*
X1207D1*
Y9228D1*
X1222Y9257D1*
X1236Y9271D1*
X1265Y9285D1*
X1308D1*
X1336Y9271D1*
X1365Y9242D1*
X1379Y9199D1*
Y9170D1*
X1365Y9127D1*
X1336Y9099D1*
X1308Y9084D1*
X1265D1*
X1236Y9099D1*
X1207Y9127D1*
X1115Y9386D2*
Y9084D1*
X1022Y9199D2*
X850D1*
Y9228D1*
X864Y9257D1*
X879Y9271D1*
X907Y9285D1*
X950D1*
X979Y9271D1*
X1008Y9242D1*
X1022Y9199D1*
Y9170D1*
X1008Y9127D1*
X979Y9099D1*
X950Y9084D1*
X907D1*
X879Y9099D1*
X850Y9127D1*
X600Y9242D2*
X614Y9271D1*
X657Y9285D1*
X700D1*
X743Y9271D1*
X757Y9242D1*
X743Y9214D1*
X714Y9199D1*
X643Y9185D1*
X614Y9170D1*
X600Y9142D1*
Y9127D1*
X614Y9099D1*
X657Y9084D1*
X700D1*
X743Y9099D1*
X757Y9127D1*
X349Y9242D2*
X363Y9271D1*
X406Y9285D1*
X450D1*
X493Y9271D1*
X507Y9242D1*
X493Y9214D1*
X464Y9199D1*
X392Y9185D1*
X363Y9170D1*
X349Y9142D1*
Y9127D1*
X363Y9099D1*
X406Y9084D1*
X450D1*
X493Y9099D1*
X507Y9127D1*
X3063Y8791D2*
X3077Y8820D1*
X3106Y8849D1*
X3134Y8863D1*
X3192D1*
X3220Y8849D1*
X3249Y8820D1*
X3264Y8791D1*
X3278Y8748D1*
Y8676D1*
X3264Y8633D1*
X3249Y8604D1*
X3220Y8576D1*
X3192Y8561D1*
X3134D1*
X3106Y8576D1*
X3077Y8604D1*
X3063Y8633D1*
Y8676D1*
X3134D1*
X2798Y8762D2*
Y8561D1*
Y8719D2*
X2826Y8748D1*
X2855Y8762D1*
X2898D1*
X2927Y8748D1*
X2955Y8719D1*
X2970Y8676D1*
Y8648D1*
X2955Y8604D1*
X2927Y8576D1*
X2898Y8561D1*
X2855D1*
X2826Y8576D1*
X2798Y8604D1*
X2705Y8863D2*
Y8561D1*
Y8719D2*
X2676Y8748D1*
X2648Y8762D1*
X2605D1*
X2576Y8748D1*
X2547Y8719D1*
X2533Y8676D1*
Y8648D1*
X2547Y8604D1*
X2576Y8576D1*
X2605Y8561D1*
X2648D1*
X2676Y8576D1*
X2705Y8604D1*
X2440Y8676D2*
X2268D1*
Y8705D1*
X2283Y8734D1*
X2297Y8748D1*
X2326Y8762D1*
X2369D1*
X2397Y8748D1*
X2426Y8719D1*
X2440Y8676D1*
Y8648D1*
X2426Y8604D1*
X2397Y8576D1*
X2369Y8561D1*
X2326D1*
X2297Y8576D1*
X2268Y8604D1*
X1884Y8705D2*
X1755D1*
X1712Y8719D1*
X1697Y8734D1*
X1683Y8762D1*
Y8805D1*
X1697Y8834D1*
X1712Y8849D1*
X1755Y8863D1*
X1884D1*
Y8561D1*
X1591Y8676D2*
X1418D1*
Y8705D1*
X1433Y8734D1*
X1447Y8748D1*
X1476Y8762D1*
X1519D1*
X1547Y8748D1*
X1576Y8719D1*
X1591Y8676D1*
Y8648D1*
X1576Y8604D1*
X1547Y8576D1*
X1519Y8561D1*
X1476D1*
X1447Y8576D1*
X1418Y8604D1*
X1154Y8762D2*
Y8561D1*
Y8719D2*
X1182Y8748D1*
X1211Y8762D1*
X1254D1*
X1283Y8748D1*
X1311Y8719D1*
X1326Y8676D1*
Y8648D1*
X1311Y8604D1*
X1283Y8576D1*
X1254Y8561D1*
X1211D1*
X1182Y8576D1*
X1154Y8604D1*
X1061Y8762D2*
Y8561D1*
Y8676D2*
X1046Y8719D1*
X1018Y8748D1*
X989Y8762D1*
X946D1*
X853Y8863D2*
Y8561D1*
Y8705D2*
X810Y8748D1*
X781Y8762D1*
X738D1*
X710Y8748D1*
X695Y8705D1*
Y8561D1*
X603Y8863D2*
X589Y8849D1*
X574Y8863D1*
X589Y8877D1*
X603Y8863D1*
X589Y8762D2*
Y8561D1*
X481Y8863D2*
Y8561D1*
X389Y8863D2*
Y8561D1*
X1358Y8134D2*
Y8148D1*
X1343Y8177D1*
X1329Y8191D1*
X1300Y8206D1*
X1243D1*
X1214Y8191D1*
X1200Y8177D1*
X1185Y8148D1*
Y8120D1*
X1200Y8091D1*
X1229Y8048D1*
X1372Y7905D1*
X1171D1*
X992Y8206D2*
X1035Y8191D1*
X1064Y8148D1*
X1079Y8077D1*
Y8034D1*
X1064Y7962D1*
X1035Y7919D1*
X992Y7905D1*
X964D1*
X921Y7919D1*
X892Y7962D1*
X878Y8034D1*
Y8077D1*
X892Y8148D1*
X921Y8191D1*
X964Y8206D1*
X992D1*
X892Y8148D2*
X1064Y7962D1*
X785Y8148D2*
X756Y8163D1*
X713Y8206D1*
Y7905D1*
X448Y8206D2*
X591D1*
X606Y8077D1*
X591Y8091D1*
X548Y8105D1*
X506D1*
X462Y8091D1*
X434Y8062D1*
X419Y8019D1*
Y7991D1*
X434Y7948D1*
X462Y7919D1*
X506Y7905D1*
X548D1*
X591Y7919D1*
X606Y7933D1*
X620Y7962D1*
X1944Y6111D2*
D121*
X2098Y6512D1*
X2251Y6111D1*
X2193Y6245D2*
X2002D1*
X1553Y6512D2*
Y6111D1*
X1821Y6512D1*
Y6111D1*
X1295Y6512D2*
Y6111D1*
X1429Y6512D2*
X1161D1*
X649D2*
Y6111D1*
X258Y6512D2*
Y6111D1*
X526Y6512D1*
Y6111D1*
M02*
