M48
INCH
T01C0.013
T02C0.0354
%
T01
X+000625Y+005687
X+000938Y+005687
X+001250Y+005687
X+001562Y+005687
X+001875Y+005687
X+001875Y+006875
X+001562Y+006875
X+001250Y+006875
X+000937Y+006875
X+000625Y+006875
X+000312Y+006875
X+000313Y+005687
X+002969Y+006281
X+003375Y+005876
X+003406Y+005437
X+003375Y+006688
X+002812Y+008063
X+002812Y+008313
X+005125Y+008313
X+005125Y+008063
X+006438Y+007751
X+009126Y+007876
X+009126Y+008751
X+010189Y+008876
X+010501Y+009188
X+010814Y+008876
X+010814Y+009501
X+010189Y+009501
X+011876Y+010001
X+012375Y+011687
X+012625Y+011938
X+012875Y+012187
X+012375Y+012187
X+012875Y+011688
X+013312Y+013250
X+013314Y+014001
X+014563Y+014250
X+014875Y+014250
X+015188Y+014250
X+015500Y+014250
X+015813Y+014250
X+016125Y+014250
X+016437Y+014250
X+016750Y+014250
X+011844Y+014375
X+010001Y+011814
X+010001Y+011501
X+009250Y+011500
X+009000Y+011750
X+008750Y+012000
X+009250Y+012000
X+008750Y+011500
X+005687Y+013187
X+005687Y+013562
X+004625Y+013875
X+004625Y+013000
X+004562Y+011813
X+004875Y+011000
X+003375Y+011000
X+001750Y+013000
X+001750Y+013875
X+000562Y+013937
X+000562Y+013625
X+004875Y+004000
X+004875Y+003625
X+004875Y+003250
X+004313Y+002750
X+003875Y+002188
X+003625Y+002438
X+003406Y+002688
X+003750Y+001250
X+004125Y+000625
X+005000Y+000625
X+005375Y+001250
X+005063Y+002000
X+006563Y+001625
X+007000Y+000844
X+008594Y+001281
X+009750Y+001750
X+012001Y+002250
X+012251Y+003188
X+012001Y+003438
X+012626Y+003875
X+012876Y+003625
X+011439Y+004188
X+010000Y+005750
X+010000Y+006563
X+011251Y+006501
X+011751Y+007626
X+013126Y+008751
X+014750Y+007375
X+015063Y+007375
X+015375Y+007375
X+015688Y+007375
X+016000Y+007375
X+016313Y+007375
X+016625Y+007375
X+016937Y+007375
X+016752Y+006251
X+016064Y+006626
X+014500Y+006563
X+014438Y+005687
X+014438Y+004938
X+015877Y+004625
X+015877Y+004000
X+015814Y+003313
X+007001Y+003250
X+002937Y+000313
T02
X+009750Y+013750
X+008750Y+013750
X+007750Y+013750
X+007750Y+012750
X+007750Y+011750
X+007750Y+010750
X+007750Y+009750
X+007750Y+008750
X+007750Y+007750
X+007750Y+006750
X+007750Y+005750
X+007750Y+004750
X+007750Y+003750
X+007750Y+002750
X+007750Y+001750
X+007750Y+000750
X+008750Y+000750
X+009750Y+000750
X+010750Y+000750
X+011750Y+000750
X+012750Y+000750
X+013750Y+000750
X+013750Y+001750
X+013750Y+002750
X+013750Y+003750
X+013750Y+004750
X+013750Y+005750
X+013750Y+006750
X+013750Y+007750
X+013750Y+008750
X+013750Y+009750
X+013750Y+010750
X+012750Y+010750
X+013750Y+011750
X+013750Y+012750
X+013750Y+013750
X+015125Y+012500
X+015125Y+011500
X+016500Y+011500
X+016500Y+012500
X+016500Y+010125
X+016500Y+009125
X+015125Y+009125
X+015125Y+010125
X+015125Y+002750
X+015125Y+001750
X+015125Y+000750
X+016500Y+000750
X+016500Y+001750
X+016500Y+002750
X+003778Y+013433
X+002596Y+013433
T00
M30
