G04 DipTrace 2.4.0.2*
%INTopSilk.gbr*%
%MOIN*%
%ADD10C,0.0098*%
%ADD43C,0.0154*%
%ADD45C,0.0138*%
%ADD46C,0.0049*%
%FSLAX44Y44*%
G04*
G70*
G90*
G75*
G01*
%LNTopSilk*%
%LPD*%
X8250Y14250D2*
D10*
Y13250D1*
X10250Y14250D2*
X8250D1*
X10250D2*
Y13250D1*
X8250D1*
X14625Y8625D2*
X15625D1*
X14625Y10625D2*
Y8625D1*
Y10625D2*
X15625D1*
Y8625D1*
X16000D2*
X17000D1*
X16000Y10625D2*
Y8625D1*
Y10625D2*
X17000D1*
Y8625D1*
X15625Y13000D2*
X14625D1*
X15625Y11000D2*
Y13000D1*
Y11000D2*
X14625D1*
Y13000D1*
X17000D2*
X16000D1*
X17000Y11000D2*
Y13000D1*
Y11000D2*
X16000D1*
Y13000D1*
X14625Y3250D2*
X15625D1*
Y250D1*
X14625D2*
X15625D1*
X14625Y3250D2*
Y250D1*
X16000Y3250D2*
X17000D1*
Y250D1*
X16000D2*
X17000D1*
X16000Y3250D2*
Y250D1*
X236Y4825D2*
X2027D1*
Y7738D1*
X2007D2*
X236D1*
X810Y1591D2*
X435D1*
X1248D2*
Y1091D1*
X623Y1528D2*
Y1091D1*
X1185Y1341D2*
X623D1*
X1248Y1591D2*
X1373Y1466D1*
X1248Y1591D2*
X1123Y1466D1*
X1248Y1091D2*
X1373Y1215D1*
X1248Y1091D2*
X1123Y1215D1*
X623Y1091D2*
X748Y1215D1*
X623Y1091D2*
X498Y1215D1*
X14731Y8391D2*
X15617D1*
Y7603D2*
X14731D1*
X15617Y8391D2*
Y7603D1*
X15814Y8194D2*
X15617D1*
X15814Y7800D1*
X15617D1*
X8356Y13016D2*
X9242D1*
Y12228D2*
X8356D1*
X9242Y13016D2*
Y12228D1*
X9439Y12819D2*
X9242D1*
X9439Y12425D1*
X9242D1*
X15981Y8391D2*
X16867D1*
Y7603D2*
X15981D1*
X16867Y8391D2*
Y7603D1*
X17064Y8194D2*
X16867D1*
X17064Y7800D1*
X16867D1*
X16831Y13234D2*
X15945D1*
Y14022D2*
X16831D1*
X15945Y13234D2*
Y14022D1*
X15749Y13431D2*
X15945D1*
X15749Y13825D1*
X15945D1*
X15581Y13234D2*
X14695D1*
Y14022D2*
X15581D1*
X14695Y13234D2*
Y14022D1*
X14499Y13431D2*
X14695D1*
X14499Y13825D1*
X14695D1*
X12783Y14154D2*
X11464D1*
X11838Y13465D2*
Y14449D1*
Y14154D2*
X12389Y14449D1*
Y14154D1*
X4016Y1310D2*
X5118D1*
X4016Y306D2*
X5118D1*
X4567Y1290D2*
X4508Y1015D1*
X4567Y483D2*
Y306D1*
Y503D2*
X4823Y975D1*
X3602Y1034D2*
Y562D1*
X5532Y1034D2*
Y562D1*
X4508Y985D2*
G02X4508Y985I49J0D01*
G01*
X1594Y13746D2*
G03X5097Y13785I1708J3936D01*
G01*
X462Y13195D2*
Y8037D1*
X2334D1*
X3218D2*
X4595D1*
X5562D2*
X6013D1*
Y12801D1*
X1594Y14022D2*
X1042D1*
X1594Y13746D2*
Y14022D1*
X5097Y13785D2*
X5216D1*
D43*
X8978Y6871D3*
X9479Y6779D2*
D10*
Y5598D1*
X9676D1*
Y6779D1*
X9479D1*
X11559Y2738D2*
Y2613D1*
Y2238D2*
Y2113D1*
Y1738D2*
Y1613D1*
X10809Y1426D2*
X11059D1*
X10372Y1613D2*
Y1738D1*
Y2113D2*
Y2238D1*
Y2613D2*
Y2738D1*
X10809Y2926D2*
X11059D1*
X10344Y3170D2*
G02X10344Y3170I69J0D01*
G01*
D45*
X14752Y5115D3*
X14703Y6129D2*
D46*
Y6247D1*
X14821D1*
X15884Y6129D2*
Y6247D1*
X15766D2*
X15884D1*
X15766Y5066D2*
X15884D1*
Y5184D1*
X2711Y2994D2*
D10*
X6530D1*
X2711Y6970D2*
X6530D1*
X3164Y6951D2*
Y2994D1*
X6077Y6970D2*
Y3053D1*
X5683Y3270D2*
G02X5683Y3270I118J0D01*
G01*
X9919Y8575D2*
X11100D1*
X9919Y9835D2*
X11100D1*
Y8575D2*
Y9835D1*
X9919Y8575D2*
Y9815D1*
X9860Y8398D2*
G02X9860Y8398I39J0D01*
G01*
D43*
X13372Y9711D3*
X13280Y9209D2*
D10*
X12099D1*
Y9012D1*
X13280D1*
Y9209D1*
X7250Y14250D2*
X8250D1*
X7250D2*
Y250D1*
X14250D1*
Y14250D1*
X13250D1*
M02*
